<svg width="24" height="24" viewBox="0 0 24 24" fill="none" xmlns="http://www.w3.org/2000/svg">
<path d="M23.25 5.715C23.2491 5.32656 23.1331 4.94709 22.9168 4.62445C22.7005 4.3018 22.3935 4.05043 22.0346 3.90203C21.6756 3.75362 21.2807 3.71484 20.8997 3.79055C20.5187 3.86627 20.1687 4.05311 19.8938 4.3275L15 9.22125V8.25C14.9991 7.9519 14.8803 7.66626 14.6695 7.45547C14.4587 7.24468 14.1731 7.12587 13.875 7.125H10.5V3.75C10.4991 3.4519 10.3803 3.16626 10.1695 2.95547C9.95874 2.74468 9.6731 2.62587 9.375 2.625H6.375C6.0769 2.62587 5.79126 2.74468 5.58047 2.95547C5.36968 3.16626 5.25087 3.4519 5.25 3.75V7.125H1.875C1.5769 7.12587 1.29126 7.24468 1.08047 7.45547C0.869677 7.66626 0.750871 7.9519 0.75 8.25V11.25C0.750871 11.5481 0.869677 11.8337 1.08047 12.0445C1.29126 12.2553 1.5769 12.3741 1.875 12.375H5.25V20.25C5.25087 20.5481 5.36968 20.8337 5.58047 21.0445C5.79126 21.2553 6.0769 21.3741 6.375 21.375H9.375C9.6731 21.3741 9.95874 21.2553 10.1695 21.0445C10.3803 20.8337 10.4991 20.5481 10.5 20.25V16.875H18.375C18.6731 16.8741 18.9587 16.7553 19.1695 16.5445C19.3803 16.3337 19.4991 16.0481 19.5 15.75V12.75C19.4991 12.4519 19.3803 12.1663 19.1695 11.9555C18.9587 11.7447 18.6731 11.6259 18.375 11.625H18.1538L22.6725 7.10625C22.8559 6.92398 23.0013 6.70719 23.1004 6.4684C23.1996 6.22961 23.2504 5.97355 23.25 5.715ZM5.25 11.625H1.875C1.77563 11.6247 1.68042 11.5851 1.61015 11.5148C1.53989 11.4446 1.50029 11.3494 1.5 11.25V8.25C1.50029 8.15063 1.53989 8.05542 1.61015 7.98515C1.68042 7.91489 1.77563 7.87529 1.875 7.875H5.25V11.625ZM9.75 16.125H6V12.375H9.75V16.125ZM9.75 7.125H6V3.75C6.00029 3.65063 6.03989 3.55542 6.11015 3.48515C6.18042 3.41489 6.27563 3.37529 6.375 3.375H9.375C9.47437 3.37529 9.56958 3.41489 9.63985 3.48515C9.71011 3.55542 9.74971 3.65063 9.75 3.75V7.125ZM19.5 5.77875L20.0963 6.375L15 11.4713L14.4038 10.875L19.5 5.77875ZM13.5113 10.785L13.3013 11.625H10.5V7.875H13.875C13.9744 7.87529 14.0696 7.91489 14.1398 7.98515C14.2101 8.05542 14.2497 8.15063 14.25 8.25V9.97125L13.6088 10.6088C13.56 10.6569 13.5262 10.7181 13.5113 10.785ZM14.0775 11.61L15.39 12.9225L13.6388 13.3613L14.0775 11.61ZM18.375 12.375C18.4744 12.3753 18.5696 12.4149 18.6398 12.4852C18.7101 12.5554 18.7497 12.6506 18.75 12.75V15.75C18.7497 15.8494 18.7101 15.9446 18.6398 16.0148C18.5696 16.0851 18.4744 16.1247 18.375 16.125H15V13.7925L16.215 13.4888C16.2813 13.4723 16.3421 13.4386 16.3913 13.3912L17.4038 12.375H18.375ZM16.125 12.5963L15.5288 12L20.625 6.90375L21.2213 7.5L16.125 12.5963Z" fill="#FFB843"/>
</svg>