<svg width="24" height="24" viewBox="0 0 24 24" fill="none" xmlns="http://www.w3.org/2000/svg">
<g clip-path="url(#clip0_1_17)">
<path d="M3.5443 4.20951C3.5443 3.7796 3.06963 3.84459 2.81383 3.84471V4.56434C3.09737 4.56975 3.5443 4.63906 3.5443 4.20951ZM3.5443 5.50357C3.5443 5.07863 3.08518 5.13896 2.81383 5.14329V5.86821C3.0698 5.86821 3.5443 5.9332 3.5443 5.50357Z" fill="#FFB843"/>
<path d="M3.85988 4.85636C4.32817 5.37614 4.10158 6.43242 3.17963 6.43242C2.01155 6.43242 2.24952 6.54912 2.24952 4.85643L2.24991 3.5452C2.25841 3.15297 2.921 3.28038 3.17963 3.28038C4.10153 3.28038 4.32822 4.33663 3.85988 4.85636ZM5.41681 7.09428V2.61864H0.94133V7.09428H5.41681ZM5.9813 2.61864V7.09428H10.457V2.61864H5.9813ZM7.9369 5.86725V3.84565C7.9369 3.6899 8.06332 3.56352 8.2191 3.56352H9.32401C9.69552 3.56352 9.69552 4.12784 9.32401 4.12784H8.50123V4.57417H9.32401C9.69535 4.57417 9.69564 5.13849 9.32401 5.13849H8.50123V5.5851C9.03128 5.5851 9.60621 5.4749 9.60621 5.86725C9.60621 6.023 9.48 6.14942 9.32401 6.14942H8.2191C8.06332 6.14942 7.9369 6.023 7.9369 5.86725ZM10.4568 7.6586H5.9813V12.1341H10.4568V7.6586ZM8.47629 8.46984L9.65805 11.091C9.81074 11.4297 9.29614 11.6618 9.14349 11.323L8.86135 10.6972H7.5765C7.40607 11.0751 7.30747 11.4893 7.03706 11.4893C6.83631 11.4893 6.69554 11.2784 6.77993 11.091L7.96174 8.46984C8.06116 8.24903 8.37668 8.24892 8.47629 8.46984Z" fill="#FFB843"/>
<path d="M8.60678 10.1306L8.22582 9.26991L7.83075 10.1306H8.60678Z" fill="#FFB843"/>
<path d="M16.0611 7.6586V12.1341H19.1011L20.0617 11.1737L20.5365 10.6987L20.5366 7.6586H16.0611ZM18.792 10.1785H17.8052C17.8052 10.6476 17.9081 11.1892 17.523 11.1892C17.3673 11.1892 17.2408 11.0628 17.2408 10.907V8.88561C17.2408 8.5142 17.8052 8.5142 17.8052 8.88561V9.6142H18.792V8.88561C18.792 8.5142 19.3564 8.5142 19.3564 8.88561V10.907C19.3566 11.2713 18.792 11.2712 18.792 10.907V10.1785Z" fill="#FFB843"/>
<path d="M18.5398 12.6985H16.0566V15.1677L18.5398 12.6985Z" fill="#FFB843"/>
<path d="M20.5434 15.5204L18.8784 17.1712H20.5434V15.5204Z" fill="#FFB843"/>
<path d="M5.41681 22.2137V17.7382H0.94133V22.2137H5.41681ZM3.67252 18.9654C3.67252 18.594 4.23684 18.5941 4.23684 18.9654V20.9868C4.23684 21.3508 3.67252 21.3509 3.67252 20.9868V20.2583H2.68591C2.68591 20.7261 2.78872 21.269 2.40371 21.269C2.24796 21.269 2.12158 21.1424 2.12158 20.9868V18.9654C2.12158 18.594 2.68591 18.5941 2.68591 18.9654V19.694H3.67252V18.9654ZM9.24197 19.1554C8.50623 18.4901 7.28943 18.9942 7.28943 19.9761C7.28943 20.9582 8.50645 21.4621 9.24197 20.7968C9.51716 20.5479 9.89629 20.9664 9.62037 21.2156C9.30071 21.5044 8.88487 21.6635 8.4499 21.6635C7.49879 21.6635 6.72499 20.9065 6.72499 19.976C6.72499 18.506 8.52235 17.7449 9.62039 18.7366C9.89603 18.9855 9.51761 19.4046 9.24197 19.1554ZM5.98132 17.7384V22.2137H10.4568V17.7384H5.98132ZM11.0213 17.7384V22.2137H15.4966V19.9202L13.0647 20.9504C12.9918 20.9815 12.9304 20.9753 12.8648 20.9589C12.7081 20.9069 12.6311 20.7289 12.6944 20.5801L13.9064 17.7384H11.0213H11.0213Z" fill="#FFB843"/>
<path d="M14.0107 18.9349L14.7021 19.6404L15.9578 19.1042L14.5468 17.6792L14.0107 18.9349Z" fill="#FFB843"/>
<path d="M20.6562 11.3722L22.2647 12.9807L22.7727 12.4869L21.1501 10.8784L20.6562 11.3722Z" fill="#FFB843"/>
<path d="M20.4425 17.3621H17.9394C17.7092 17.5923 16.3379 19.0179 16.1891 19.0811C16.108 19.1158 15.926 19.1948 15.6844 19.2995V22.1198C15.6848 22.2754 15.5583 22.4019 15.4025 22.4019H0.282906C0.127146 22.4019 0.000717163 22.2754 0.000717163 22.1198V17.0798C0.000717163 16.9241 0.127147 16.7976 0.282906 16.7976H5.04069V7.28235H0.282906C0.127146 7.28235 0.000717163 7.15591 0.000717163 7.00022V1.96024C0.000717163 1.80448 0.127147 1.67805 0.282906 1.67805H10.3629C10.5186 1.67805 10.645 1.80448 10.645 1.96024V6.71803H20.4425C20.5982 6.71803 20.7246 6.84445 20.7246 7.00022V9.75827L21.4266 9.0563C21.7534 8.72956 22.285 8.72956 22.6117 9.0563L23.8325 10.2764C24.1613 10.6052 24.1613 11.1403 23.8325 11.4691C23.6325 11.6691 23.2771 12.0774 23.0182 12.2783C23.0095 12.2903 22.9998 12.3017 22.989 12.3125C22.783 12.5186 22.3961 12.9602 22.1225 13.1733L20.7248 14.5768V17.0797C20.7246 17.2358 20.5982 17.3621 20.4425 17.3621ZM2.80327 6.05616C1.63518 6.05616 1.87315 6.17287 1.87315 4.48018L1.87354 3.16895C1.88204 2.77672 2.54461 2.90413 2.80327 2.90413C3.72515 2.90413 3.95184 3.96041 3.48352 4.48011C3.95179 4.99989 3.72522 6.05616 2.80327 6.05616ZM2.43748 4.18811C2.72099 4.19349 3.16795 4.26281 3.16795 3.83326C3.16795 3.40335 2.69329 3.46836 2.43748 3.46846V4.18811ZM2.43748 5.49193C2.69345 5.49193 3.16795 5.55695 3.16795 5.12732C3.16795 4.70238 2.70883 4.76269 2.43748 4.76704V5.49193ZM8.48499 10.3209H7.20014C7.02971 10.6988 6.93111 11.113 6.6607 11.113C6.45993 11.113 6.31919 10.9021 6.40355 10.7148L7.58536 8.09357C7.6848 7.87276 8.00033 7.87267 8.09991 8.09357L9.28167 10.7148C9.43436 11.0535 8.91976 11.2855 8.76711 10.9468L8.48499 10.3209ZM7.45461 9.75662H8.23057L7.84262 8.89611L7.45461 9.75662ZM3.29616 19.882H2.30954C2.30954 20.3498 2.41236 20.8928 2.02735 20.8928C1.87159 20.8928 1.74522 20.7661 1.74522 20.6106V18.5892C1.74522 18.2177 2.30954 18.2178 2.30954 18.5892V19.3177H3.29616V18.5892C3.29616 18.2177 3.86048 18.2178 3.86048 18.5892V20.6106C3.86048 20.9746 3.29616 20.9746 3.29616 20.6106V19.882ZM8.94766 4.76219H8.12487V5.20882C8.6549 5.20882 9.22983 5.0986 9.22983 5.49095C9.22983 5.6467 9.10364 5.77314 8.94766 5.77314H7.84272C7.68696 5.77314 7.56054 5.6467 7.56054 5.49095V3.46935C7.56054 3.3136 7.68696 3.18722 7.84272 3.18722H8.94766C9.31916 3.18722 9.31916 3.75155 8.94766 3.75155H8.12487V4.19787H8.94766C9.319 4.19787 9.31928 4.76219 8.94766 4.76219ZM22.3904 12.1131L20.7791 10.5019L20.2807 11.0004L21.892 12.6115L22.3904 12.1131ZM21.1783 10.1026L22.7896 11.7137C23.0796 11.4238 23.7349 10.9762 23.4334 10.6754L22.213 9.45504C21.9374 9.17941 21.5732 9.70779 21.1783 10.1026ZM19.6853 10.7974L20.1602 10.3224L20.1602 7.28228H15.6848V11.7578H18.7248L19.6853 10.7974ZM13.7568 19.5048C13.6337 19.3849 13.5059 19.2514 13.3901 19.1289L13.1125 19.7796L13.7568 19.5048ZM13.6328 18.5597L14.3324 19.2593L15.588 18.7237L14.1683 17.3043L13.6328 18.5597ZM12.4884 20.5826C12.3317 20.5306 12.2548 20.3525 12.318 20.2037L13.53 17.362H10.645V21.8374H15.1202V19.5438L12.6883 20.5741C12.6154 20.6052 12.554 20.599 12.4884 20.5826ZM13.7707 16.7977L13.873 16.6094L15.12 15.3624V12.3221H10.645V16.7977H13.7707ZM14.4717 16.8093L16.083 18.4206L21.4926 13.0109L19.8813 11.3999L14.4717 16.8093ZM15.6848 14.7977L18.1605 12.3221H15.6848V14.7977ZM20.16 15.1414L18.5038 16.7976H20.16V15.1414ZM8.07352 21.2871C7.12243 21.2871 6.34861 20.5302 6.34861 19.5996C6.34861 18.1296 8.14596 17.3686 9.24401 18.3602C9.51965 18.6091 9.14125 19.0283 8.86562 18.7791C8.12985 18.1137 6.91305 18.6178 6.91305 19.5997C6.91305 20.5818 8.13009 21.0857 8.86562 20.4205C9.1408 20.1716 9.51993 20.59 9.24401 20.8393C8.92432 21.1281 8.50848 21.2871 8.07355 21.2871H8.07352ZM18.4157 9.80223H17.4289C17.4289 10.2713 17.5318 10.8129 17.1467 10.8129C16.9909 10.8129 16.8645 10.6865 16.8645 10.5307V8.50931C16.8645 8.13793 17.4289 8.13793 17.4289 8.50931V9.2379H18.4157V8.50931C18.4157 8.13793 18.98 8.13793 18.98 8.50931V10.5307C18.9802 10.895 18.4157 10.8949 18.4157 10.5307V9.80223ZM10.0804 21.8374V17.3621H5.60492V21.8374H10.0804ZM0.564956 21.8374H5.04043V17.3619H0.564956V21.8374ZM5.60492 16.7976H10.0806V12.3221H5.60492V16.7976ZM10.645 7.2823V11.7578H15.1202V7.2823H10.645ZM10.0804 11.7578V7.2823H5.60492V11.7578H10.0804ZM5.60492 6.71798H10.0806V2.24232H5.60492V6.71798ZM0.564958 6.71798H5.04043V2.24232H0.564958V6.71798Z" fill="#030201"/>
<path d="M10.6385 7.28049V11.7532H15.1253V7.28049H10.6385Z" fill="white"/>
<path d="M15.1253 15.3652V12.3176H10.6385V16.8044H13.7708L13.8696 16.6068L15.1253 15.3652Z" fill="white"/>
<path d="M10.0741 16.8044V12.3176H5.60144V16.8044H10.0741Z" fill="white"/>
<path d="M13.3902 19.129L13.1126 19.7798L13.7569 19.5049C13.6338 19.3851 13.5061 19.2515 13.3902 19.129Z" fill="white"/>
<path d="M14.4763 16.8044L16.0848 18.427L21.4887 13.0089L19.8802 11.4004L14.4763 16.8044Z" fill="white"/>
<path d="M21.1784 10.1027L22.7897 11.7138C23.0797 11.4239 23.7349 10.9763 23.4335 10.6755L22.2131 9.45512C21.9375 9.17948 21.5733 9.70787 21.1784 10.1027Z" fill="white"/>
</g>
<defs>
<clipPath id="clip0_1_17">
<rect width="24" height="24" fill="white"/>
</clipPath>
</defs>
</svg>
