<svg width="24" height="24" viewBox="0 0 24 24" fill="none" xmlns="http://www.w3.org/2000/svg">
<g clip-path="url(#clip0_2_207)">
<path d="M6.00007 3.71413H3.71435C3.4871 3.71438 3.26923 3.80477 3.10853 3.96546C2.94784 4.12615 2.85746 4.34402 2.85721 4.57128V6.85699C2.85746 7.08424 2.94784 7.30212 3.10853 7.46281C3.26923 7.6235 3.4871 7.71389 3.71435 7.71413H6.00007C6.22732 7.71389 6.44519 7.6235 6.60588 7.46281C6.76658 7.30212 6.85696 7.08424 6.85721 6.85699V4.57128C6.85696 4.34402 6.76658 4.12615 6.60588 3.96546C6.44519 3.80477 6.22732 3.71438 6.00007 3.71413ZM6.28578 6.85699C6.28569 6.93274 6.25556 7.00536 6.202 7.05893C6.14844 7.11249 6.07582 7.14262 6.00007 7.14271H3.71435C3.6386 7.14262 3.56598 7.11249 3.51242 7.05893C3.45885 7.00536 3.42872 6.93274 3.42864 6.85699V4.57128C3.42872 4.49553 3.45885 4.42291 3.51242 4.36934C3.56598 4.31578 3.6386 4.28565 3.71435 4.28556H6.00007C6.07582 4.28565 6.14844 4.31578 6.202 4.36934C6.25556 4.42291 6.28569 4.49553 6.28578 4.57128V6.85699ZM10.5867 3.71413H8.30099C8.07374 3.71438 7.85587 3.80477 7.69518 3.96546C7.53448 4.12615 7.4441 4.34402 7.44385 4.57128V6.85699C7.4441 7.08424 7.53448 7.30212 7.69518 7.46281C7.85587 7.6235 8.07374 7.71389 8.30099 7.71413H10.5867C10.814 7.71389 11.0318 7.6235 11.1925 7.46281C11.3532 7.30212 11.4436 7.08424 11.4439 6.85699V4.57128C11.4436 4.34402 11.3532 4.12615 11.1925 3.96546C11.0318 3.80477 10.814 3.71438 10.5867 3.71413ZM10.8724 6.85699C10.8723 6.93274 10.8422 7.00536 10.7886 7.05893C10.7351 7.11249 10.6625 7.14262 10.5867 7.14271H8.30099C8.22524 7.14262 8.15262 7.11249 8.09906 7.05893C8.0455 7.00536 8.01537 6.93274 8.01528 6.85699V4.57128C8.01537 4.49553 8.0455 4.42291 8.09906 4.36934C8.15262 4.31578 8.22524 4.28565 8.30099 4.28556H10.5867C10.6625 4.28565 10.7351 4.31578 10.7886 4.36934C10.8422 4.42291 10.8723 4.49553 10.8724 4.57128V6.85699ZM15.1581 3.71413H12.8724C12.6452 3.71438 12.4273 3.80477 12.2666 3.96546C12.1059 4.12615 12.0155 4.34402 12.0153 4.57128V6.85699C12.0155 7.08424 12.1059 7.30212 12.2666 7.46281C12.4273 7.6235 12.6452 7.71389 12.8724 7.71413H15.1581C15.3854 7.71389 15.6033 7.6235 15.764 7.46281C15.9246 7.30212 16.015 7.08424 16.0153 6.85699V4.57128C16.015 4.34402 15.9246 4.12615 15.764 3.96546C15.6033 3.80477 15.3854 3.71438 15.1581 3.71413ZM15.4439 6.85699C15.4438 6.93274 15.4136 7.00536 15.3601 7.05893C15.3065 7.11249 15.2339 7.14262 15.1581 7.14271H12.8724C12.7967 7.14262 12.724 7.11249 12.6705 7.05893C12.6169 7.00536 12.5868 6.93274 12.5867 6.85699V4.57128C12.5868 4.49553 12.6169 4.42291 12.6705 4.36934C12.724 4.31578 12.7967 4.28565 12.8724 4.28556H15.1581C15.2339 4.28565 15.3065 4.31578 15.3601 4.36934C15.4136 4.42291 15.4438 4.49553 15.4439 4.57128V6.85699ZM17.4439 7.71413H19.7296C19.9568 7.71389 20.1747 7.6235 20.3354 7.46281C20.4961 7.30212 20.5865 7.08424 20.5867 6.85699V4.57128C20.5865 4.34402 20.4961 4.12615 20.3354 3.96546C20.1747 3.80477 19.9568 3.71438 19.7296 3.71413H17.4439C17.2166 3.71438 16.9987 3.80477 16.838 3.96546C16.6773 4.12615 16.587 4.34402 16.5867 4.57128V6.85699C16.587 7.08424 16.6773 7.30212 16.838 7.46281C16.9987 7.6235 17.2166 7.71389 17.4439 7.71413ZM17.1581 4.57128C17.1582 4.49553 17.1884 4.42291 17.2419 4.36934C17.2955 4.31578 17.3681 4.28565 17.4439 4.28556H19.7296C19.8053 4.28565 19.8779 4.31578 19.9315 4.36934C19.9851 4.42291 20.0152 4.49553 20.0153 4.57128V6.85699C20.0152 6.93274 19.9851 7.00536 19.9315 7.05893C19.8779 7.11249 19.8053 7.14262 19.7296 7.14271H17.4439C17.3681 7.14262 17.2955 7.11249 17.2419 7.05893C17.1884 7.00536 17.1582 6.93274 17.1581 6.85699V4.57128ZM6.00007 8.28556H3.71435C3.4871 8.28581 3.26923 8.3762 3.10853 8.53689C2.94784 8.69758 2.85746 8.91545 2.85721 9.14271V11.4284C2.85746 11.6557 2.94784 11.8735 3.10853 12.0342C3.26923 12.1949 3.4871 12.2853 3.71435 12.2856H6.00007C6.22732 12.2853 6.44519 12.1949 6.60588 12.0342C6.76658 11.8735 6.85696 11.6557 6.85721 11.4284V9.14271C6.85696 8.91545 6.76658 8.69758 6.60588 8.53689C6.44519 8.3762 6.22732 8.28581 6.00007 8.28556ZM6.28578 11.4284C6.28569 11.5042 6.25556 11.5768 6.202 11.6304C6.14844 11.6839 6.07582 11.714 6.00007 11.7141H3.71435C3.6386 11.714 3.56598 11.6839 3.51242 11.6304C3.45885 11.5768 3.42872 11.5042 3.42864 11.4284V9.14271C3.42872 9.06696 3.45885 8.99433 3.51242 8.94077C3.56598 8.88721 3.6386 8.85708 3.71435 8.85699H6.00007C6.07582 8.85708 6.14844 8.88721 6.202 8.94077C6.25556 8.99433 6.28569 9.06696 6.28578 9.14271V11.4284ZM10.5867 8.28556H8.30099C8.07374 8.28581 7.85587 8.3762 7.69518 8.53689C7.53448 8.69758 7.4441 8.91545 7.44385 9.14271V11.4284C7.4441 11.6557 7.53448 11.8735 7.69518 12.0342C7.85587 12.1949 8.07374 12.2853 8.30099 12.2856H10.5867C10.814 12.2853 11.0318 12.1949 11.1925 12.0342C11.3532 11.8735 11.4436 11.6557 11.4439 11.4284V9.14271C11.4436 8.91545 11.3532 8.69758 11.1925 8.53689C11.0318 8.3762 10.814 8.28581 10.5867 8.28556ZM10.8724 11.4284C10.8723 11.5042 10.8422 11.5768 10.7886 11.6304C10.7351 11.6839 10.6625 11.714 10.5867 11.7141H8.30099C8.22524 11.714 8.15262 11.6839 8.09906 11.6304C8.0455 11.5768 8.01537 11.5042 8.01528 11.4284V9.14271C8.01537 9.06696 8.0455 8.99433 8.09906 8.94077C8.15262 8.88721 8.22524 8.85708 8.30099 8.85699H10.5867C10.6625 8.85708 10.7351 8.88721 10.7886 8.94077C10.8422 8.99433 10.8723 9.06696 10.8724 9.14271V11.4284ZM15.1581 8.28556H12.8724C12.6452 8.28581 12.4273 8.3762 12.2666 8.53689C12.1059 8.69758 12.0155 8.91545 12.0153 9.14271V11.4284C12.0155 11.6557 12.1059 11.8735 12.2666 12.0342C12.4273 12.1949 12.6452 12.2853 12.8724 12.2856H15.1581C15.3854 12.2853 15.6033 12.1949 15.764 12.0342C15.9246 11.8735 16.015 11.6557 16.0153 11.4284V9.14271C16.015 8.91545 15.9246 8.69758 15.764 8.53689C15.6033 8.3762 15.3854 8.28581 15.1581 8.28556ZM15.4439 11.4284C15.4438 11.5042 15.4136 11.5768 15.3601 11.6304C15.3065 11.6839 15.2339 11.714 15.1581 11.7141H12.8724C12.7967 11.714 12.724 11.6839 12.6705 11.6304C12.6169 11.5768 12.5868 11.5042 12.5867 11.4284V9.14271C12.5868 9.06696 12.6169 8.99433 12.6705 8.94077C12.724 8.88721 12.7967 8.85708 12.8724 8.85699H15.1581C15.2339 8.85708 15.3065 8.88721 15.3601 8.94077C15.4136 8.99433 15.4438 9.06696 15.4439 9.14271V11.4284ZM17.4439 12.2856H19.7296C19.9568 12.2853 20.1747 12.1949 20.3354 12.0342C20.4961 11.8735 20.5865 11.6557 20.5867 11.4284V9.14271C20.5865 8.91545 20.4961 8.69758 20.3354 8.53689C20.1747 8.3762 19.9568 8.28581 19.7296 8.28556H17.4439C17.2166 8.28581 16.9987 8.3762 16.838 8.53689C16.6773 8.69758 16.587 8.91545 16.5867 9.14271V11.4284C16.587 11.6557 16.6773 11.8735 16.838 12.0342C16.9987 12.1949 17.2166 12.2853 17.4439 12.2856ZM17.1581 9.14271C17.1582 9.06696 17.1884 8.99433 17.2419 8.94077C17.2955 8.88721 17.3681 8.85708 17.4439 8.85699H19.7296C19.8053 8.85708 19.8779 8.88721 19.9315 8.94077C19.9851 8.99433 20.0152 9.06696 20.0153 9.14271V11.4284C20.0152 11.5042 19.9851 11.5768 19.9315 11.6304C19.8779 11.6839 19.8053 11.714 19.7296 11.7141H17.4439C17.3681 11.714 17.2955 11.6839 17.2419 11.6304C17.1884 11.5768 17.1582 11.5042 17.1581 11.4284V9.14271ZM10.5867 12.857H8.30099C8.07374 12.8572 7.85587 12.9476 7.69518 13.1083C7.53448 13.269 7.4441 13.4869 7.44385 13.7141V15.9998C7.4441 16.2271 7.53448 16.445 7.69518 16.6057C7.85587 16.7664 8.07374 16.8567 8.30099 16.857H10.5867C10.814 16.8567 11.0318 16.7664 11.1925 16.6057C11.3532 16.445 11.4436 16.2271 11.4439 15.9998V13.7141C11.4436 13.4869 11.3532 13.269 11.1925 13.1083C11.0318 12.9476 10.814 12.8572 10.5867 12.857ZM10.8724 15.9998C10.8723 16.0756 10.8422 16.1482 10.7886 16.2018C10.7351 16.2553 10.6625 16.2855 10.5867 16.2856H8.30099C8.22524 16.2855 8.15262 16.2553 8.09906 16.2018C8.0455 16.1482 8.01537 16.0756 8.01528 15.9998V13.7141C8.01537 13.6384 8.0455 13.5658 8.09906 13.5122C8.15262 13.4586 8.22524 13.4285 8.30099 13.4284H10.5867C10.6625 13.4285 10.7351 13.4586 10.7886 13.5122C10.8422 13.5658 10.8723 13.6384 10.8724 13.7141V15.9998Z" fill="#FFB843"/>
<path d="M4.87243 4.59513C4.64518 4.59538 4.42731 4.68577 4.26661 4.84646C4.10592 5.00715 4.01554 5.22502 4.01529 5.45228V6.45228C4.01529 6.52805 4.04539 6.60072 4.09897 6.65431C4.15255 6.70789 4.22523 6.73799 4.301 6.73799C4.37678 6.73799 4.44945 6.70789 4.50303 6.65431C4.55662 6.60072 4.58672 6.52805 4.58672 6.45228V6.23799H5.15815V6.45228C5.15815 6.52805 5.18825 6.60072 5.24183 6.65431C5.29541 6.70789 5.36808 6.73799 5.44386 6.73799C5.51964 6.73799 5.59231 6.70789 5.64589 6.65431C5.69947 6.60072 5.72957 6.52805 5.72957 6.45228V5.45228C5.72933 5.22502 5.63894 5.00715 5.47825 4.84646C5.31756 4.68577 5.09968 4.59538 4.87243 4.59513ZM5.15815 5.66656H4.58672V5.45228C4.58672 5.3765 4.61682 5.30383 4.6704 5.25024C4.72398 5.19666 4.79666 5.16656 4.87243 5.16656C4.94821 5.16656 5.02088 5.19666 5.07446 5.25024C5.12804 5.30383 5.15815 5.3765 5.15815 5.45228V5.66656ZM14.2296 5.28556H14.5153C14.5911 5.28556 14.6637 5.25546 14.7173 5.20188C14.7709 5.1483 14.801 5.07562 14.801 4.99985C14.801 4.92407 14.7709 4.8514 14.7173 4.79782C14.6637 4.74424 14.5911 4.71413 14.5153 4.71413H14.2296C13.9644 4.71413 13.71 4.81949 13.5225 5.00703C13.3349 5.19456 13.2296 5.44892 13.2296 5.71413C13.2296 5.97935 13.3349 6.2337 13.5225 6.42124C13.71 6.60878 13.9644 6.71413 14.2296 6.71413H14.5153C14.5911 6.71413 14.6637 6.68403 14.7173 6.63045C14.7709 6.57687 14.801 6.5042 14.801 6.42842C14.801 6.35264 14.7709 6.27997 14.7173 6.22639C14.6637 6.17281 14.5911 6.1427 14.5153 6.1427H14.2296C14.1159 6.1427 14.0069 6.09755 13.9265 6.01718C13.8462 5.93681 13.801 5.8278 13.801 5.71413C13.801 5.60047 13.8462 5.49146 13.9265 5.41109C14.0069 5.33072 14.1159 5.28556 14.2296 5.28556ZM14.6581 10.0148H14.217C14.1412 10.0148 14.0686 10.0449 14.015 10.0985C13.9614 10.152 13.9313 10.2247 13.9313 10.3005C13.9313 10.3763 13.9614 10.4489 14.015 10.5025C14.0686 10.5561 14.1412 10.5862 14.217 10.5862H14.3724V10.857H14.0867C13.9731 10.8569 13.8642 10.8117 13.7838 10.7313C13.7035 10.651 13.6583 10.542 13.6581 10.4284V10.1427C13.6583 10.0291 13.7035 9.92014 13.7838 9.8398C13.8642 9.75945 13.9731 9.71426 14.0867 9.71413H14.5153C14.5911 9.71413 14.6637 9.68403 14.7173 9.63045C14.7709 9.57687 14.801 9.5042 14.801 9.42842C14.801 9.35264 14.7709 9.27997 14.7173 9.22639C14.6637 9.17281 14.5911 9.1427 14.5153 9.1427H14.0867C13.8216 9.14301 13.5674 9.24847 13.38 9.43594C13.1925 9.62341 13.087 9.87758 13.0867 10.1427V10.4284C13.087 10.6935 13.1925 10.9477 13.38 11.1352C13.5674 11.3227 13.8216 11.4281 14.0867 11.4284H14.3724C14.5239 11.4283 14.6692 11.368 14.7763 11.2609C14.8834 11.1537 14.9437 11.0085 14.9439 10.857V10.3005C14.9439 10.2247 14.9138 10.152 14.8602 10.0985C14.8066 10.0449 14.7339 10.0148 14.6581 10.0148ZM18.0153 6.71413H18.4439C18.7091 6.71413 18.9634 6.60878 19.151 6.42124C19.3385 6.2337 19.4439 5.97935 19.4439 5.71413C19.4439 5.44892 19.3385 5.19456 19.151 5.00703C18.9634 4.81949 18.7091 4.71413 18.4439 4.71413H18.0153C17.9395 4.71414 17.8668 4.74424 17.8133 4.79782C17.7597 4.8514 17.7296 4.92407 17.7296 4.99985V6.42842C17.7296 6.50419 17.7597 6.57686 17.8133 6.63045C17.8668 6.68403 17.9395 6.71413 18.0153 6.71413ZM18.301 5.28556H18.4439C18.5575 5.28556 18.6665 5.33072 18.7469 5.41109C18.8273 5.49146 18.8724 5.60047 18.8724 5.71413C18.8724 5.8278 18.8273 5.93681 18.7469 6.01718C18.6665 6.09755 18.5575 6.1427 18.4439 6.1427H18.301V5.28556ZM5.22957 9.71413C5.30535 9.71413 5.37802 9.68403 5.43161 9.63045C5.48519 9.57687 5.51529 9.5042 5.51529 9.42842C5.51529 9.35264 5.48519 9.27997 5.43161 9.22639C5.37802 9.17281 5.30535 9.1427 5.22957 9.1427C5.22957 9.1427 4.52315 9.14325 4.52115 9.1433C4.51915 9.14325 4.51729 9.1427 4.51529 9.1427C4.43951 9.14271 4.36684 9.17281 4.31326 9.22639C4.25968 9.27997 4.22958 9.35264 4.22958 9.42842V11.1427C4.22958 11.2185 4.25968 11.2912 4.31326 11.3447C4.36684 11.3983 4.43951 11.4284 4.51529 11.4284C4.51729 11.4284 4.51915 11.4279 4.52115 11.4278C4.52315 11.4279 4.525 11.4284 4.527 11.4284H5.22957C5.30535 11.4284 5.37802 11.3983 5.43161 11.3447C5.48519 11.2912 5.51529 11.2185 5.51529 11.1427C5.51529 11.0669 5.48519 10.9943 5.43161 10.9407C5.37802 10.8871 5.30535 10.857 5.22957 10.857H4.801V10.5713H5.22957C5.30535 10.5713 5.37802 10.5412 5.43161 10.4876C5.48519 10.434 5.51529 10.3613 5.51529 10.2856C5.51529 10.2098 5.48519 10.1371 5.43161 10.0835C5.37802 10.0299 5.30535 9.99985 5.22957 9.99985H4.801V9.71413H5.22957ZM18.0153 11.4284C18.0911 11.4284 18.1637 11.3983 18.2173 11.3447C18.2709 11.2912 18.301 11.2185 18.301 11.1427V10.5713H18.8724V11.1427C18.8724 11.2185 18.9025 11.2912 18.9561 11.3447C19.0097 11.3983 19.0824 11.4284 19.1581 11.4284C19.2339 11.4284 19.3066 11.3983 19.3602 11.3447C19.4138 11.2912 19.4439 11.2185 19.4439 11.1427V9.42842C19.4439 9.35264 19.4138 9.27997 19.3602 9.22639C19.3066 9.17281 19.2339 9.1427 19.1581 9.1427C19.0824 9.1427 19.0097 9.17281 18.9561 9.22639C18.9025 9.27997 18.8724 9.35264 18.8724 9.42842V9.99985H18.301V9.42842C18.301 9.35264 18.2709 9.27997 18.2173 9.22639C18.1637 9.17281 18.0911 9.1427 18.0153 9.1427C17.9395 9.1427 17.8668 9.17281 17.8133 9.22639C17.7597 9.27997 17.7296 9.35264 17.7296 9.42842V11.1427C17.7296 11.2185 17.7597 11.2912 17.8133 11.3447C17.8668 11.3983 17.9395 11.4284 18.0153 11.4284ZM9.807 9.1427C9.807 9.1427 9.08878 9.14326 9.08675 9.14331C9.08471 9.14326 9.08282 9.1427 9.08078 9.1427C9.00501 9.14271 8.93234 9.17281 8.87876 9.22639C8.82517 9.27997 8.79507 9.35264 8.79507 9.42842V11.1427C8.79507 11.2185 8.82517 11.2912 8.87875 11.3447C8.93233 11.3983 9.00501 11.4284 9.08078 11.4284C9.15656 11.4284 9.22923 11.3983 9.28281 11.3447C9.33639 11.2912 9.3665 11.2185 9.3665 11.1427V10.5713H9.66414C9.73991 10.5713 9.81259 10.5412 9.86617 10.4876C9.91975 10.434 9.94985 10.3613 9.94985 10.2856C9.94985 10.2098 9.91975 10.1371 9.86617 10.0835C9.81259 10.0299 9.73991 9.99985 9.66414 9.99985H9.3665V9.71413H9.807C9.88277 9.71413 9.95544 9.68403 10.009 9.63045C10.0626 9.57687 10.0927 9.5042 10.0927 9.42842C10.0927 9.35264 10.0626 9.27997 10.009 9.22639C9.95544 9.17281 9.88277 9.1427 9.807 9.1427ZM9.44386 13.857C9.36809 13.857 9.29542 13.8871 9.24183 13.9407C9.18825 13.9943 9.15815 14.0669 9.15815 14.1427V15.5713C9.15815 15.6471 9.18825 15.7197 9.24183 15.7733C9.29541 15.8269 9.36808 15.857 9.44386 15.857C9.51964 15.857 9.59231 15.8269 9.64589 15.7733C9.69947 15.7197 9.72957 15.6471 9.72957 15.5713V14.1427C9.72957 14.0669 9.69947 13.9943 9.64589 13.9407C9.59231 13.8871 9.51964 13.857 9.44386 13.857ZM9.90388 18.3748C9.82811 18.3749 9.75544 18.405 9.70186 18.4585C9.64828 18.5121 9.61817 18.5848 9.61817 18.6606V19.7363C9.61785 19.7823 9.59934 19.8263 9.56669 19.8588C9.53405 19.8912 9.4899 19.9094 9.44389 19.9094C9.39788 19.9094 9.35373 19.8912 9.32108 19.8588C9.28843 19.8263 9.26993 19.7823 9.26961 19.7363V19.6963C9.26961 19.6205 9.23951 19.5478 9.18592 19.4942C9.13234 19.4407 9.05967 19.4106 8.98389 19.4106C8.90812 19.4106 8.83544 19.4407 8.78186 19.4942C8.72828 19.5478 8.69818 19.6205 8.69818 19.6963V19.7363C8.69885 19.9337 8.77771 20.1227 8.91748 20.262C9.05726 20.4013 9.24655 20.4795 9.44389 20.4795C9.64123 20.4795 9.83052 20.4013 9.97029 20.262C10.1101 20.1227 10.1889 19.9337 10.1896 19.7363V18.6606C10.1896 18.5848 10.1595 18.5121 10.1059 18.4585C10.0523 18.405 9.97966 18.3749 9.90388 18.3748ZM19.6337 19.2861L18.9884 19.0575L19.2722 18.4344C19.2879 18.4003 19.2966 18.3633 19.298 18.3258C19.2994 18.2882 19.2933 18.2508 19.2802 18.2155C19.2671 18.1803 19.2471 18.148 19.2215 18.1205C19.1959 18.093 19.1651 18.0709 19.1309 18.0553C19.0967 18.0397 19.0597 18.031 19.0222 18.0297C18.9846 18.0285 18.9472 18.0346 18.912 18.0478C18.8768 18.061 18.8446 18.0811 18.8171 18.1068C18.7897 18.1324 18.7676 18.1633 18.7521 18.1975L18.5293 18.6867L18.4391 18.4743C18.4245 18.4398 18.4031 18.4085 18.3764 18.3822C18.3496 18.3559 18.318 18.3351 18.2832 18.3211C18.2484 18.307 18.2112 18.2999 18.1737 18.3003C18.1361 18.3006 18.0991 18.3083 18.0645 18.323C18.03 18.3376 17.9987 18.3589 17.9724 18.3857C17.9461 18.4124 17.9253 18.4441 17.9113 18.4789C17.8972 18.5137 17.8901 18.5509 17.8905 18.5884C17.8908 18.6259 17.8985 18.663 17.9132 18.6975C17.9132 18.6975 18.5 20.0799 18.5005 20.081C18.5315 20.1496 18.5878 20.2035 18.6575 20.2317C18.7273 20.2599 18.8052 20.2602 18.8751 20.2324C18.9097 20.2178 18.941 20.1964 18.9673 20.1697C18.9936 20.1429 19.0143 20.1112 19.0284 20.0765C19.0424 20.0417 19.0495 20.0045 19.0492 19.9669C19.0488 19.9294 19.0411 19.8924 19.0264 19.8578L18.9361 19.6451L19.4429 19.8246C19.5143 19.849 19.5925 19.8445 19.6607 19.812C19.7288 19.7795 19.7816 19.7217 19.8076 19.6508C19.8202 19.6154 19.8256 19.5779 19.8236 19.5405C19.8217 19.503 19.8124 19.4663 19.7962 19.4324C19.7801 19.3986 19.7574 19.3682 19.7295 19.3431C19.7016 19.318 19.6691 19.2986 19.6337 19.2861ZM10.301 5.33062C10.2918 5.12086 10.2 4.92325 10.0456 4.78097C9.89124 4.63869 9.6868 4.5633 9.47699 4.57128H9.01529C8.90166 4.5714 8.79273 4.61659 8.71238 4.69694C8.63203 4.77728 8.58684 4.88622 8.58672 4.99985V6.42842C8.58684 6.54205 8.63203 6.65098 8.71238 6.73133C8.79273 6.81167 8.90166 6.85687 9.01529 6.85699H9.47699C9.68679 6.865 9.89122 6.78964 10.0456 6.64738C10.2 6.50512 10.2918 6.30753 10.301 6.09778C10.2997 5.99055 10.269 5.88573 10.2122 5.79478C10.196 5.77113 10.1873 5.74317 10.1871 5.71451C10.1869 5.68584 10.1953 5.65778 10.2112 5.63393C10.2665 5.54211 10.2974 5.43772 10.301 5.33062ZM9.47699 6.28556H9.15815V5.1427H9.47699C9.53342 5.13706 9.58999 5.15195 9.63632 5.18465C9.68265 5.21735 9.71563 5.26566 9.72922 5.32071C9.72441 5.33215 9.68383 5.41009 9.67355 5.43202C9.6046 5.44039 9.5411 5.47373 9.49505 5.52572C9.449 5.57772 9.42359 5.64479 9.42362 5.71425C9.42365 5.7837 9.44912 5.85075 9.49521 5.90271C9.5413 5.95467 9.60483 5.98795 9.67379 5.99626C9.6865 6.02342 9.72685 6.0954 9.72957 6.09778C9.72957 6.19962 9.61392 6.28556 9.47699 6.28556Z" fill="#14213D"/>
<path d="M9.75781 1.42857C9.84258 1.42857 9.92544 1.40343 9.99591 1.35634C10.0664 1.30925 10.1213 1.24232 10.1538 1.16401C10.1862 1.08569 10.1947 0.999523 10.1781 0.916388C10.1616 0.833253 10.1208 0.756889 10.0609 0.696952C10.0009 0.637015 9.92456 0.596198 9.84142 0.579661C9.75829 0.563125 9.67212 0.571612 9.59381 0.60405C9.51549 0.636487 9.44856 0.691418 9.40147 0.761896C9.35438 0.832375 9.32924 0.915235 9.32924 0.999998C9.32937 1.11362 9.37457 1.22256 9.45491 1.3029C9.53525 1.38324 9.64419 1.42844 9.75781 1.42857ZM9.75781 0.785712C9.80019 0.785712 9.84163 0.79828 9.87686 0.821826C9.9121 0.845372 9.93957 0.878839 9.95579 0.917994C9.97201 0.95715 9.97625 1.00024 9.96798 1.0418C9.95971 1.08337 9.9393 1.12155 9.90934 1.15152C9.87937 1.18149 9.84119 1.2019 9.79962 1.21017C9.75805 1.21843 9.71496 1.21419 9.67581 1.19797C9.63665 1.18175 9.60319 1.15429 9.57964 1.11905C9.55609 1.08381 9.54353 1.04238 9.54353 0.999998C9.54358 0.943183 9.56618 0.888711 9.60635 0.848537C9.64653 0.808363 9.701 0.785768 9.75781 0.785712ZM22.615 10.1429C22.5584 10.1429 22.5032 10.1596 22.4562 10.191C22.4092 10.2224 22.3726 10.267 22.351 10.3192C22.3294 10.3714 22.3237 10.4289 22.3347 10.4843C22.3458 10.5397 22.373 10.5906 22.4129 10.6306C22.4529 10.6706 22.5038 10.6978 22.5592 10.7088C22.6146 10.7198 22.6721 10.7142 22.7243 10.6925C22.7765 10.6709 22.8211 10.6343 22.8525 10.5873C22.8839 10.5403 22.9007 10.4851 22.9007 10.4286C22.9006 10.3528 22.8705 10.2802 22.8169 10.2266C22.7633 10.1731 22.6907 10.1429 22.615 10.1429ZM22.615 10.5714C22.5867 10.5714 22.5591 10.563 22.5356 10.5474C22.5121 10.5317 22.4938 10.5093 22.483 10.4832C22.4722 10.4571 22.4693 10.4284 22.4748 10.4007C22.4804 10.373 22.494 10.3475 22.5139 10.3276C22.5339 10.3076 22.5594 10.294 22.5871 10.2885C22.6148 10.2829 22.6435 10.2858 22.6696 10.2966C22.6957 10.3074 22.718 10.3257 22.7337 10.3492C22.7494 10.3727 22.7578 10.4003 22.7578 10.4286C22.7578 10.4664 22.7427 10.5028 22.7159 10.5295C22.6891 10.5563 22.6528 10.5714 22.615 10.5714ZM14.1864 2.35707C14.1299 2.35707 14.0746 2.37382 14.0277 2.40522C13.9807 2.43661 13.944 2.48123 13.9224 2.53344C13.9008 2.58565 13.8951 2.6431 13.9062 2.69852C13.9172 2.75394 13.9444 2.80485 13.9844 2.84481C14.0243 2.88477 14.0752 2.91198 14.1306 2.923C14.1861 2.93403 14.2435 2.92837 14.2957 2.90675C14.3479 2.88512 14.3926 2.8485 14.4239 2.80151C14.4553 2.75453 14.4721 2.69929 14.4721 2.64278C14.472 2.56703 14.4419 2.49441 14.3883 2.44084C14.3348 2.38728 14.2621 2.35715 14.1864 2.35707ZM14.1864 2.78564C14.1581 2.78564 14.1305 2.77726 14.107 2.76156C14.0835 2.74586 14.0652 2.72355 14.0544 2.69745C14.0436 2.67134 14.0408 2.64262 14.0463 2.61491C14.0518 2.5872 14.0654 2.56174 14.0854 2.54176C14.1053 2.52179 14.1308 2.50818 14.1585 2.50267C14.1862 2.49716 14.2149 2.49998 14.2411 2.5108C14.2672 2.52161 14.2895 2.53992 14.3052 2.56341C14.3209 2.5869 14.3292 2.61452 14.3292 2.64278C14.3292 2.68066 14.3141 2.71697 14.2874 2.74375C14.2606 2.77054 14.2243 2.7856 14.1864 2.78564ZM23.1864 2.86804C23.1299 2.86804 23.0746 2.8848 23.0276 2.91619C22.9807 2.94758 22.944 2.99221 22.9224 3.04441C22.9008 3.09662 22.8951 3.15407 22.9062 3.20949C22.9172 3.26492 22.9444 3.31583 22.9844 3.35578C23.0243 3.39574 23.0752 3.42295 23.1306 3.43398C23.1861 3.445 23.2435 3.43934 23.2957 3.41772C23.3479 3.39609 23.3926 3.35947 23.4239 3.31249C23.4553 3.2655 23.4721 3.21026 23.4721 3.15375C23.472 3.078 23.4419 3.00538 23.3883 2.95182C23.3348 2.89825 23.2621 2.86812 23.1864 2.86804ZM23.1864 3.29661C23.1581 3.29661 23.1305 3.28823 23.107 3.27253C23.0835 3.25684 23.0652 3.23453 23.0544 3.20842C23.0436 3.18232 23.0408 3.15359 23.0463 3.12588C23.0518 3.09817 23.0654 3.07272 23.0854 3.05274C23.1053 3.03276 23.1308 3.01915 23.1585 3.01364C23.1862 3.00813 23.2149 3.01096 23.2411 3.02177C23.2672 3.03258 23.2895 3.05089 23.3052 3.07439C23.3209 3.09788 23.3292 3.1255 23.3292 3.15375C23.3292 3.19163 23.3141 3.22794 23.2874 3.25473C23.2606 3.28151 23.2243 3.29657 23.1864 3.29661ZM0.986956 1.48124C0.986956 1.42473 0.970199 1.36949 0.938804 1.32251C0.90741 1.27552 0.862787 1.2389 0.81058 1.21728C0.758372 1.19565 0.700925 1.18999 0.645502 1.20102C0.590079 1.21204 0.539169 1.23925 0.499211 1.27921C0.459253 1.31917 0.432042 1.37008 0.421017 1.4255C0.409993 1.48093 0.415651 1.53837 0.437276 1.59058C0.458901 1.64279 0.495522 1.68741 0.542507 1.71881C0.589493 1.7502 0.644733 1.76696 0.701242 1.76696C0.776991 1.76687 0.849614 1.73674 0.903177 1.68318C0.95674 1.62961 0.986869 1.55699 0.986956 1.48124ZM0.558385 1.48124C0.558385 1.45299 0.566763 1.42537 0.58246 1.40188C0.598158 1.37838 0.620469 1.36007 0.646573 1.34926C0.672676 1.33845 0.7014 1.33562 0.729112 1.34113C0.756823 1.34664 0.782278 1.36025 0.802257 1.38023C0.822236 1.40021 0.835842 1.42566 0.841354 1.45337C0.846866 1.48108 0.844037 1.50981 0.833225 1.53591C0.822412 1.56202 0.804102 1.58433 0.780609 1.60002C0.757116 1.61572 0.729496 1.6241 0.701242 1.6241C0.663365 1.62406 0.627051 1.609 0.600268 1.58222C0.573486 1.55543 0.558422 1.51912 0.558385 1.48124Z" fill="#FFB843"/>
<path d="M1.15872 6.70214L1.371 6.42285L1.23686 6.34686L1.10058 6.65971H1.096L0.957576 6.349L0.821004 6.42728L1.03129 6.7V6.70443L0.702576 6.662V6.814L1.03343 6.77157V6.776L0.821004 7.04857L0.948433 7.12914L1.09386 6.814H1.09829L1.23243 7.12685L1.37329 7.04643L1.15872 6.77814V6.77371L1.49615 6.814V6.662L1.15872 6.70657V6.70214Z" fill="#14213D"/>
<path d="M5.62257 2.66471L5.50029 2.82171L5.57372 2.868L5.65743 2.68657H5.65986L5.73714 2.86671L5.81829 2.82043L5.69472 2.66586V2.66329L5.889 2.68657V2.599L5.69472 2.62471V2.62214L5.817 2.46129L5.73986 2.41757L5.66129 2.59771H5.65872L5.57886 2.41886L5.50029 2.46386L5.62143 2.62086V2.62343L5.43214 2.599V2.68657L5.62257 2.66214V2.66471Z" fill="#14213D"/>
<path d="M22.1864 7.10186V6.95286L21.8554 6.99672V6.99229L22.0637 6.71829L21.9321 6.64371L21.7984 6.95057H21.794L21.6581 6.64586L21.5243 6.72271L21.7304 6.99014V6.99457L21.408 6.95286V7.10186L21.7326 7.06029V7.06471L21.5243 7.33214L21.6493 7.41114L21.7919 7.10186H21.7961L21.9277 7.40886L22.0659 7.33L21.8554 7.06686V7.06243L22.1864 7.10186Z" fill="#14213D"/>
<path d="M18.6869 1.08643L18.8666 0.849999L18.7531 0.785713L18.6377 1.05043H18.6339L18.5167 0.78757L18.4013 0.853713L18.5791 1.08457V1.08828L18.301 1.05228V1.181L18.581 1.145V1.14886L18.4013 1.37943L18.509 1.44757L18.632 1.181H18.6357L18.7493 1.44571L18.8684 1.37757L18.6869 1.15071V1.14686L18.9724 1.181V1.05228L18.6869 1.09014V1.08643Z" fill="#14213D"/>
<path d="M0.285714 21.4286C0.44351 21.4286 0.571429 21.3007 0.571429 21.1429C0.571429 20.9851 0.44351 20.8571 0.285714 20.8571C0.127919 20.8571 0 20.9851 0 21.1429C0 21.3007 0.127919 21.4286 0.285714 21.4286Z" fill="#FFB843"/>
<path d="M1.57143 20.8571H1.14286C1.06709 20.8571 0.994413 20.8872 0.940831 20.9408C0.887249 20.9944 0.857147 21.0671 0.857147 21.1429C0.857147 21.2186 0.887249 21.2913 0.940831 21.3449C0.994413 21.3985 1.06709 21.4286 1.14286 21.4286H1.57143C1.64721 21.4286 1.71988 21.3985 1.77346 21.3449C1.82705 21.2913 1.85715 21.2186 1.85715 21.1429C1.85715 21.0671 1.82705 20.9944 1.77346 20.9408C1.71988 20.8872 1.64721 20.8571 1.57143 20.8571ZM22.8571 20.8571H22.4286C22.3528 20.8571 22.2801 20.8872 22.2265 20.9408C22.173 20.9944 22.1429 21.0671 22.1429 21.1429C22.1429 21.2186 22.173 21.2913 22.2265 21.3449C22.2801 21.3985 22.3528 21.4286 22.4286 21.4286H22.8571C22.9329 21.4286 23.0056 21.3985 23.0592 21.3449C23.1128 21.2913 23.1429 21.2186 23.1429 21.1429C23.1429 21.0671 23.1128 20.9944 23.0592 20.9408C23.0056 20.8872 22.9329 20.8571 22.8571 20.8571Z" fill="#FFB843"/>
<path d="M23.7143 21.4286C23.8721 21.4286 24 21.3007 24 21.1429C24 20.9851 23.8721 20.8571 23.7143 20.8571C23.5565 20.8571 23.4286 20.9851 23.4286 21.1429C23.4286 21.3007 23.5565 21.4286 23.7143 21.4286Z" fill="#FFB843"/>
<path d="M16.8791 22H15.6923C15.6205 22.0058 15.5534 22.0384 15.5046 22.0913C15.4557 22.1442 15.4286 22.2137 15.4286 22.2857C15.4286 22.3578 15.4557 22.4272 15.5046 22.4801C15.5534 22.5331 15.6205 22.5657 15.6923 22.5714H16.8791C16.9509 22.5657 17.018 22.5331 17.0668 22.4801C17.1157 22.4272 17.1429 22.3578 17.1429 22.2857C17.1429 22.2137 17.1157 22.1442 17.0668 22.0913C17.018 22.0384 16.9509 22.0058 16.8791 22ZM8.30769 22H7.12087C7.04904 22.0058 6.98202 22.0384 6.93315 22.0913C6.88427 22.1442 6.85713 22.2137 6.85713 22.2857C6.85713 22.3578 6.88427 22.4272 6.93315 22.4801C6.98202 22.5331 7.04904 22.5657 7.12087 22.5714H8.30769C8.37951 22.5657 8.44654 22.5331 8.49541 22.4801C8.54429 22.4272 8.57143 22.3578 8.57143 22.2857C8.57143 22.2137 8.54429 22.1442 8.49541 22.0913C8.44654 22.0384 8.37951 22.0058 8.30769 22ZM14.8571 22H9.14285C9.06707 22 8.9944 22.0301 8.94082 22.0837C8.88724 22.1373 8.85714 22.2099 8.85714 22.2857C8.85714 22.3615 8.88724 22.4342 8.94082 22.4877C8.9944 22.5413 9.06707 22.5714 9.14285 22.5714H11.42V22.8571H10.2857C10.2099 22.8571 10.1373 22.8872 10.0837 22.9408C10.0301 22.9944 9.99999 23.0671 9.99999 23.1429C9.99999 23.2186 10.0301 23.2913 10.0837 23.3449C10.1373 23.3985 10.2099 23.4286 10.2857 23.4286H13.8571C13.9329 23.4286 14.0056 23.3985 14.0592 23.3449C14.1127 23.2913 14.1428 23.2186 14.1428 23.1429C14.1428 23.0671 14.1127 22.9944 14.0592 22.9408C14.0056 22.8872 13.9329 22.8571 13.8571 22.8571H12.58V22.5714H14.8571C14.9329 22.5714 15.0056 22.5413 15.0592 22.4877C15.1127 22.4342 15.1428 22.3615 15.1428 22.2857C15.1428 22.2099 15.1127 22.1373 15.0592 22.0837C15.0056 22.0301 14.9329 22 14.8571 22Z" fill="#14213D"/>
<path d="M21.5316 20.8571H19.7573L20.6496 20.4572C20.8514 20.3663 21.009 20.1992 21.0878 19.9924C21.1665 19.7856 21.1601 19.556 21.0698 19.3539L20.1716 17.3503C20.0808 17.1485 19.9137 16.991 19.7069 16.9122C19.5002 16.8335 19.2706 16.8399 19.0686 16.9301L17.0648 17.8283C16.863 17.9191 16.7055 18.0862 16.6267 18.293C16.5479 18.4998 16.5544 18.7294 16.6446 18.9315C16.6446 18.9315 17.3429 20.4892 17.5079 20.8571H11.3938C11.4267 20.7654 11.4437 20.6687 11.4439 20.5713V18.2856C11.4436 18.0583 11.3532 17.8404 11.1925 17.6798C11.0318 17.5191 10.814 17.4287 10.5867 17.4284H8.301C8.07375 17.4287 7.85588 17.5191 7.69519 17.6798C7.53449 17.8404 7.44411 18.0583 7.44386 18.2856V20.5713C7.44407 20.6687 7.461 20.7654 7.49392 20.8571H2.46839C2.42774 20.8518 2.38643 20.8553 2.34721 20.8672C2.30799 20.8791 2.27177 20.8993 2.24097 20.9263C2.21016 20.9534 2.18548 20.9867 2.16857 21.024C2.15166 21.0613 2.14291 21.1019 2.14291 21.1429C2.14291 21.1838 2.15166 21.2244 2.16857 21.2617C2.18548 21.2991 2.21016 21.3324 2.24097 21.3594C2.27177 21.3864 2.30799 21.4066 2.34721 21.4185C2.38643 21.4305 2.42774 21.4339 2.46839 21.4286H21.5316C21.5723 21.4339 21.6136 21.4305 21.6528 21.4185C21.692 21.4066 21.7282 21.3864 21.759 21.3594C21.7899 21.3324 21.8145 21.2991 21.8314 21.2617C21.8484 21.2244 21.8571 21.1838 21.8571 21.1429C21.8571 21.1019 21.8484 21.0613 21.8314 21.024C21.8145 20.9867 21.7899 20.9534 21.759 20.9263C21.7282 20.8993 21.692 20.8791 21.6528 20.8672C21.6136 20.8553 21.5723 20.8518 21.5316 20.8571ZM17.2986 18.3497L19.3023 17.4516C19.3662 17.4243 19.4381 17.4229 19.503 17.4476C19.5679 17.4723 19.6206 17.5213 19.6501 17.5841L20.5483 19.5876C20.5768 19.6513 20.5789 19.7238 20.5541 19.789C20.5292 19.8543 20.4795 19.907 20.4159 19.9357L18.4121 20.8338C18.3484 20.8623 18.276 20.8643 18.2108 20.8395C18.1456 20.8146 18.0929 20.7649 18.0643 20.7013L17.1661 18.6978C17.1376 18.6341 17.1356 18.5616 17.1604 18.4964C17.1852 18.4311 17.2349 18.3784 17.2986 18.3497ZM10.8724 20.5713C10.8723 20.647 10.8422 20.7196 10.7887 20.7732C10.7351 20.8268 10.6625 20.8569 10.5867 20.857H8.301C8.22525 20.8569 8.15263 20.8268 8.09907 20.7732C8.04551 20.7196 8.01538 20.647 8.01529 20.5713V18.2856C8.01538 18.2098 8.04551 18.1372 8.09907 18.0836C8.15263 18.0301 8.22525 17.9999 8.301 17.9998H10.5867C10.6625 17.9999 10.7351 18.0301 10.7887 18.0836C10.8422 18.1372 10.8723 18.2098 10.8724 18.2856V20.5713Z" fill="#FFB843"/>
</g>
<defs>
<clipPath id="clip0_2_207">
<rect width="24" height="24" fill="white"/>
</clipPath>
</defs>
</svg>
