<svg width="24" height="24" viewBox="0 0 24 24" fill="none" xmlns="http://www.w3.org/2000/svg">
<path d="M12.9102 21.7684H19.7446V15.2757H12.9102V21.7684Z" fill="#FFB843"/>
<path d="M20.0865 22.0933H12.5685V14.9511H20.0862V22.0933H20.0865ZM13.2518 21.4438H19.4029V15.6003H13.2518V21.4438Z" fill="#14213D"/>
<path d="M17.3527 20.1452H15.9857C15.4206 20.1452 14.9607 19.7083 14.9607 19.1715C14.9607 18.6344 15.4206 18.1975 15.9857 18.1975H17.3527V20.1452ZM15.9857 18.8466C15.7972 18.8466 15.6441 18.9923 15.6441 19.1715C15.6441 19.3503 15.7972 19.4961 15.9857 19.4961H16.669V18.8469L15.9857 18.8466Z" fill="#14213D"/>
<path d="M17.3527 16.8989H16.669V18.8466H17.3527V16.8989Z" fill="#14213D"/>
<path d="M23.1619 13.9011L17.2727 10.6066L13.8048 16.2013L19.694 19.4958L23.1619 13.9011Z" fill="#FFB843"/>
<path d="M19.8155 19.9405L13.337 16.3168L17.1514 10.1623L23.6299 13.7859L19.8155 19.9405ZM14.2729 16.0867L19.5733 19.0517L22.694 14.0163L17.3936 11.0513L14.2729 16.0867Z" fill="#14213D"/>
<path d="M18.3788 16.4997L17.7898 16.1702L18.917 14.3521C19.06 14.1208 18.9785 13.8216 18.7351 13.6854C18.6177 13.6194 18.4792 13.6007 18.3464 13.6335C18.2139 13.6661 18.1027 13.7458 18.0336 13.8579L16.9064 15.6763L16.3174 15.3466L17.4448 13.5284C17.6067 13.2669 17.8662 13.0809 18.1757 13.0048C18.4837 12.9285 18.8066 12.9714 19.0822 13.1258C19.6503 13.4437 19.8407 14.1416 19.5063 14.6816L18.3788 16.4997Z" fill="#14213D"/>
<path d="M17.1841 13.948L16.8374 14.5073L18.8988 15.6605L19.2455 15.1011L17.1841 13.948Z" fill="#14213D"/>
<path d="M19.1411 16.5513L18.6204 17.39L19.209 17.7198L19.7297 16.8811L19.1411 16.5513Z" fill="#14213D"/>
<path d="M11.2016 15.6003H4.3672V22.0933H11.2016V15.6003Z" fill="#FFB843"/>
<path d="M11.5432 22.4178H4.02553V15.2757H11.5432V22.4178ZM4.70885 21.7684H10.8599V15.9252H4.70885V21.7684Z" fill="#14213D"/>
<path d="M9.49299 19.8206H8.80967V20.7944H9.49299V19.8206Z" fill="#14213D"/>
<path d="M8.12605 20.4698H6.07579V17.2237H6.75911V19.8206H8.12605V20.4698Z" fill="#14213D"/>
<path d="M14.6188 11.0556H7.78439V17.5483H14.6188V11.0556Z" fill="#FFB843"/>
<path d="M14.9607 17.8729H7.44273V10.7308H14.9607V17.8729ZM8.12605 17.2237H14.2771V11.3802H8.12605V17.2237Z" fill="#14213D"/>
<path d="M12.9102 15.2757H12.2269V16.2494H12.9102V15.2757Z" fill="#14213D"/>
<path d="M11.5432 12.354H10.8599V15.6003H11.5432V12.354Z" fill="#14213D"/>
<path d="M12.2266 12.354H10.1763V13.0031H12.2266V12.354Z" fill="#14213D"/>
<path d="M8.80968 9.75705H1.97529V16.2497H8.80968V9.75705Z" fill="#FFB843"/>
<path d="M9.15134 16.5743H1.63332V9.43219H9.15134V16.5743ZM2.31694 15.9252H8.46802V10.0816H2.31694V15.9252Z" fill="#14213D"/>
<path d="M7.44274 14.6914H5.65896L6.01274 13.0109L6.68303 13.1382L6.49264 14.0422H6.75912V13.9123H7.44274V14.6914Z" fill="#14213D"/>
<path d="M7.44243 14.0422H6.75912V14.9511H7.44243V14.0422Z" fill="#14213D"/>
<path d="M4.53818 14.302C4.43511 14.302 4.25291 14.2622 4.18803 13.9984C4.17894 13.9616 4.16469 13.9031 4.13892 13.823L3.25491 11.1685L3.9064 10.9727L4.53788 12.8695L5.16936 10.9727L5.82084 11.1685L4.93653 13.8256C4.91137 13.9037 4.89682 13.9621 4.88772 13.9987C4.82315 14.2622 4.64095 14.302 4.53818 14.302Z" fill="#14213D"/>
<path d="M9.83495 1.9655H3.00025V8.45846H9.83495V1.9655Z" fill="#FFB843"/>
<path d="M10.1763 8.78304H2.65859V1.64093H10.1763V8.78304ZM3.34221 8.13389H9.49298V2.29037H3.34221V8.13389Z" fill="#14213D"/>
<path d="M6.24738 6.8353C5.5874 6.8353 5.05081 6.3984 5.05081 5.86128V4.56269C5.05081 4.02557 5.5877 3.58896 6.24738 3.58896C6.90705 3.58896 7.44394 4.02585 7.44394 4.56269V4.88755H6.76062V4.56269C6.76062 4.38989 6.52082 4.23811 6.24738 4.23811C5.97393 4.23811 5.73413 4.38989 5.73413 4.56269V5.86128C5.73413 6.03437 5.97393 6.18614 6.24738 6.18614C6.52082 6.18614 6.76062 6.03437 6.76062 5.86128V5.5367H7.44394V5.86128C7.44394 6.3984 6.90735 6.8353 6.24738 6.8353Z" fill="#14213D"/>
<path d="M19.7335 1.96478L13.0395 3.27431L14.418 9.63383L21.112 8.3243L19.7335 1.96478Z" fill="#FFB843"/>
<path d="M14.1519 10.0177L12.6358 3.02247L19.9992 1.58218L21.5153 8.5777L14.1519 10.0177ZM13.4428 3.52762L14.6833 9.25105L20.7083 8.07284L19.4678 2.34913L13.4428 3.52762Z" fill="#14213D"/>
<path d="M18.9555 6.42639L18.2859 6.55763L18.4931 7.51155L19.1626 7.38031L18.9555 6.42639Z" fill="#14213D"/>
<path d="M16.997 3.82581L16.3277 3.95674L17.0169 7.13636L17.6862 7.00543L16.997 3.82581Z" fill="#14213D"/>
<path d="M15.3024 4.88754H8.46801V11.3802H15.3024V4.88754Z" fill="#FFB843"/>
<path d="M15.6441 11.7048H8.12605V4.56268H15.6441V11.7048ZM8.80967 11.0556H14.9607V5.21212H8.80967V11.0556Z" fill="#14213D"/>
<path d="M11.3723 7.80902H10.6889V9.43219H11.3723V7.80902Z" fill="#14213D"/>
<path d="M11.0309 8.85964L9.71793 6.36556L10.3294 6.07497L11.0309 7.40783L11.7324 6.07497L12.3436 6.36556L11.0309 8.85964Z" fill="#14213D"/>
<path d="M13.9355 9.82185H12.1517L12.5055 8.14137L13.1754 8.26867L12.9854 9.1727H13.2518V9.04281H13.9355V9.82185Z" fill="#14213D"/>
<path d="M13.9352 9.1727H13.2518V10.0816H13.9352V9.1727Z" fill="#14213D"/>
</svg>
