<svg width="24" height="24" viewBox="0 0 24 24" fill="none" xmlns="http://www.w3.org/2000/svg">
<path d="M15.6497 10.5865C15.6762 10.5865 15.7027 10.5829 15.7286 10.5759C16.0024 10.5019 16.2627 10.4209 16.5023 10.3352C16.598 10.301 16.6791 10.2201 16.7276 10.1104C16.7761 10.0007 16.7882 9.87113 16.7611 9.75021C16.7339 9.6293 16.6699 9.52693 16.5831 9.46564C16.4962 9.40434 16.3937 9.38914 16.2979 9.42337C16.074 9.50348 15.8296 9.57951 15.5716 9.64926C15.481 9.67367 15.4008 9.73957 15.3464 9.83427C15.292 9.92896 15.2672 10.0457 15.2769 10.1621C15.2866 10.2785 15.3301 10.3862 15.3989 10.4645C15.4678 10.5428 15.5571 10.5862 15.6497 10.5862V10.5865ZM15.9359 7.08154C17.5472 7.58033 17.8999 8.13945 17.8999 8.31311C17.8999 8.40513 17.8152 8.54131 17.6732 8.67738C17.634 8.71498 17.601 8.76198 17.5762 8.81569C17.5513 8.8694 17.5351 8.92876 17.5284 8.99039C17.5217 9.05202 17.5247 9.11471 17.5372 9.17488C17.5497 9.23505 17.5715 9.29152 17.6012 9.34107C17.631 9.39062 17.6682 9.43228 17.7107 9.46366C17.7533 9.49505 17.8002 9.51555 17.849 9.524C17.8978 9.53244 17.9475 9.52867 17.9951 9.51288C18.0427 9.4971 18.0874 9.46962 18.1267 9.43202C18.4739 9.09913 18.6499 8.72273 18.6499 8.31294C18.6499 7.40625 17.7968 6.6824 16.114 6.16152C16.0661 6.14634 16.0162 6.14327 15.9673 6.15249C15.9185 6.16172 15.8715 6.18305 15.8292 6.21527C15.7869 6.24749 15.75 6.28996 15.7207 6.34024C15.6914 6.39052 15.6703 6.44761 15.6585 6.50824C15.6468 6.56887 15.6446 6.63183 15.6522 6.69352C15.6598 6.7552 15.6769 6.81439 15.7026 6.86768C15.7284 6.92096 15.7622 6.9673 15.8022 7.00402C15.8421 7.04074 15.8874 7.06713 15.9355 7.08165L15.9359 7.08154ZM2.90011 8.31282C2.90011 8.72244 3.07618 9.09884 3.42343 9.4319C3.46265 9.4695 3.50736 9.49698 3.555 9.51277C3.60263 9.52855 3.65226 9.53232 3.70105 9.52388C3.74984 9.51543 3.79683 9.49493 3.83935 9.46355C3.88187 9.43216 3.91908 9.3905 3.94885 9.34095C3.97862 9.2914 4.00038 9.23493 4.01287 9.17476C4.02536 9.11459 4.02835 9.0519 4.02167 8.99027C4.01498 8.92864 3.99875 8.86928 3.9739 8.81557C3.94906 8.76186 3.91608 8.71487 3.87685 8.67726C3.73486 8.54108 3.65011 8.40489 3.65011 8.313C3.65011 8.15763 3.90999 7.75458 4.89352 7.34117C4.98789 7.30151 5.06592 7.21611 5.11045 7.10377C5.15497 6.99143 5.16235 6.86135 5.13094 6.74214C5.09954 6.62293 5.03193 6.52437 4.943 6.46813C4.85406 6.41188 4.75108 6.40257 4.65671 6.44224C3.49111 6.93203 2.90011 7.56144 2.90011 8.31282ZM4.41877 9.58425C4.38736 9.70344 4.39473 9.83352 4.43924 9.94586C4.48376 10.0582 4.56178 10.1436 4.65615 10.1833C4.8931 10.2829 5.15541 10.3775 5.43586 10.4643C5.4838 10.4795 5.53363 10.4825 5.58251 10.4733C5.63138 10.4641 5.67833 10.4428 5.72066 10.4105C5.76298 10.3783 5.79985 10.3359 5.82913 10.2856C5.85842 10.2353 5.87955 10.1782 5.89131 10.1176C5.90308 10.0569 5.90524 9.99398 5.89767 9.9323C5.8901 9.87061 5.87295 9.81143 5.84722 9.75814C5.82148 9.70485 5.78766 9.65851 5.7477 9.62179C5.70774 9.58507 5.66242 9.55869 5.61436 9.54416C5.35351 9.4634 5.11083 9.376 4.89301 9.28446C4.79865 9.24479 4.69567 9.25408 4.60674 9.3103C4.5178 9.36652 4.45019 9.46506 4.41877 9.58425ZM7.39496 13.5671C7.37854 13.4432 7.32384 13.3326 7.24288 13.2597C7.16192 13.1867 7.06133 13.1574 6.96324 13.1781C5.4518 13.4978 3.65011 14.1455 3.65011 15.4179C3.65011 15.8202 3.82899 16.186 4.18168 16.5053C4.2217 16.5416 4.267 16.5676 4.31498 16.5817C4.36296 16.5959 4.41268 16.598 4.4613 16.5879C4.50992 16.5778 4.55648 16.5557 4.59833 16.5228C4.64018 16.4899 4.67649 16.447 4.70519 16.3964C4.73389 16.3458 4.75441 16.2886 4.76559 16.2279C4.77677 16.1673 4.77837 16.1045 4.77032 16.0431C4.76227 15.9817 4.74472 15.9229 4.71867 15.8701C4.69262 15.8172 4.65858 15.7714 4.61851 15.7352C4.44615 15.5791 4.40011 15.4624 4.40011 15.4179C4.40011 15.187 5.07671 14.5374 7.08699 14.1125C7.13556 14.1022 7.18206 14.08 7.22382 14.047C7.26559 14.014 7.3018 13.971 7.3304 13.9204C7.359 13.8697 7.37942 13.8125 7.39049 13.7518C7.40157 13.6912 7.40309 13.6285 7.39496 13.5671ZM5.63579 16.3054C5.54097 16.2692 5.43868 16.2819 5.35124 16.3407C5.26381 16.3995 5.19833 16.4995 5.1691 16.6191C5.13987 16.7386 5.14926 16.8679 5.19523 16.9787C5.24119 17.0895 5.32 17.1729 5.41444 17.2106C5.65168 17.3032 5.91371 17.3901 6.19322 17.4692C6.29029 17.4966 6.392 17.4742 6.47599 17.4069C6.55998 17.3396 6.61937 17.233 6.64109 17.1103C6.66281 16.9877 6.64508 16.8593 6.5918 16.7532C6.53853 16.6471 6.45407 16.5721 6.357 16.5446C6.0968 16.4711 5.85418 16.3906 5.63579 16.3054ZM14.4632 16.7236C14.1159 16.797 13.745 16.8602 13.3607 16.9114C13.2652 16.9241 13.1773 16.9826 13.1149 17.0748C13.0525 17.1671 13.0205 17.286 13.0255 17.4071C13.0305 17.5282 13.0721 17.6423 13.1417 17.7259C13.2113 17.8094 13.3036 17.8561 13.3996 17.8562C13.413 17.8562 13.4263 17.8553 13.4395 17.8535C13.8388 17.8002 14.2248 17.7345 14.587 17.6581C14.6359 17.6484 14.6828 17.6265 14.725 17.5937C14.7672 17.5609 14.8039 17.5179 14.8328 17.4671C14.8618 17.4163 14.8825 17.3588 14.8937 17.2979C14.905 17.2369 14.9066 17.1738 14.8984 17.1121C14.8902 17.0504 14.8725 16.9913 14.8461 16.9383C14.8198 16.8853 14.7854 16.8394 14.7449 16.8033C14.7044 16.7672 14.6587 16.7416 14.6104 16.728C14.562 16.7143 14.512 16.7129 14.4632 16.7238V16.7236ZM15.9144 16.3054C15.8671 16.3235 15.8231 16.3532 15.7849 16.3928C15.7466 16.4324 15.715 16.4812 15.6918 16.5364C15.6686 16.5915 15.6542 16.6519 15.6495 16.7141C15.6448 16.7763 15.6499 16.839 15.6645 16.8987C15.6791 16.9583 15.7029 17.0138 15.7345 17.0618C15.7662 17.1098 15.805 17.1495 15.8488 17.1785C15.8926 17.2074 15.9405 17.2252 15.9898 17.2307C16.039 17.2362 16.0886 17.2294 16.1358 17.2106C17.3065 16.7537 17.9001 16.1507 17.9001 15.4181C17.9001 14.6069 17.175 13.9569 15.7448 13.4854C15.6486 13.4537 15.5463 13.4715 15.4605 13.5351C15.3747 13.5986 15.3124 13.7026 15.2873 13.8241C15.2621 13.9457 15.2763 14.0749 15.3266 14.1833C15.3769 14.2917 15.4592 14.3704 15.5554 14.4021C16.8571 14.8312 17.1501 15.2909 17.1501 15.4181C17.1501 15.5232 16.9231 15.9118 15.9144 16.3054ZM12.6501 13.0497H13.0251C13.1246 13.0497 13.22 12.9998 13.2903 12.9109C13.3606 12.8221 13.4001 12.7016 13.4001 12.576C13.4001 12.4503 13.3606 12.3299 13.2903 12.241C13.22 12.1522 13.1246 12.1023 13.0251 12.1023H12.6501C12.5507 12.1023 12.4553 12.1522 12.3849 12.241C12.3146 12.3299 12.2751 12.4503 12.2751 12.576C12.2751 12.7016 12.3146 12.8221 12.3849 12.9109C12.4553 12.9998 12.5507 13.0497 12.6501 13.0497ZM8.90011 8.31282H8.15011C8.05066 8.31282 7.95528 8.36272 7.88495 8.45156C7.81462 8.54039 7.77511 8.66087 7.77511 8.7865C7.77511 8.91213 7.81462 9.03261 7.88495 9.12145C7.95528 9.21028 8.05066 9.26019 8.15011 9.26019H8.90011C8.99957 9.26019 9.09495 9.21028 9.16528 9.12145C9.23561 9.03261 9.27511 8.91213 9.27511 8.7865C9.27511 8.66087 9.23561 8.54039 9.16528 8.45156C9.09495 8.36272 8.99957 8.31282 8.90011 8.31282ZM10.4001 15.8918H10.0251C9.92566 15.8918 9.83028 15.9417 9.75995 16.0305C9.68962 16.1193 9.65011 16.2398 9.65011 16.3655C9.65011 16.4911 9.68962 16.6116 9.75995 16.7004C9.83028 16.7892 9.92566 16.8391 10.0251 16.8391H10.4001C10.4996 16.8391 10.595 16.7892 10.6653 16.7004C10.7356 16.6116 10.7751 16.4911 10.7751 16.3655C10.7751 16.2398 10.7356 16.1193 10.6653 16.0305C10.595 15.9417 10.4996 15.8918 10.4001 15.8918ZM17.1501 17.7865C17.1501 17.9121 17.1896 18.0326 17.2599 18.1214C17.3303 18.2103 17.4257 18.2602 17.5251 18.2602H18.7547L19.0442 19.3574C19.0764 19.4754 19.1442 19.5726 19.2328 19.6279C19.3214 19.6831 19.4237 19.692 19.5174 19.6525C19.6112 19.613 19.6888 19.5284 19.7334 19.417C19.778 19.3057 19.786 19.1766 19.7557 19.0578L19.3807 17.6367C19.3558 17.5424 19.3081 17.4604 19.2442 17.4022C19.1804 17.3441 19.1037 17.3128 19.025 17.3128H17.525C17.4255 17.3129 17.3302 17.3628 17.2599 17.4516C17.1896 17.5404 17.1501 17.6609 17.1501 17.7865ZM1.49157 4.81407C1.59205 4.98493 1.72294 5.12356 1.87366 5.21874C2.02439 5.31392 2.19072 5.363 2.35922 5.362C2.36672 5.362 2.37427 5.362 2.38182 5.362C2.48058 5.3595 2.57864 5.34022 2.67333 5.30469L3.07519 5.98028C3.1048 6.03003 3.14187 6.07192 3.18429 6.10358C3.22671 6.13523 3.27365 6.15602 3.32243 6.16475C3.37121 6.17349 3.42088 6.17 3.46859 6.15449C3.51631 6.13899 3.56114 6.11176 3.60052 6.07436C3.6399 6.03697 3.67307 5.99015 3.69813 5.93656C3.72319 5.88298 3.73965 5.82368 3.74656 5.76206C3.75348 5.70045 3.75072 5.63771 3.73844 5.57744C3.72616 5.51717 3.70461 5.46054 3.67501 5.41079L3.27188 4.7339C3.39284 4.49828 3.45356 4.2214 3.44583 3.94075C3.43809 3.6601 3.36226 3.38923 3.22861 3.16482L2.70511 2.28477C2.6194 2.14069 2.51205 2.01934 2.38921 1.92766C2.26636 1.83599 2.13042 1.77577 1.98916 1.75045C1.70385 1.69931 1.41415 1.79343 1.18379 2.01211C0.953421 2.23078 0.801261 2.55609 0.760779 2.91648C0.720298 3.27686 0.794811 3.6428 0.967927 3.93378L1.49157 4.81407ZM1.55968 2.86776C1.58975 2.81204 1.62999 2.76627 1.67701 2.73433C1.72402 2.70238 1.77644 2.68519 1.82982 2.68421H1.83685C1.88903 2.6839 1.94054 2.69911 1.98721 2.72858C2.03389 2.75806 2.07442 2.80099 2.10554 2.8539L2.62922 3.73419C2.68284 3.82432 2.70592 3.93766 2.69338 4.04929C2.68084 4.16091 2.63371 4.26167 2.56236 4.3294C2.491 4.39713 2.40127 4.42628 2.3129 4.41044C2.22453 4.3946 2.14476 4.33507 2.09115 4.24494L1.5675 3.36465C1.52503 3.29337 1.50142 3.207 1.50001 3.1178C1.49861 3.02861 1.51948 2.94112 1.55968 2.86776ZM19.9307 10.907L20.2339 11.0491L19.9728 11.9373C19.9381 12.055 19.942 12.1854 19.9834 12.2996C20.0249 12.4138 20.1005 12.5026 20.1938 12.5463C20.287 12.5901 20.3902 12.5852 20.4806 12.5329C20.571 12.4805 20.6413 12.385 20.6759 12.2672L20.9371 11.379L21.2403 11.5211C21.3421 11.5689 21.4517 11.584 21.5592 11.5651C21.6668 11.5462 21.769 11.4938 21.8566 11.4128C21.9442 11.3317 22.0145 11.2244 22.0612 11.1006C22.1079 10.9768 22.1296 10.8402 22.1242 10.7032L22.0046 7.63823C22.001 7.54565 21.976 7.45644 21.9326 7.38166C21.8892 7.30688 21.8294 7.24982 21.7606 7.21754C21.6918 7.18527 21.6171 7.1792 21.5456 7.20009C21.4741 7.22099 21.409 7.26792 21.3584 7.33508L19.6838 9.55855C19.6089 9.65793 19.5547 9.77922 19.5261 9.91155C19.4975 10.0439 19.4954 10.1831 19.5198 10.3168C19.5443 10.4504 19.5947 10.5743 19.6664 10.6773C19.7381 10.7803 19.8289 10.8592 19.9307 10.907ZM21.2986 8.78911L21.3681 10.5708L20.8468 10.3262L20.325 10.0814L21.2986 8.78911Z" fill="#FFB843"/>
<path d="M22.875 21.6316H21.7807L21.9209 21.1006C22.143 21.0924 22.3578 20.9981 22.5362 20.8306C22.7146 20.663 22.8478 20.4303 22.918 20.1639L23.1937 19.1193C23.2849 18.774 23.2637 18.3971 23.1348 18.0715C23.0059 17.7459 22.78 17.4984 22.5066 17.3832C22.2332 17.2681 21.9348 17.2949 21.6771 17.4577C21.4194 17.6205 21.2234 17.9059 21.1322 18.2512L20.8566 19.2959C20.8012 19.502 20.7858 19.7219 20.8118 19.9371C20.8378 20.1523 20.9044 20.3564 21.0059 20.5323C21.0637 20.6335 21.1319 20.7244 21.2089 20.8026L20.9902 21.6316H18.2751V20.1549C18.2751 20.0769 18.2599 20.0002 18.2307 19.9314C18.2016 19.8627 18.1595 19.8041 18.1081 19.7608L16.9831 18.8134C16.9215 18.7616 16.8492 18.7339 16.7751 18.7339C16.7011 18.7339 16.6287 18.7616 16.5671 18.8134L15.4421 19.7608C15.3908 19.8041 15.3486 19.8627 15.3195 19.9314C15.2904 20.0002 15.2751 20.0769 15.2751 20.1549V21.6316H11.9001V18.3604C11.8995 18.0904 11.9413 17.8229 12.0231 17.5734C12.1049 17.3239 12.2251 17.0974 12.3767 16.907L14.3797 14.377C14.7672 13.8853 15.0084 13.2398 15.0625 12.5494C15.1166 11.859 14.9803 11.1662 14.6767 10.5882L14.1229 9.53889C13.9365 9.18492 13.8415 8.76675 13.8508 8.3418C13.8601 7.91686 13.9734 7.50599 14.175 7.16561L15.2062 5.42915C15.4755 5.19183 15.6407 4.90276 15.6495 4.55283C15.6495 4.54792 15.6498 4.543 15.6499 4.53809C15.6501 4.53317 15.6503 4.52844 15.6503 4.52352C15.6503 4.51861 15.65 4.51452 15.65 4.51002C15.6499 4.50552 15.65 4.50078 15.6495 4.49617C15.615 3.02313 12.8115 2.62878 11.1503 2.62878C9.51811 2.62878 6.78272 3.00957 6.65545 4.42044L5.97319 6.71851C5.82059 7.23016 5.78177 7.78481 5.86094 8.32233C5.9401 8.85986 6.13424 9.35976 6.4223 9.76786L7.55878 11.3829C7.80513 11.7301 7.95013 12.1733 7.96973 12.6389C7.98934 13.1046 7.88239 13.5647 7.66659 13.943C7.35076 14.5054 7.19709 15.1876 7.23121 15.8758C7.26533 16.564 7.48518 17.2167 7.85409 17.7249L10.7093 21.6316H2.84447L2.93414 21.3265L3.23738 21.4686C3.33918 21.5164 3.44878 21.5315 3.55635 21.5126C3.66391 21.4937 3.76608 21.4414 3.8537 21.3603C3.94131 21.2792 4.01162 21.172 4.05834 21.0481C4.10505 20.9243 4.1267 20.7877 4.12134 20.6507L4.00172 17.5859C3.9981 17.4933 3.97305 17.4041 3.92968 17.3293C3.88632 17.2545 3.82653 17.1975 3.75773 17.1652C3.68894 17.1329 3.61416 17.1269 3.54266 17.1478C3.47116 17.1686 3.40609 17.2156 3.3555 17.2827L1.68089 19.5059C1.60604 19.6053 1.55188 19.7266 1.52327 19.8589C1.49466 19.9912 1.49249 20.1305 1.51696 20.2641C1.54144 20.3978 1.59179 20.5217 1.66349 20.6247C1.7352 20.7277 1.82603 20.8066 1.92783 20.8544L2.23106 20.9965L2.04436 21.6316H1.125C1.02554 21.6316 0.930161 21.6815 0.859835 21.7703C0.789509 21.8591 0.75 21.9796 0.75 22.1053C0.75 22.2309 0.789509 22.3514 0.859835 22.4402C0.930161 22.529 1.02554 22.5789 1.125 22.5789H22.875C22.9745 22.5789 23.0698 22.529 23.1402 22.4402C23.2105 22.3514 23.25 22.2309 23.25 22.1053C23.25 21.9796 23.2105 21.8591 23.1402 21.7703C23.0698 21.6815 22.9745 21.6316 22.875 21.6316ZM21.568 19.5954L21.8438 18.5508C21.8575 18.4976 21.8795 18.4482 21.9084 18.4057C21.9373 18.3632 21.9726 18.3283 22.0122 18.303C22.0518 18.2778 22.095 18.2627 22.1393 18.2587C22.1835 18.2546 22.228 18.2616 22.2701 18.2793C22.3122 18.2971 22.3511 18.3251 22.3846 18.3619C22.4181 18.3987 22.4455 18.4435 22.4652 18.4937C22.4849 18.544 22.4965 18.5986 22.4995 18.6546C22.5024 18.7105 22.4965 18.7666 22.4822 18.8197L22.2066 19.8643C22.1928 19.9176 22.1708 19.9669 22.1419 20.0094C22.113 20.0519 22.0777 20.0868 22.0381 20.1121C21.9985 20.1373 21.9553 20.1524 21.911 20.1565C21.8668 20.1605 21.8223 20.1535 21.7802 20.1358C21.7381 20.118 21.6992 20.09 21.6657 20.0532C21.6322 20.0164 21.6049 19.9716 21.5851 19.9214C21.5654 19.8711 21.5538 19.8165 21.5508 19.7606C21.5479 19.7046 21.5537 19.6485 21.568 19.5954ZM8.47416 3.92893C9.2048 3.70132 10.1551 3.57597 11.1501 3.57597C12.1451 3.57597 13.0954 3.70132 13.8261 3.92893C14.442 4.12077 14.7324 4.33369 14.845 4.45821L14.6866 4.72501C14.5232 4.84178 14.2528 4.98483 13.8261 5.11776C13.0955 5.34536 12.1451 5.47071 11.1501 5.47071C10.1551 5.47071 9.2048 5.34536 8.47416 5.11776C7.73067 4.88613 7.46109 4.6237 7.40662 4.52334C7.46109 4.42298 7.73067 4.16056 8.47416 3.92893ZM8.25356 16.8391H8.90011C8.99957 16.8391 9.09495 16.7892 9.16527 16.7004C9.2356 16.6116 9.27511 16.4911 9.27511 16.3654C9.27511 16.2398 9.2356 16.1193 9.16527 16.0305C9.09495 15.9417 8.99957 15.8918 8.90011 15.8918H7.9838C7.94395 15.3961 8.04807 14.8991 8.27677 14.4933C8.51832 14.068 8.66773 13.5703 8.71022 13.0497H10.7751C10.8746 13.0497 10.9699 12.9998 11.0403 12.9109C11.1106 12.8221 11.1501 12.7016 11.1501 12.576C11.1501 12.4503 11.1106 12.3299 11.0403 12.241C10.9699 12.1522 10.8746 12.1023 10.7751 12.1023H8.66719C8.57878 11.6008 8.39017 11.1364 8.11931 10.7531L6.98259 9.13815C6.78545 8.85881 6.65259 8.51664 6.59841 8.14873C6.54423 7.78081 6.5708 7.40118 6.67523 7.05098L7.14398 5.4716C8.02898 6.19776 9.90853 6.41808 11.15 6.41808C11.9433 6.41808 12.9972 6.32808 13.8857 6.07365L13.5749 6.59719C13.2805 7.09349 13.1151 7.69287 13.1015 8.31282H10.4001C10.3007 8.31282 10.2053 8.36272 10.1349 8.45156C10.0646 8.54039 10.0251 8.66087 10.0251 8.7865C10.0251 8.91213 10.0646 9.03261 10.1349 9.12145C10.2053 9.21028 10.3007 9.26019 10.4001 9.26019H13.2002C13.2675 9.54553 13.3682 9.81658 13.4989 10.0644L14.0527 11.1137C14.2605 11.5093 14.3538 11.9836 14.3167 12.4561C14.2797 12.9287 14.1146 13.3706 13.8494 13.7071L11.8463 16.2375C11.6249 16.5157 11.4494 16.8465 11.3299 17.211C11.2104 17.5754 11.1493 17.9662 11.1501 18.3607V20.8382L8.4052 17.082C8.34984 17.006 8.29914 16.9248 8.25356 16.8391ZM3.29573 18.7365L3.36525 20.5184L2.32228 20.029L3.29573 18.7365ZM16.0251 20.4084L16.7751 19.7769L17.5251 20.4084V21.576H17.1501V21.1023C17.1501 20.9767 17.1106 20.8562 17.0403 20.7673C16.9699 20.6785 16.8746 20.6286 16.7751 20.6286C16.6757 20.6286 16.5803 20.6785 16.5099 20.7673C16.4396 20.8562 16.4001 20.9767 16.4001 21.1023V21.576H16.0251V20.4084Z" fill="#FFB843"/>
</svg>
