<svg width="23" height="24" viewBox="0 0 23 24" fill="none" xmlns="http://www.w3.org/2000/svg">
<path d="M10.4721 12.1144C11.8632 10.9187 11.6834 6.23997 10.5032 4.71597C9.34296 3.21723 4.67148 3.36592 3.39462 4.69797C2.12117 6.02697 2.08402 10.7552 3.39592 12.1009C4.71717 13.4563 9.10128 13.2929 10.4721 12.1144ZM3.70391 11.774C2.58629 10.6275 2.58966 6.1863 3.70521 5.02206C4.82529 3.85351 9.19175 3.75151 10.1617 5.00406C11.1926 6.3356 11.3863 10.7345 10.1928 11.7605C9.00533 12.7815 4.8619 12.9618 3.70391 11.774ZM13.2482 20.4745C14.5708 21.8312 18.955 21.6653 20.3244 20.488C21.7155 19.2923 21.5357 14.6136 20.3555 13.0896C19.2002 11.5977 14.5306 11.7317 13.2469 13.0716C11.9731 14.4005 11.9363 19.1288 13.2482 20.4745ZM13.5575 13.3957C14.6773 12.2272 19.0414 12.1225 20.014 13.3777C21.0449 14.7092 21.2386 19.1081 20.0451 20.1342C18.8578 21.1549 14.7143 21.3354 13.5562 20.1477C12.437 18.9997 12.444 14.5574 13.5575 13.3957ZM2.05257 22.734C3.37521 24.0905 7.75955 23.9246 9.12891 22.7474C10.5197 21.5516 10.3402 16.873 9.15999 15.349C7.99988 13.8505 3.32768 13.9989 2.05127 15.331C0.777285 16.6604 0.741033 21.3885 2.05257 22.734ZM8.8185 15.6371C9.84941 16.9686 10.0431 21.3675 8.84958 22.3936C7.66229 23.4143 3.51847 23.5948 2.36056 22.4071C1.24313 21.2608 1.24614 16.8194 2.36186 15.6552C3.48127 14.487 7.84585 14.3815 8.8185 15.6371ZM20.937 8.77821C22.3283 7.58252 22.1485 2.90383 20.9681 1.37978C19.8088 -0.117696 15.1379 0.0276637 13.8595 1.36178C12.5864 2.69022 12.5488 7.41888 13.8608 8.76466C15.1834 10.1214 19.5676 9.95548 20.937 8.77821ZM14.1701 1.68587C15.2977 0.50968 19.6624 0.423102 20.6266 1.66787C21.6577 2.9994 21.8514 7.3983 20.6577 8.42435C19.4704 9.44524 15.3269 9.62576 14.1688 8.4379C13.0517 7.29185 13.0544 2.85015 14.1701 1.68587Z" fill="#FCA311"/>
<path d="M15.0779 19.7668H15.8016C17.4099 19.7668 18.7184 18.4015 18.7184 16.7232C18.7184 15.0451 17.4099 13.6797 15.8016 13.6797H15.0779C15.0743 13.6797 15.0707 13.6798 15.0671 13.68C15.0635 13.6802 15.0599 13.6804 15.0563 13.6808C15.0528 13.6812 15.0492 13.6816 15.0456 13.6822C15.0421 13.6827 15.0385 13.6834 15.035 13.6841C15.0315 13.6848 15.028 13.6857 15.0245 13.6866C15.021 13.6875 15.0175 13.6885 15.0141 13.6896C15.0107 13.6907 15.0072 13.6918 15.0039 13.6931C15.0005 13.6944 14.9971 13.6957 14.9938 13.6972C14.9905 13.6986 14.9872 13.7001 14.9839 13.7017C14.9807 13.7033 14.9775 13.705 14.9743 13.7068C14.9712 13.7085 14.968 13.7104 14.9649 13.7123C14.9619 13.7142 14.9588 13.7162 14.9558 13.7183C14.9528 13.7204 14.9499 13.7226 14.947 13.7248C14.9441 13.727 14.9413 13.7293 14.9385 13.7317C14.9357 13.7341 14.933 13.7366 14.9303 13.7391C14.9277 13.7416 14.9251 13.7442 14.9225 13.7468C14.92 13.7495 14.9175 13.7522 14.9151 13.755C14.9127 13.7578 14.9103 13.7606 14.9081 13.7635C14.9058 13.7664 14.9036 13.7693 14.9014 13.7724C14.8993 13.7754 14.8972 13.7785 14.8952 13.7816C14.8932 13.7847 14.8913 13.7878 14.8894 13.7911C14.8876 13.7943 14.8858 13.7976 14.8841 13.8009C14.8825 13.8042 14.8808 13.8075 14.8793 13.8109C14.8777 13.8143 14.8763 13.8177 14.8749 13.8212C14.8735 13.8247 14.8723 13.8282 14.871 13.8317C14.8698 13.8352 14.8687 13.8388 14.8677 13.8424C14.8666 13.846 14.8657 13.8496 14.8648 13.8532C14.8639 13.8569 14.8631 13.8605 14.8624 13.8642C14.8617 13.8679 14.8611 13.8716 14.8606 13.8753C14.8601 13.879 14.8596 13.8827 14.8593 13.8865C14.8589 13.8902 14.8587 13.8939 14.8585 13.8977C14.8583 13.9014 14.8582 13.9052 14.8582 13.9089V19.5376C14.8582 19.5414 14.8583 19.5451 14.8585 19.5489C14.8587 19.5526 14.8589 19.5564 14.8593 19.5601C14.8596 19.5638 14.8601 19.5675 14.8606 19.5713C14.8611 19.575 14.8617 19.5787 14.8624 19.5823C14.8631 19.586 14.8639 19.5897 14.8648 19.5933C14.8657 19.597 14.8666 19.6006 14.8677 19.6042C14.8687 19.6077 14.8698 19.6113 14.871 19.6148C14.8723 19.6184 14.8736 19.6219 14.8749 19.6253C14.8763 19.6288 14.8778 19.6322 14.8793 19.6356C14.8808 19.639 14.8825 19.6424 14.8841 19.6457C14.8859 19.649 14.8876 19.6522 14.8895 19.6554C14.8913 19.6587 14.8932 19.6618 14.8952 19.665C14.8972 19.6681 14.8993 19.6711 14.9014 19.6742C14.9036 19.6772 14.9058 19.6801 14.9081 19.683C14.9104 19.6859 14.9127 19.6888 14.9151 19.6915C14.9175 19.6943 14.92 19.697 14.9226 19.6997C14.9251 19.7023 14.9277 19.7049 14.9304 19.7074C14.933 19.7099 14.9358 19.7124 14.9385 19.7148C14.9413 19.7172 14.9441 19.7195 14.947 19.7217C14.9499 19.7239 14.9528 19.7261 14.9558 19.7282C14.9588 19.7303 14.9619 19.7323 14.965 19.7342C14.968 19.7361 14.9712 19.738 14.9743 19.7397C14.9775 19.7415 14.9807 19.7432 14.984 19.7448C14.9872 19.7464 14.9905 19.7479 14.9938 19.7494C14.9971 19.7508 15.0005 19.7521 15.0039 19.7534C15.0073 19.7547 15.0107 19.7558 15.0141 19.7569C15.0175 19.758 15.021 19.759 15.0245 19.7599C15.028 19.7608 15.0315 19.7617 15.035 19.7624C15.0385 19.7631 15.0421 19.7638 15.0456 19.7643C15.0492 19.7649 15.0528 19.7653 15.0563 19.7657C15.0599 19.7661 15.0635 19.7663 15.0671 19.7665C15.0707 19.7667 15.0743 19.7668 15.0779 19.7668ZM15.2975 14.1381H15.8016C17.1678 14.1381 18.2791 15.2977 18.2791 16.7232V16.7233C18.2791 18.1488 17.1678 19.3084 15.8016 19.3084H15.2975V14.1381ZM17.4271 8.06542C18.1159 8.06542 18.9691 7.43584 18.9691 6.42062V3.60619C18.9691 2.54845 18.0221 1.85798 17.2759 1.97011C16.7398 2.04914 15.8327 2.48269 15.8327 3.60619V6.42062C15.8327 7.34209 16.5583 8.06542 17.4271 8.06542ZM16.272 3.60619C16.272 2.90147 16.864 2.42831 17.401 2.42831C18.0234 2.42831 18.5299 2.95664 18.5299 3.60619V6.42062C18.5299 7.12623 17.9637 7.59863 17.401 7.59863C16.7785 7.59863 16.272 7.07016 16.272 6.42062V3.60619ZM4.24427 22.0261C4.24786 22.0261 4.25145 22.026 4.25505 22.0259C4.25864 22.0257 4.26223 22.0254 4.26581 22.025C4.26938 22.0247 4.27295 22.0242 4.2765 22.0236C4.28006 22.0231 4.2836 22.0225 4.28712 22.0217C4.29064 22.021 4.29414 22.0202 4.29763 22.0193C4.30112 22.0183 4.30459 22.0173 4.30803 22.0163C4.31148 22.0152 4.31489 22.014 4.31827 22.0127C4.32166 22.0115 4.32501 22.0101 4.32834 22.0087C4.33165 22.0072 4.33493 22.0057 4.33817 22.0041C4.34144 22.0025 4.34465 22.0008 4.34781 21.9991C4.35099 21.9973 4.35411 21.9954 4.3572 21.9935C4.36028 21.9916 4.36332 21.9896 4.3663 21.9875C4.36929 21.9854 4.37223 21.9832 4.37512 21.981C4.37801 21.9788 4.38084 21.9765 4.38361 21.9741C4.3864 21.9717 4.38912 21.9693 4.39179 21.9667C4.39445 21.9642 4.39706 21.9616 4.39961 21.959C4.40214 21.9563 4.40461 21.9536 4.40702 21.9508C4.40944 21.9481 4.41179 21.9452 4.41407 21.9423C4.41635 21.9394 4.41856 21.9365 4.4207 21.9335C4.42284 21.9304 4.42491 21.9274 4.42692 21.9242C4.42891 21.9211 4.43083 21.918 4.43269 21.9148C4.43453 21.9115 4.4363 21.9083 4.43799 21.905C4.43968 21.9016 4.4413 21.8983 4.44284 21.8949C4.44439 21.8915 4.44585 21.8881 4.44722 21.8846C4.44859 21.8812 4.44987 21.8777 4.45109 21.8741C4.4523 21.8706 4.45343 21.867 4.45448 21.8635C4.45553 21.8599 4.45648 21.8562 4.45735 21.8526C4.45822 21.849 4.45901 21.8453 4.45971 21.8416C4.46041 21.8379 4.46103 21.8342 4.46155 21.8305C4.46208 21.8268 4.46252 21.8231 4.46288 21.8194C4.46322 21.8157 4.46348 21.8119 4.46366 21.8082C4.46384 21.8044 4.46393 21.8007 4.46393 21.7969V19.2118H5.59273C6.21522 19.2118 6.72167 19.7401 6.72167 20.3897V21.7972C6.72167 21.801 6.72176 21.8047 6.72194 21.8085C6.72212 21.8122 6.72238 21.816 6.72272 21.8197C6.72308 21.8235 6.72352 21.8272 6.72405 21.8309C6.72457 21.8346 6.72519 21.8383 6.72589 21.842C6.72659 21.8456 6.72738 21.8493 6.72825 21.8529C6.72912 21.8566 6.73007 21.8602 6.73112 21.8638C6.73217 21.8674 6.7333 21.8709 6.73451 21.8745C6.73573 21.878 6.73701 21.8815 6.73838 21.885C6.73976 21.8884 6.74122 21.8918 6.74276 21.8952C6.7443 21.8986 6.74592 21.902 6.74761 21.9053C6.7493 21.9086 6.75107 21.9119 6.75291 21.9151C6.75477 21.9183 6.75669 21.9215 6.75868 21.9246C6.76069 21.9277 6.76276 21.9308 6.7649 21.9338C6.76705 21.9368 6.76925 21.9398 6.77153 21.9426C6.77381 21.9456 6.77615 21.9484 6.77856 21.9512C6.78099 21.954 6.78346 21.9567 6.78599 21.9593C6.78854 21.962 6.79115 21.9646 6.79381 21.9671C6.79648 21.9696 6.7992 21.9721 6.80199 21.9744C6.80476 21.9768 6.80759 21.9791 6.81048 21.9813C6.81337 21.9836 6.8163 21.9857 6.81928 21.9878C6.82228 21.9899 6.82532 21.9919 6.8284 21.9939C6.83149 21.9958 6.83462 21.9976 6.83779 21.9994C6.84095 22.0012 6.84415 22.0028 6.8474 22.0045C6.85067 22.0061 6.85395 22.0076 6.85726 22.009C6.86059 22.0104 6.86394 22.0118 6.86733 22.0131C6.87071 22.0143 6.87412 22.0155 6.87757 22.0166C6.88101 22.0177 6.88448 22.0187 6.88797 22.0196C6.89146 22.0205 6.89496 22.0213 6.89848 22.0221C6.902 22.0228 6.90554 22.0234 6.9091 22.024C6.91265 22.0245 6.91622 22.025 6.91979 22.0254C6.92337 22.0257 6.92696 22.026 6.93055 22.0262C6.93415 22.0264 6.93774 22.0265 6.94134 22.0265C6.94493 22.0265 6.94852 22.0264 6.95212 22.0262C6.95571 22.026 6.9593 22.0257 6.96287 22.0254C6.96645 22.025 6.97002 22.0245 6.97357 22.024C6.97712 22.0234 6.98066 22.0228 6.98419 22.0221C6.98771 22.0213 6.99121 22.0205 6.9947 22.0196C6.99819 22.0187 7.00166 22.0177 7.0051 22.0166C7.00855 22.0155 7.01196 22.0143 7.01534 22.0131C7.01873 22.0118 7.02208 22.0104 7.02541 22.009C7.02872 22.0076 7.032 22.0061 7.03524 22.0045C7.03849 22.0028 7.04171 22.0012 7.04488 21.9994C7.04805 21.9976 7.05118 21.9958 7.05427 21.9939C7.05735 21.9919 7.06039 21.9899 7.06337 21.9878C7.06636 21.9857 7.0693 21.9836 7.07219 21.9813C7.07508 21.9791 7.07791 21.9768 7.08068 21.9744C7.08347 21.9721 7.08619 21.9696 7.08886 21.9671C7.09152 21.9646 7.09413 21.962 7.09667 21.9593C7.09921 21.9567 7.10168 21.954 7.10409 21.9512C7.10651 21.9484 7.10886 21.9456 7.11114 21.9426C7.11342 21.9398 7.11562 21.9368 7.11777 21.9338C7.11991 21.9308 7.12198 21.9277 7.12399 21.9246C7.12598 21.9215 7.1279 21.9183 7.12976 21.9151C7.1316 21.9119 7.13337 21.9086 7.13506 21.9053C7.13675 21.902 7.13837 21.8986 7.13991 21.8952C7.14146 21.8918 7.14291 21.8884 7.14429 21.885C7.14565 21.8815 7.14694 21.878 7.14816 21.8745C7.14937 21.8709 7.1505 21.8674 7.15155 21.8638C7.1526 21.8602 7.15355 21.8566 7.15442 21.8529C7.15529 21.8493 7.15608 21.8456 7.15678 21.842C7.15748 21.8383 7.1581 21.8346 7.15862 21.8309C7.15915 21.8272 7.15959 21.8235 7.15995 21.8197C7.16029 21.816 7.16055 21.8122 7.16073 21.8085C7.16091 21.8047 7.161 21.801 7.161 21.7972V20.3897C7.161 19.791 6.85028 19.2679 6.38915 18.9826C6.83469 18.707 7.13989 18.2094 7.15993 17.6359C7.17664 17.5631 7.16635 17.4868 7.16078 17.4453C7.08504 16.8859 6.66978 15.9391 5.59278 15.9391H4.24427C4.24067 15.9391 4.23708 15.9392 4.23348 15.9394C4.22989 15.9396 4.2263 15.9399 4.22273 15.9402C4.21915 15.9406 4.21558 15.9411 4.21203 15.9416C4.20847 15.9422 4.20493 15.9428 4.20141 15.9435C4.19789 15.9443 4.19439 15.9451 4.1909 15.946C4.18741 15.9469 4.18394 15.9479 4.1805 15.949C4.17705 15.9501 4.17364 15.9513 4.17026 15.9525C4.16687 15.9538 4.16352 15.9551 4.16019 15.9566C4.15688 15.958 4.15361 15.9595 4.15036 15.9611C4.14709 15.9627 4.14388 15.9644 4.14072 15.9662C4.13755 15.968 4.13442 15.9698 4.13133 15.9717C4.12825 15.9737 4.12521 15.9757 4.12224 15.9777C4.11924 15.9798 4.1163 15.982 4.11341 15.9842C4.11052 15.9865 4.10769 15.9888 4.10492 15.9912C4.10213 15.9935 4.09941 15.996 4.09674 15.9985C4.09408 16.001 4.09147 16.0036 4.08893 16.0062C4.08639 16.0089 4.08392 16.0116 4.08149 16.0144C4.07908 16.0172 4.07674 16.02 4.07446 16.0229C4.07218 16.0258 4.06998 16.0288 4.06783 16.0318C4.06569 16.0348 4.06362 16.0379 4.06161 16.041C4.05962 16.0441 4.0577 16.0473 4.05584 16.0505C4.054 16.0537 4.05223 16.057 4.05054 16.0603C4.04885 16.0636 4.04723 16.0669 4.04569 16.0703C4.04415 16.0737 4.04269 16.0772 4.04131 16.0806C4.03995 16.0841 4.03866 16.0876 4.03744 16.0911C4.03623 16.0946 4.0351 16.0982 4.03405 16.1018C4.033 16.1054 4.03205 16.109 4.03118 16.1127C4.03031 16.1163 4.02952 16.1199 4.02882 16.1236C4.02812 16.1273 4.0275 16.131 4.02698 16.1347C4.02645 16.1384 4.02601 16.1421 4.02565 16.1459C4.02531 16.1496 4.02505 16.1533 4.02487 16.1571C4.02469 16.1608 4.0246 16.1646 4.0246 16.1683V21.797C4.0246 21.8007 4.02469 21.8045 4.02487 21.8082C4.02505 21.812 4.02531 21.8157 4.02565 21.8194C4.02601 21.8232 4.02645 21.8269 4.02698 21.8306C4.0275 21.8343 4.02812 21.838 4.02882 21.8417C4.02952 21.8453 4.03032 21.849 4.0312 21.8526C4.03207 21.8563 4.03303 21.8599 4.03408 21.8635C4.03511 21.8671 4.03623 21.8706 4.03744 21.8742C4.03866 21.8777 4.03995 21.8812 4.04133 21.8847C4.04271 21.8881 4.04417 21.8916 4.04571 21.895C4.04724 21.8983 4.04885 21.9017 4.05054 21.905C4.05225 21.9083 4.05402 21.9116 4.05586 21.9148C4.05772 21.918 4.05964 21.9212 4.06164 21.9243C4.06363 21.9274 4.06569 21.9305 4.06783 21.9335C4.06998 21.9365 4.07219 21.9395 4.07448 21.9423C4.07676 21.9452 4.0791 21.9481 4.08151 21.9509C4.08392 21.9537 4.0864 21.9564 4.08895 21.959C4.09149 21.9617 4.0941 21.9642 4.09676 21.9668C4.09943 21.9693 4.10215 21.9717 4.10492 21.9741C4.1077 21.9765 4.11054 21.9788 4.11343 21.981C4.11632 21.9833 4.11926 21.9854 4.12224 21.9875C4.12523 21.9896 4.12827 21.9916 4.13135 21.9935C4.13444 21.9955 4.13756 21.9973 4.14072 21.9991C4.14389 22.0008 4.14711 22.0025 4.15036 22.0041C4.15361 22.0057 4.15689 22.0073 4.16022 22.0087C4.16354 22.0101 4.16689 22.0115 4.17028 22.0127C4.17366 22.014 4.17707 22.0152 4.1805 22.0163C4.18394 22.0174 4.18741 22.0184 4.1909 22.0193C4.19439 22.0202 4.19789 22.021 4.20141 22.0217C4.20494 22.0225 4.20848 22.0231 4.21203 22.0236C4.2156 22.0242 4.21917 22.0247 4.22275 22.025C4.22631 22.0254 4.22989 22.0257 4.23348 22.0259C4.23708 22.026 4.24067 22.0261 4.24427 22.0261ZM4.46389 16.3976H5.59269C6.52832 16.3976 6.70222 17.3391 6.72674 17.5259C6.72333 17.5422 6.72161 17.5588 6.72158 17.5755C6.72158 18.225 6.21513 18.7535 5.59264 18.7535H4.46389V16.3976ZM8.93583 5.53547C8.93583 5.4181 8.84742 5.30461 8.71616 5.30461C8.56935 5.30461 8.49698 5.42935 8.49649 5.53425L8.4968 10.1004L7.13567 6.95916C7.1335 6.95418 7.13117 6.94928 7.12868 6.94447C7.12618 6.93966 7.12352 6.93495 7.12069 6.93034C7.11786 6.92571 7.11488 6.9212 7.11175 6.91681C7.10862 6.91242 7.10534 6.90816 7.10191 6.90402C7.09848 6.89987 7.09492 6.89587 7.09122 6.89199C7.08752 6.8881 7.08369 6.88436 7.07974 6.88077C7.07577 6.87719 7.07169 6.87375 7.0675 6.87045C7.06331 6.86717 7.05901 6.86405 7.05461 6.86108C7.05019 6.85811 7.04568 6.85531 7.04108 6.85269C7.03649 6.85005 7.0318 6.84759 7.02702 6.84533C7.02225 6.84305 7.0174 6.84094 7.01249 6.83902C7.00758 6.8371 7.00261 6.83537 6.99758 6.83382C6.99255 6.83227 6.98747 6.83092 6.98235 6.82977C6.97721 6.82859 6.97205 6.82762 6.96687 6.82684C6.96168 6.82605 6.95646 6.82547 6.95122 6.82508C6.94599 6.82469 6.94076 6.82449 6.93552 6.82449C6.93026 6.82449 6.92502 6.8247 6.91979 6.8251C6.91457 6.82549 6.90936 6.82608 6.90416 6.82686C6.89897 6.82764 6.89381 6.82862 6.88869 6.82979C6.88357 6.83096 6.87848 6.83232 6.87344 6.83387C6.8684 6.83541 6.86343 6.83714 6.85852 6.83905C6.85361 6.84097 6.84877 6.84307 6.84401 6.84535C6.83923 6.84763 6.83455 6.85009 6.82995 6.85273C6.82535 6.85536 6.82085 6.85816 6.81645 6.86112C6.81203 6.86409 6.80773 6.86723 6.80354 6.87052C6.79934 6.8738 6.79527 6.87724 6.79132 6.88084C6.78736 6.88443 6.78354 6.88817 6.77984 6.89206C6.77614 6.89594 6.77258 6.89995 6.76915 6.90409C6.76572 6.90824 6.76244 6.91252 6.75931 6.91691C6.75618 6.9213 6.75321 6.9258 6.75039 6.93041C6.74756 6.93503 6.7449 6.93975 6.7424 6.94456C6.7399 6.94937 6.73757 6.95427 6.73541 6.95926L5.37549 10.0999L5.37495 5.53547C5.37495 5.53172 5.37486 5.52797 5.37468 5.52422C5.3745 5.52047 5.37424 5.51673 5.3739 5.513C5.37354 5.50926 5.37309 5.50554 5.37257 5.50184C5.37205 5.49812 5.37143 5.49443 5.37073 5.49075C5.37002 5.48708 5.36924 5.48343 5.36837 5.47979C5.3675 5.47615 5.36654 5.47253 5.3655 5.46893C5.36445 5.46534 5.36332 5.46178 5.3621 5.45825C5.36089 5.45472 5.3596 5.45122 5.35824 5.44775C5.35686 5.44429 5.3554 5.44087 5.35386 5.43748C5.35232 5.43407 5.3507 5.43072 5.34901 5.42743C5.34732 5.42411 5.34555 5.42085 5.34371 5.41763C5.34185 5.41441 5.33993 5.41125 5.33794 5.40814C5.33593 5.40501 5.33386 5.40194 5.33171 5.39893C5.32957 5.39591 5.32736 5.39296 5.32509 5.39007C5.32281 5.38716 5.32046 5.38432 5.31804 5.38154C5.31562 5.37875 5.31315 5.37604 5.31062 5.37338C5.30808 5.37074 5.30547 5.36815 5.30281 5.36562C5.30014 5.36311 5.29742 5.36066 5.29463 5.35829C5.29186 5.35591 5.28903 5.35361 5.28614 5.35137C5.28325 5.34914 5.28031 5.34697 5.27731 5.34488C5.27433 5.3428 5.2713 5.34079 5.26822 5.33886C5.26513 5.33693 5.262 5.33509 5.25883 5.33332C5.25567 5.33156 5.25246 5.32987 5.24919 5.32826C5.24594 5.32665 5.24266 5.32513 5.23935 5.32369C5.23603 5.32227 5.23268 5.32093 5.22929 5.31966C5.22591 5.31839 5.22249 5.31722 5.21905 5.31612C5.21561 5.31503 5.21214 5.31403 5.20865 5.31312C5.20516 5.31222 5.20166 5.31139 5.19814 5.31066C5.1946 5.30993 5.19106 5.30929 5.18751 5.30874C5.18397 5.30819 5.1804 5.30773 5.17682 5.30736C5.17324 5.307 5.16966 5.30672 5.16606 5.30654C5.16247 5.30635 5.15888 5.30625 5.15528 5.30625C5.15169 5.30625 5.1481 5.30635 5.1445 5.30654C5.14091 5.30672 5.13732 5.307 5.13374 5.30736C5.13016 5.30773 5.1266 5.30819 5.12305 5.30874C5.11949 5.30929 5.11595 5.30993 5.11243 5.31066C5.10891 5.31139 5.1054 5.31222 5.10192 5.31312C5.09843 5.31403 5.09496 5.31503 5.09152 5.31612C5.08807 5.31722 5.08466 5.31839 5.08127 5.31966C5.07789 5.32093 5.07454 5.32227 5.07121 5.32369C5.0679 5.32513 5.06462 5.32665 5.06135 5.32826C5.0581 5.32987 5.0549 5.33156 5.05174 5.33332C5.04856 5.33509 5.04543 5.33693 5.04235 5.33886C5.03926 5.34079 5.03623 5.3428 5.03325 5.34488C5.03026 5.34697 5.02732 5.34914 5.02443 5.35137C5.02154 5.35361 5.0187 5.35591 5.01593 5.35829C5.01315 5.36066 5.01042 5.36311 5.00776 5.36562C5.00509 5.36815 5.00249 5.37074 4.99994 5.37338C4.99741 5.37604 4.99493 5.37875 4.99251 5.38154C4.9901 5.38432 4.98775 5.38716 4.98548 5.39007C4.9832 5.39296 4.98099 5.39591 4.97885 5.39893C4.97671 5.40194 4.97464 5.405 4.97263 5.40811C4.97064 5.41124 4.96871 5.41441 4.96686 5.41763C4.96502 5.42085 4.96325 5.42411 4.96156 5.42743C4.95986 5.43072 4.95825 5.43407 4.95671 5.43746C4.95516 5.44086 4.9537 5.44429 4.95233 5.44775C4.95096 5.45122 4.94967 5.45472 4.94846 5.45825C4.94725 5.46178 4.94612 5.46534 4.94507 5.46893C4.94402 5.47253 4.94306 5.47615 4.9422 5.47979C4.94133 5.48343 4.94054 5.48708 4.93984 5.49075C4.93913 5.49443 4.93852 5.49812 4.938 5.50184C4.93747 5.50554 4.93703 5.50926 4.93667 5.513C4.93633 5.51673 4.93606 5.52047 4.93588 5.52422C4.9357 5.52797 4.93561 5.53172 4.93561 5.53547L4.93624 11.0737C4.94127 11.1441 4.92106 11.2072 4.97142 11.2881C5.04738 11.4232 5.27518 11.4483 5.35604 11.2581L6.93563 7.61002L8.51639 11.2582C8.51768 11.2612 8.51902 11.2641 8.52041 11.267C8.52182 11.2699 8.52328 11.2727 8.52479 11.2756C8.52632 11.2784 8.52789 11.2812 8.52951 11.284C8.53114 11.2867 8.53283 11.2894 8.53458 11.2921C8.53632 11.2948 8.53812 11.2974 8.53997 11.3001C8.54181 11.3027 8.54372 11.3052 8.54568 11.3077C8.54762 11.3103 8.54962 11.3128 8.55167 11.3152C8.55374 11.3176 8.55585 11.32 8.55799 11.3223C8.56014 11.3247 8.56234 11.327 8.56459 11.3292C8.56684 11.3314 8.56913 11.3336 8.57146 11.3358C8.57378 11.3379 8.57616 11.34 8.57858 11.3421C8.58101 11.3441 8.58346 11.3461 8.58595 11.348C8.58845 11.3499 8.59099 11.3518 8.59356 11.3536C8.59614 11.3554 8.59875 11.3572 8.6014 11.3589C8.60405 11.3606 8.60673 11.3622 8.60944 11.3638C8.61216 11.3654 8.6149 11.3669 8.61769 11.3683C8.62046 11.3698 8.62326 11.3712 8.62609 11.3725C8.62892 11.3739 8.63178 11.3751 8.63467 11.3763C8.63754 11.3775 8.64045 11.3787 8.64338 11.3798C8.64632 11.3808 8.64927 11.3819 8.65223 11.3828C8.65521 11.3838 8.6582 11.3846 8.66119 11.3855C8.6642 11.3863 8.66723 11.387 8.67027 11.3877C8.67331 11.3884 8.67636 11.389 8.67941 11.3895C8.68248 11.3901 8.68556 11.3906 8.68864 11.391C8.69173 11.3914 8.69481 11.3917 8.6979 11.392C8.701 11.3923 8.7041 11.3925 8.70722 11.3926C8.71032 11.3928 8.71342 11.3928 8.71652 11.3928C8.71963 11.3928 8.72274 11.3928 8.72584 11.3926C8.72895 11.3925 8.73205 11.3923 8.73514 11.392C8.73824 11.3917 8.74133 11.3914 8.74441 11.391C8.7475 11.3905 8.75057 11.3901 8.75362 11.3895C8.75669 11.389 8.75975 11.3884 8.76279 11.3877C8.76581 11.387 8.76883 11.3862 8.77184 11.3854C8.77485 11.3846 8.77783 11.3837 8.7808 11.3828C8.78378 11.3818 8.78674 11.3808 8.78967 11.3797C8.79259 11.3786 8.7955 11.3775 8.79839 11.3763C8.80126 11.3751 8.80411 11.3738 8.80694 11.3725C8.80977 11.3711 8.81258 11.3698 8.81537 11.3683C8.81814 11.3668 8.82088 11.3653 8.82359 11.3637C8.8263 11.3621 8.82898 11.3605 8.83163 11.3588C8.83428 11.3571 8.83689 11.3554 8.83947 11.3535C8.84204 11.3517 8.84457 11.3499 8.84706 11.3479C8.84956 11.346 8.85202 11.344 8.85445 11.342C8.85686 11.3399 8.85923 11.3378 8.86157 11.3357C8.86391 11.3336 8.8662 11.3314 8.86844 11.3291C8.87067 11.3269 8.87287 11.3246 8.87502 11.3223C8.87718 11.3199 8.87928 11.3175 8.88133 11.3151C8.88339 11.3127 8.88538 11.3102 8.88733 11.3076C8.88929 11.3051 8.8912 11.3026 8.89304 11.3C8.89489 11.2974 8.89669 11.2947 8.89843 11.292C8.90016 11.2893 8.90185 11.2866 8.90348 11.2839C8.90511 11.2811 8.90669 11.2783 8.9082 11.2755C8.90971 11.2726 8.91117 11.2698 8.91258 11.2669C8.91397 11.264 8.91531 11.2611 8.9166 11.2581C8.91789 11.2552 8.91911 11.2522 8.92026 11.2492C8.92141 11.2462 8.92251 11.2431 8.92356 11.2401C8.92459 11.237 8.92557 11.2339 8.92648 11.2308C8.92739 11.2278 8.92824 11.2246 8.92902 11.2215C8.9298 11.2184 8.93052 11.2152 8.93118 11.212C8.93183 11.2089 8.93243 11.2057 8.93295 11.2025C8.93349 11.1993 8.93395 11.1961 8.93434 11.1929C8.93473 11.1897 8.93506 11.1864 8.93533 11.1832C8.9356 11.18 8.9358 11.1767 8.93594 11.1735C8.93607 11.1703 8.93614 11.167 8.93614 11.1638C8.93618 10.2701 8.93583 6.33394 8.93583 5.53547Z" fill="#14213D"/>
</svg>
