<svg width="24" height="24" viewBox="0 0 24 24" fill="none" xmlns="http://www.w3.org/2000/svg">
<g clip-path="url(#clip0_1_48)">
<path d="M17.4306 8.88995C15.712 8.88995 14.3137 10.2887 14.3137 12.0079C14.3137 13.7271 15.712 15.1258 17.4306 15.1258C19.1492 15.1258 20.5474 13.7271 20.5474 12.0079C20.5474 10.2887 19.1492 8.88995 17.4306 8.88995ZM17.4306 14.5502C16.0294 14.5502 14.8891 13.4095 14.8891 12.0079C14.8891 10.6063 16.0294 9.46557 17.4306 9.46557C18.8317 9.46557 19.972 10.6063 19.972 12.0079C19.972 13.4095 18.8317 14.5502 17.4306 14.5502Z" fill="#FCA311"/>
<path d="M17.4306 5.43622C14.5932 5.43622 12.0863 7.24847 11.1935 9.94526H1.17485C0.540445 9.94526 0.0240021 10.4619 0.0240021 11.0965V12.9193C0.0240021 13.5539 0.540445 14.0705 1.17485 14.0705H2.37365V15.6535C2.37365 16.2881 2.89009 16.8047 3.5245 16.8047H4.24378C4.87818 16.8047 5.39462 16.2881 5.39462 15.6535V14.0705H6.78523V14.5502C6.78523 15.1848 7.30167 15.7015 7.93608 15.7015H8.65536C9.28976 15.7015 9.8062 15.1848 9.8062 14.5502V14.0701H11.1925C12.0854 16.7678 14.5923 18.5796 17.4306 18.5796C21.0529 18.5796 24 15.6314 24 12.0079C24 8.38436 21.0529 5.43622 17.4306 5.43622ZM17.4306 18.004C14.8412 18.004 12.5539 16.35 11.7387 13.8873C11.66 13.6527 11.4409 13.4949 11.1935 13.4949H9.8062C9.48876 13.4949 9.23078 13.753 9.23078 14.0705V14.5502C9.23078 14.8678 8.9728 15.1258 8.65536 15.1258H7.93608C7.61864 15.1258 7.36065 14.8678 7.36065 14.5502V14.0705C7.36065 13.753 7.10267 13.4949 6.78523 13.4949H5.39462C5.07718 13.4949 4.8192 13.753 4.8192 14.0705V15.6535C4.8192 15.9711 4.56122 16.2291 4.24378 16.2291H3.5245C3.20705 16.2291 2.94907 15.9711 2.94907 15.6535V14.0705C2.94907 13.753 2.69109 13.4949 2.37365 13.4949H1.17485C0.857407 13.4949 0.599426 13.2369 0.599426 12.9193V11.0965C0.599426 10.7789 0.857407 10.5209 1.17485 10.5209H11.1935C11.4409 10.5209 11.66 10.3626 11.7391 10.1266C12.5543 7.66532 14.8416 6.01185 17.4306 6.01185C20.7354 6.01185 23.4246 8.70192 23.4246 12.0079C23.4246 15.3139 20.7354 18.004 17.4306 18.004ZM22.034 0.0157928C20.9498 0.0157928 20.0679 0.897932 20.0679 1.9825C20.0679 3.06706 20.9498 3.9492 22.034 3.9492C23.1182 3.9492 24 3.06706 24 1.9825C24 0.897932 23.1182 0.0157928 22.034 0.0157928ZM22.034 3.37358C21.2672 3.37358 20.6433 2.74951 20.6433 1.9825C20.6433 1.21548 21.2672 0.591414 22.034 0.591414C22.8007 0.591414 23.4246 1.21548 23.4246 1.9825C23.4246 2.74951 22.8007 3.37358 22.034 3.37358ZM10.2378 6.05981C10.2378 5.39833 9.70023 4.8606 9.03897 4.8606C8.37772 4.8606 7.84017 5.39833 7.84017 6.05981C7.84017 6.7213 8.37772 7.25903 9.03897 7.25903C9.70023 7.25903 10.2378 6.7213 10.2378 6.05981ZM8.4156 6.05981C8.4156 5.71588 8.69516 5.43622 9.03897 5.43622C9.38279 5.43622 9.66235 5.71588 9.66235 6.05981C9.66235 6.40375 9.38279 6.6834 9.03897 6.6834C8.69516 6.6834 8.4156 6.40375 8.4156 6.05981Z" fill="#FCA311"/>
<path d="M11.4845 6.05981C11.4845 4.71094 10.3874 3.61342 9.03898 3.61342C7.69057 3.61342 6.59343 4.71094 6.59343 6.05981C6.59343 7.40868 7.69057 8.5062 9.03898 8.5062C10.3874 8.5062 11.4845 7.40868 11.4845 6.05981ZM7.16886 6.05981C7.16886 5.02849 8.00802 4.18904 9.03898 4.18904C10.07 4.18904 10.9091 5.02849 10.9091 6.05981C10.9091 7.09113 10.07 7.93058 9.03898 7.93058C8.00802 7.93058 7.16886 7.09113 7.16886 6.05981ZM3.2368 21.1219H2.90113V20.7861C2.90113 20.3894 2.57842 20.0666 2.18185 20.0666H1.79824C1.40167 20.0666 1.07896 20.3894 1.07896 20.7861V21.1219H0.743293C0.34673 21.1219 0.0240136 21.4447 0.0240136 21.8414V22.2252C0.0240136 22.6219 0.34673 22.9447 0.743293 22.9447H1.07896V23.2805C1.07896 23.6772 1.40167 24 1.79824 24H2.18185C2.57842 24 2.90113 23.6772 2.90113 23.2805V22.9447H3.2368C3.63336 22.9447 3.95607 22.6219 3.95607 22.2252V21.8414C3.95607 21.4447 3.63336 21.1219 3.2368 21.1219ZM3.38065 22.2252C3.38065 22.3043 3.31592 22.3691 3.2368 22.3691H2.61342C2.4547 22.3691 2.32571 22.4981 2.32571 22.6569V23.2805C2.32571 23.3596 2.26097 23.4244 2.18185 23.4244H1.79824C1.71912 23.4244 1.65438 23.3596 1.65438 23.2805V22.6569C1.65438 22.4981 1.52539 22.3691 1.36667 22.3691H0.743293C0.664172 22.3691 0.599437 22.3043 0.599437 22.2252V21.8414C0.599437 21.7623 0.664172 21.6975 0.743293 21.6975H1.36667C1.52539 21.6975 1.65438 21.5685 1.65438 21.4097V20.7861C1.65438 20.707 1.71912 20.6422 1.79824 20.6422H2.18185C2.26097 20.6422 2.32571 20.707 2.32571 20.7861V21.4097C2.32571 21.5685 2.4547 21.6975 2.61342 21.6975H3.2368C3.31592 21.6975 3.38065 21.7623 3.38065 21.8414V22.2252ZM1.18973 3.96791C1.48127 4.72197 2.62781 4.74691 2.95196 4.00628L3.24878 3.38365L3.54561 4.00628C3.87024 4.74595 5.01677 4.72245 5.30784 3.96791L6.42081 1.34547C6.62892 0.854756 6.39923 0.28585 5.90868 0.0776674C5.43443 -0.135312 4.83408 0.107408 4.64131 0.58997L4.36702 1.2361L4.12151 0.721404C3.96183 0.387064 3.61945 0.170726 3.24878 0.170726C2.87811 0.170726 2.53574 0.387064 2.37606 0.721404L2.13054 1.2361L1.85626 0.58997C1.64815 0.0992532 1.07944 -0.130516 0.588888 0.0776674C0.0983392 0.28585 -0.131351 0.854756 0.0767607 1.34547L1.18973 3.96791ZM0.813782 0.607239C1.00751 0.523774 1.24247 0.613954 1.32687 0.814462L1.8505 2.04869C1.9373 2.27318 2.27872 2.28086 2.3751 2.0602L2.89538 0.968441C2.96011 0.83317 3.09869 0.745388 3.2483 0.745388C3.39791 0.745388 3.53697 0.83269 3.60123 0.968441L4.12151 2.0602C4.21837 2.28134 4.55931 2.27318 4.6461 2.04869L5.16974 0.814462C5.2479 0.619231 5.49102 0.520896 5.68283 0.607239C5.88135 0.691663 5.97437 0.921912 5.88998 1.1205L4.77701 3.74293C4.65857 4.04897 4.19536 4.05761 4.06397 3.75828L3.50772 2.59121C3.45977 2.49096 3.35907 2.42716 3.24782 2.42716C3.13658 2.42716 3.03588 2.49096 2.98792 2.59121L2.4312 3.75828C2.29933 4.05953 1.83612 4.04753 1.71816 3.74293L0.60663 1.1205C0.522234 0.921912 0.615261 0.691663 0.813782 0.607239ZM22.0153 18.6789C21.3305 18.476 20.5805 18.5685 19.8474 18.9475C19.106 19.3308 18.814 20.246 19.1971 20.9881L20.3226 23.1677C20.7071 23.9165 21.6355 24.1981 22.3624 23.8182C23.0956 23.4392 23.6054 22.8814 23.836 22.205C24.0681 21.5243 23.9971 20.789 23.6298 20.0781C23.2625 19.3672 22.7043 18.8832 22.0153 18.6789ZM22.0982 23.3064C21.6384 23.5438 21.0711 23.363 20.8337 22.903L19.7083 20.7233C19.4709 20.2633 19.6517 19.6958 20.1116 19.4584C20.6951 19.1629 21.2605 19.0621 21.8518 19.23C22.3874 19.3888 22.8252 19.773 23.1186 20.3414C23.7219 21.51 23.3215 22.6737 22.0982 23.3059V23.3064Z" fill="#FCA311"/>
<path d="M20.7834 19.8809C20.441 19.9807 20.2674 20.4076 20.4386 20.7194L21.26 22.3105C21.4159 22.6305 21.8599 22.7331 22.1433 22.5144C22.7624 22.0366 22.9125 21.3608 22.5408 20.6408C22.1692 19.9208 21.5286 19.6435 20.7834 19.8809ZM21.7971 22.0549C21.7918 22.0606 21.7746 22.0554 21.7717 22.0462L20.9503 20.4551C20.9445 20.4475 20.9503 20.4302 20.9584 20.4292C21.0759 20.3918 21.1857 20.3731 21.2883 20.3731C21.6019 20.3731 21.8465 20.5491 22.0306 20.9051C22.2742 21.3771 22.1984 21.7532 21.798 22.0549H21.7971ZM11.4865 17.3036C11.4817 17.3017 11.4764 17.2998 11.4711 17.2978L10.4123 16.9376C9.64606 16.6407 8.65441 17.129 8.42233 17.9176L7.3295 21.083C7.16502 21.567 7.42492 22.0947 7.90684 22.2587C8.37054 22.43 8.93877 22.1537 9.08454 21.6802L9.12674 21.5565L10.0326 22.8027C10.3169 23.2114 10.9293 23.3092 11.3273 23.0075C11.7406 22.7068 11.8322 22.1259 11.532 21.7124L11.0894 21.1032C11.7468 21.0173 12.2997 20.5746 12.5793 19.8699C12.8809 19.1096 12.7414 17.8111 11.4874 17.3036H11.4865ZM12.0437 19.6574C11.7775 20.328 11.2251 20.648 10.5672 20.5132C10.3193 20.4537 10.1203 20.7631 10.2771 20.9646L11.0664 22.0506C11.1805 22.2074 11.1455 22.4276 10.9882 22.5418C10.8386 22.6559 10.6051 22.6185 10.4977 22.464L9.26532 20.7688C9.13729 20.5813 8.82608 20.6293 8.76039 20.8456L8.53933 21.496C8.48418 21.674 8.2684 21.7786 8.09385 21.7143C7.9102 21.6519 7.8119 21.4519 7.87375 21.2696L8.96754 18.1023C9.10564 17.6096 9.74964 17.2921 10.2244 17.482L11.2779 17.8404C12.2091 18.2222 12.2422 19.1566 12.0432 19.6574H12.0437Z" fill="#FCA311"/>
<path d="M11.017 18.5086L10.0915 18.1939C9.87335 18.1143 9.61441 18.2423 9.54392 18.4635L9.33916 19.0664C9.26244 19.2919 9.38328 19.5375 9.60866 19.6142L10.5341 19.9289C10.9187 20.0637 11.3373 19.8661 11.474 19.4564C11.6116 19.0516 11.415 18.6438 11.017 18.5086ZM10.8698 19.3638C10.8425 19.3878 10.8007 19.4118 10.7197 19.384L9.93041 19.1154L10.0426 18.7849L10.8319 19.0535C10.9134 19.0813 10.9316 19.1254 10.9388 19.1609C10.9527 19.23 10.923 19.3173 10.8698 19.3638Z" fill="#FCA311"/>
</g>
<defs>
<clipPath id="clip0_1_48">
<rect width="24" height="24" fill="white"/>
</clipPath>
</defs>
</svg>
