<svg width="24" height="24" viewBox="0 0 24 24" fill="none" xmlns="http://www.w3.org/2000/svg">
<path d="M22.0151 13.9849L20.8901 12.8599C20.8198 12.7896 20.7246 12.75 20.625 12.75H13.125C12.9177 12.75 12.75 12.9179 12.75 13.125V20.625C12.75 20.7244 12.7896 20.8198 12.8599 20.8901L13.9849 22.0151C14.0581 22.0884 14.1541 22.125 14.25 22.125C14.3459 22.125 14.4419 22.0884 14.5151 22.0151L22.0151 14.5151C22.1616 14.3687 22.1616 14.1313 22.0151 13.9849Z" fill="#FFC565"/>
<path d="M20.8901 12.8599C20.8198 12.7896 20.7246 12.75 20.625 12.75H13.125C12.9884 12.75 12.8743 12.8266 12.8087 12.9356C12.8248 12.9629 12.8373 12.9926 12.8599 13.0151L13.9849 14.1401C14.0552 14.2104 14.1504 14.25 14.25 14.25H22.125C22.125 14.1541 22.0884 14.0581 22.0151 13.9849L20.8901 12.8599Z" fill="#FFB843"/>
<path d="M21.75 13.875H14.25C14.0427 13.875 13.875 14.0429 13.875 14.25V21.75C13.875 21.9571 14.0427 22.125 14.25 22.125H21.75C21.9573 22.125 22.125 21.9571 22.125 21.75V14.25C22.125 14.0429 21.9573 13.875 21.75 13.875Z" fill="#FFD591"/>
<path d="M18 20.625H15.75C15.5427 20.625 15.375 20.4571 15.375 20.25V15.75C15.375 15.5429 15.5427 15.375 15.75 15.375H18C19.4473 15.375 20.625 16.5526 20.625 18C20.625 19.4474 19.4473 20.625 18 20.625ZM16.125 19.875H18C19.0338 19.875 19.875 19.0338 19.875 18C19.875 16.9662 19.0338 16.125 18 16.125H16.125V19.875Z" fill="#14213D"/>
<path d="M19.3901 3.10986L18.2651 1.98486C18.1948 1.91455 18.0996 1.875 18 1.875H10.5C10.2927 1.875 10.125 2.04291 10.125 2.25V9.75C10.125 9.84943 10.1646 9.94482 10.2349 10.0151L11.3599 11.1401C11.4331 11.2134 11.5291 11.25 11.625 11.25C11.7209 11.25 11.8169 11.2134 11.8901 11.1401L19.3901 3.64014C19.5366 3.49365 19.5366 3.25635 19.3901 3.10986Z" fill="#FFAD26"/>
<path d="M18.2651 1.98486C18.1948 1.91455 18.0996 1.875 18 1.875H10.5C10.3634 1.875 10.2493 1.95163 10.1837 2.0606C10.1998 2.08793 10.2123 2.11759 10.2349 2.14014L11.3599 3.26514C11.4302 3.33545 11.5254 3.375 11.625 3.375H19.5C19.5 3.27905 19.4634 3.18311 19.3901 3.10986L18.2651 1.98486Z" fill="#FFB843"/>
<path d="M19.125 3H11.625C11.4177 3 11.25 3.16791 11.25 3.375V10.875C11.25 11.0821 11.4177 11.25 11.625 11.25H19.125C19.3323 11.25 19.5 11.0821 19.5 10.875V3.375C19.5 3.16791 19.3323 3 19.125 3Z" fill="#FFCF80"/>
<path d="M12.75 7.125C12.8733 10.5995 17.8774 10.5981 18 7.12495C17.8762 3.65249 12.8738 3.65249 12.75 7.125ZM15.375 9C12.8963 8.92124 12.8963 5.32876 15.375 5.25C17.8537 5.32876 17.8537 8.92124 15.375 9Z" fill="#14213D"/>
<path d="M11.1401 10.9849L10.0151 9.85986C9.94482 9.78955 9.84961 9.75 9.75 9.75H2.25C2.04272 9.75 1.875 9.91791 1.875 10.125V17.625C1.875 17.7244 1.91455 17.8198 1.98486 17.8901L3.10986 19.0151C3.18311 19.0884 3.27905 19.125 3.375 19.125C3.47095 19.125 3.56689 19.0884 3.64014 19.0151L11.1401 11.5151C11.2866 11.3687 11.2866 11.1313 11.1401 10.9849Z" fill="#FFAD26"/>
<path d="M10.0151 9.85986C9.94482 9.78955 9.84961 9.75 9.75 9.75H2.25C2.11343 9.75 1.99928 9.82663 1.93373 9.9356C1.9498 9.96293 1.96232 9.99259 1.98486 10.0151L3.10986 11.1401C3.18018 11.2104 3.27539 11.25 3.375 11.25H11.25C11.25 11.1541 11.2134 11.0581 11.1401 10.9849L10.0151 9.85986Z" fill="#FFB843"/>
<path d="M10.875 10.875H3.375C3.16772 10.875 3 11.0429 3 11.25V18.75C3 18.9571 3.16772 19.125 3.375 19.125H10.875C11.0823 19.125 11.25 18.9571 11.25 18.75V11.25C11.25 11.0429 11.0823 10.875 10.875 10.875Z" fill="#FFCF80"/>
<path d="M9.69749 17.0512L8.91 15.7088C9.38999 15.5812 9.75 15.1463 9.75 14.625V13.5C9.75 12.8812 9.24376 12.375 8.625 12.375H4.875C4.66875 12.375 4.5 12.5438 4.5 12.75V17.25C4.50381 17.7388 5.24625 17.7413 5.25 17.25L5.25 15.75H8.0625L9.05251 17.43C9.30375 17.8537 9.94501 17.4712 9.69749 17.0512ZM8.41875 15H5.25V13.125H8.625C8.83125 13.125 9 13.2938 9 13.5V14.625C8.98501 14.9588 8.7 15.0263 8.41875 15Z" fill="#14213D"/>
<path d="M11.1401 3.10986L10.0151 1.98486C9.94482 1.91455 9.84961 1.875 9.75 1.875H2.25C2.04272 1.875 1.875 2.04291 1.875 2.25V9.75C1.875 9.84943 1.91455 9.94482 1.98486 10.0151L3.10986 11.1401C3.18311 11.2134 3.27905 11.25 3.375 11.25C3.47095 11.25 3.56689 11.2134 3.64014 11.1401L11.1401 3.64014C11.2866 3.49365 11.2866 3.25635 11.1401 3.10986Z" fill="#FFC565"/>
<path d="M10.0151 1.98486C9.94482 1.91455 9.84961 1.875 9.75 1.875H2.25C2.11343 1.875 1.99928 1.95163 1.93373 2.0606C1.9498 2.08793 1.96232 2.11759 1.98486 2.14014L3.10986 3.26514C3.18018 3.33545 3.27539 3.375 3.375 3.375H11.25C11.25 3.27905 11.2134 3.18311 11.1401 3.10986L10.0151 1.98486Z" fill="#FFB843"/>
<path d="M10.875 3H3.375C3.16772 3 3 3.16791 3 3.375V10.875C3 11.0821 3.16772 11.25 3.375 11.25H10.875C11.0823 11.25 11.25 11.0821 11.25 10.875V3.375C11.25 3.16791 11.0823 3 10.875 3Z" fill="#FFD591"/>
<path d="M9.375 4.5C9.16791 4.5 9 4.66791 9 4.875V8.46442L7.39288 6.8584C7.2464 6.71228 7.00909 6.71228 6.86261 6.8584L5.25 8.47009V4.875C5.24823 4.38634 4.50211 4.3833 4.5 4.87503L4.5 9.375C4.5 9.52661 4.59137 9.66339 4.73145 9.72144C4.87012 9.77917 5.03243 9.74796 5.14014 9.64032L7.12775 7.65381L9.10986 9.63464C9.33221 9.87073 9.76057 9.69362 9.74999 9.36931L9.75 4.875C9.75 4.66791 9.58209 4.5 9.375 4.5Z" fill="#14213D"/>
</svg>
