<svg width="24" height="24" viewBox="0 0 24 24" fill="none" xmlns="http://www.w3.org/2000/svg">
<path d="M9.00824 14.0714H7.32105C6.86185 14.0714 6.48959 13.6992 6.48959 13.24V11.5528C6.48959 11.0936 6.86185 10.7213 7.32105 10.7213H9.00824C9.46744 10.7213 9.8397 11.0936 9.8397 11.5528V13.24C9.8397 13.6992 9.46744 14.0714 9.00824 14.0714ZM13.2837 14.0714H11.6853C11.2503 14.0714 10.8976 13.7188 10.8976 13.2837V11.6853C10.8976 11.2503 11.2503 10.8976 11.6853 10.8976H13.2837C13.7187 10.8976 14.0714 11.2503 14.0714 11.6853V13.2837C14.0714 13.7188 13.7187 14.0714 13.2837 14.0714ZM17.463 14.0714H15.7958C15.3319 14.0714 14.9558 13.6953 14.9558 13.2314V11.4888C14.9558 11.0249 15.3319 10.6487 15.7958 10.6487H17.463C17.927 10.6487 18.3031 11.0249 18.3031 11.4888V13.2314C18.3031 13.6953 17.927 14.0714 17.463 14.0714ZM21.6939 14.0714H20.0395C19.575 14.0714 19.1985 13.6949 19.1985 13.2305V11.4714C19.1985 11.007 19.575 10.6305 20.0395 10.6305H21.6939C22.1583 10.6305 22.5348 11.007 22.5348 11.4714V13.2305C22.5348 13.6949 22.1583 14.0714 21.6939 14.0714Z" fill="#F7C065"/>
<path d="M11.9556 13.0135C11.275 13.0135 10.7213 12.4598 10.7213 11.7792C10.7213 11.0987 11.275 10.545 11.9556 10.545C12.636 10.545 13.1897 11.0987 13.1897 11.7792C13.1897 12.4598 12.636 13.0135 11.9556 13.0135ZM11.9556 10.8976C11.4694 10.8976 11.0739 11.293 11.0739 11.7792C11.0739 12.2653 11.4694 12.6609 11.9556 12.6609C12.4418 12.6609 12.8372 12.2653 12.8372 11.7792C12.8372 11.293 12.4418 10.8976 11.9556 10.8976ZM20.2414 13.1897H19.7963C19.7271 13.1897 19.6643 13.1642 19.6148 13.1157C19.5651 13.0677 19.5373 13.0019 19.5373 12.9315V10.9797C19.5373 10.9097 19.5649 10.8441 19.6148 10.7953C19.6643 10.7469 19.7271 10.7213 19.7963 10.7213H20.2414C20.5864 10.7213 20.8851 10.8429 21.1294 11.0825C21.3752 11.3216 21.5002 11.6157 21.5002 11.9556C21.5002 12.2954 21.3754 12.5896 21.1291 12.8302C20.8849 13.0687 20.5862 13.1897 20.2414 13.1897ZM19.8899 12.8372H20.2414C20.4943 12.8372 20.7041 12.7524 20.8827 12.5781C21.061 12.4038 21.1476 12.2003 21.1476 11.9556C21.1476 11.7111 21.061 11.508 20.8829 11.3348C20.7039 11.159 20.4942 11.0739 20.2414 11.0739H19.8899V12.8372H19.8899ZM15.482 13.1897C15.3846 13.1897 15.3058 13.1109 15.3058 13.0135V10.8976C15.3058 10.8002 15.3846 10.7213 15.482 10.7213H16.3183C16.7039 10.7213 17.0394 10.9682 17.1339 11.3216C17.231 11.6857 17.0749 12.0381 16.7621 12.2162L17.1625 12.8925C17.2121 12.9764 17.1843 13.0844 17.1006 13.1341C17.0163 13.1833 16.9085 13.1559 16.8589 13.0722L16.4068 12.3082H15.6583V13.0135C15.6583 13.1109 15.5795 13.1897 15.482 13.1897ZM15.6583 11.9556H16.4803C16.6875 11.8915 16.8694 11.6981 16.7932 11.4126C16.7407 11.2165 16.541 11.0739 16.3183 11.0739H15.6583V11.9556ZM7.01867 13.0135C7.01201 13.0135 7.00526 13.0131 6.9986 13.0124C6.92846 13.0043 6.86994 12.9553 6.84969 12.8878L6.32068 11.1247C6.29268 11.0314 6.34562 10.9331 6.43889 10.9052C6.53225 10.8776 6.63038 10.9298 6.65846 11.0235L7.06936 12.393L7.57082 11.5154C7.61925 11.4309 7.72693 11.4014 7.81138 11.4498C7.89583 11.4981 7.92536 11.6058 7.87693 11.6904L7.17164 12.9247C7.14012 12.98 7.08133 13.0135 7.01867 13.0135Z" fill="#14213D"/>
<path d="M8.42917 13.0135C8.36632 13.0135 8.30763 12.98 8.27612 12.9247L7.57083 11.6904C7.52239 11.6058 7.55192 11.4981 7.63637 11.4498C7.72081 11.4014 7.82849 11.4309 7.87693 11.5154L8.37838 12.393L8.78927 11.0235C8.81718 10.9302 8.91586 10.8772 9.00877 10.9052C9.10203 10.9331 9.15498 11.0314 9.12706 11.1246L8.59805 12.8878C8.5777 12.9553 8.51918 13.0043 8.44914 13.0124C8.44249 13.0131 8.43583 13.0135 8.42917 13.0135Z" fill="#14213D"/>
<path d="M4.76995 18.3031H3.06941C2.60657 18.3031 2.23136 17.9279 2.23136 17.4651V15.7646C2.23136 15.3017 2.60657 14.9265 3.06941 14.9265H4.76995C5.23279 14.9265 5.60799 15.3017 5.60799 15.7646V17.4651C5.60799 17.9279 5.23278 18.3031 4.76995 18.3031Z" fill="#FFC566"/>
<path d="M8.78947 14.2477H6.65829C5.9819 14.2477 5.43173 13.6975 5.43173 13.0212V10.89C5.43173 10.2137 5.9819 9.66345 6.65829 9.66345H8.78947C9.46576 9.66345 10.016 10.2137 10.016 10.89V13.0212C10.016 13.6975 9.46576 14.2477 8.78947 14.2477ZM6.65829 10.016C6.17636 10.016 5.78429 10.4082 5.78429 10.89V13.0212C5.78429 13.503 6.17636 13.8952 6.65829 13.8952H8.78947C9.2713 13.8952 9.66347 13.503 9.66347 13.0212V10.89C9.66347 10.4082 9.27131 10.016 8.78947 10.016H6.65829Z" fill="#14213D"/>
<path d="M13.0212 14.2477H10.89C10.2137 14.2477 9.66347 13.6975 9.66347 13.0212V10.89C9.66347 10.2137 10.2137 9.66345 10.89 9.66345H13.0212C13.6975 9.66345 14.2478 10.2137 14.2478 10.89V13.0212C14.2478 13.6975 13.6975 14.2477 13.0212 14.2477ZM10.89 10.016C10.4082 10.016 10.016 10.4082 10.016 10.89V13.0212C10.016 13.503 10.4082 13.8952 10.89 13.8952H13.0212C13.503 13.8952 13.8952 13.503 13.8952 13.0212V10.89C13.8952 10.4082 13.503 10.016 13.0212 10.016H10.89Z" fill="#14213D"/>
<path d="M17.2529 14.2477H15.1216C14.4453 14.2477 13.8952 13.6975 13.8952 13.0212V10.89C13.8952 10.2137 14.4453 9.66345 15.1216 9.66345H17.2529C17.9292 9.66345 18.4793 10.2137 18.4793 10.89V13.0212C18.4793 13.6975 17.9292 14.2477 17.2529 14.2477ZM15.1216 10.016C14.6397 10.016 14.2478 10.4082 14.2478 10.89V13.0212C14.2478 13.503 14.6397 13.8952 15.1216 13.8952H17.2529C17.7348 13.8952 18.1268 13.503 18.1268 13.0212V10.89C18.1268 10.4082 17.7348 10.016 17.2529 10.016H15.1216Z" fill="#14213D"/>
<path d="M21.4845 14.2477H19.3533C18.677 14.2477 18.1268 13.6975 18.1268 13.0212V10.89C18.1268 10.2137 18.677 9.66345 19.3533 9.66345H21.4845C22.1608 9.66345 22.711 10.2137 22.711 10.89V13.0212C22.711 13.6975 22.1608 14.2477 21.4845 14.2477ZM19.3533 10.016C18.8715 10.016 18.4793 10.4082 18.4793 10.89V13.0212C18.4793 13.503 18.8715 13.8952 19.3533 13.8952H21.4845C21.9663 13.8952 22.3585 13.503 22.3585 13.0212V10.89C22.3585 10.4082 21.9663 10.016 21.4845 10.016H19.3533Z" fill="#14213D"/>
<path d="M13.2273 9.8397H11.5145C11.0484 9.8397 10.6705 9.4618 10.6705 8.99563V7.28284C10.6705 6.81667 11.0484 6.43877 11.5145 6.43877H13.2273C13.6935 6.43877 14.0714 6.81667 14.0714 7.28284V8.99563C14.0714 9.4618 13.6935 9.8397 13.2273 9.8397Z" fill="#FCA311"/>
<path d="M13.2273 5.60802H11.5145C11.0484 5.60802 10.6705 5.23012 10.6705 4.76395V3.05116C10.6705 2.58499 11.0484 2.20709 11.5145 2.20709H13.2273C13.6935 2.20709 14.0714 2.585 14.0714 3.05116V4.76395C14.0714 5.23011 13.6935 5.60802 13.2273 5.60802ZM17.4655 9.83973H15.8117C15.349 9.83973 14.974 9.4647 14.974 9.00209V7.25578C14.974 6.79317 15.349 6.41814 15.8117 6.41814H17.4655C17.9281 6.41814 18.3031 6.79317 18.3031 7.25578V9.00209C18.3031 9.4647 17.9281 9.83973 17.4655 9.83973Z" fill="#FCC56C"/>
<path d="M21.6963 9.83971H20.0371C19.574 9.83971 19.1985 9.46428 19.1985 9.00117V7.25667C19.1985 6.79355 19.574 6.41812 20.0371 6.41812H21.6963C22.1594 6.41812 22.5348 6.79355 22.5348 7.25667V9.00117C22.5348 9.46428 22.1594 9.83971 21.6963 9.83971ZM8.99915 18.3031H7.33014C6.86592 18.3031 6.48959 17.9268 6.48959 17.4626V15.7199C6.48959 15.2557 6.86592 14.8793 7.33014 14.8793H8.99915C9.46337 14.8793 9.8397 15.2557 9.8397 15.7199V17.4626C9.8397 17.9268 9.46337 18.3031 8.99915 18.3031Z" fill="#FCA311"/>
<path d="M9.00824 22.5348H7.32105C6.86185 22.5348 6.48959 22.1626 6.48959 21.7034V20.0162C6.48959 19.557 6.86185 19.1847 7.32105 19.1847H9.00824C9.46744 19.1847 9.8397 19.557 9.8397 20.0162V21.7034C9.8397 22.1626 9.46744 22.5348 9.00824 22.5348Z" fill="#FFC566"/>
<path d="M13.2273 22.5348H11.5145C11.0484 22.5348 10.6705 22.1569 10.6705 21.6908V19.978C10.6705 19.5118 11.0484 19.1339 11.5145 19.1339H13.2273C13.6935 19.1339 14.0714 19.5118 14.0714 19.978V21.6908C14.0714 22.1569 13.6935 22.5348 13.2273 22.5348Z" fill="#FCC56C"/>
<path d="M13.0212 5.7843H10.89C10.2137 5.7843 9.66347 5.23412 9.66347 4.55774V2.42657C9.66347 1.75018 10.2137 1.20001 10.89 1.20001H13.0212C13.6975 1.20001 14.2478 1.75018 14.2478 2.42657V4.55774C14.2478 5.23412 13.6975 5.7843 13.0212 5.7843ZM10.89 1.55256C10.4082 1.55256 10.016 1.94464 10.016 2.42657V4.55774C10.016 5.03966 10.4082 5.43175 10.89 5.43175H13.0212C13.503 5.43175 13.8952 5.03966 13.8952 4.55774V2.42657C13.8952 1.94464 13.503 1.55256 13.0212 1.55256H10.89ZM17.2529 10.016H15.1216C14.4453 10.016 13.8952 9.46577 13.8952 8.78948V6.6583C13.8952 5.982 14.4453 5.43175 15.1216 5.43175H17.2529C17.9292 5.43175 18.4793 5.98201 18.4793 6.6583V8.78948C18.4793 9.46577 17.9292 10.016 17.2529 10.016ZM15.1216 5.7843C14.6397 5.7843 14.2478 6.17647 14.2478 6.6583V8.78948C14.2478 9.27131 14.6397 9.66348 15.1216 9.66348H17.2529C17.7348 9.66348 18.1268 9.27131 18.1268 8.78948V6.6583C18.1268 6.17647 17.7348 5.7843 17.2529 5.7843H15.1216ZM13.0212 22.7111H10.89C10.2137 22.7111 9.66347 22.1608 9.66347 21.4845V19.3533C9.66347 18.677 10.2137 18.1268 10.89 18.1268H13.0212C13.6975 18.1268 14.2478 18.677 14.2478 19.3533V21.4845C14.2478 22.1608 13.6975 22.7111 13.0212 22.7111ZM10.89 18.4793C10.4082 18.4793 10.016 18.8715 10.016 19.3533V21.4845C10.016 21.9663 10.4082 22.3585 10.89 22.3585H13.0212C13.503 22.3585 13.8952 21.9663 13.8952 21.4845V19.3533C13.8952 18.8715 13.503 18.4793 13.0212 18.4793H10.89Z" fill="#14213D"/>
<path d="M13.2334 18.3031H11.5328C11.07 18.3031 10.6948 17.9279 10.6948 17.4651V15.7646C10.6948 15.3017 11.07 14.9265 11.5328 14.9265H13.2334C13.6962 14.9265 14.0714 15.3017 14.0714 15.7646V17.4651C14.0714 17.9279 13.6962 18.3031 13.2334 18.3031Z" fill="#FFC566"/>
<path d="M17.4629 18.3031H15.796C15.332 18.3031 14.9558 17.927 14.9558 17.4629V15.7196C14.9558 15.2555 15.332 14.8794 15.796 14.8794H17.4629C17.927 14.8794 18.3031 15.2555 18.3031 15.7196V17.4629C18.3031 17.927 17.927 18.3031 17.4629 18.3031ZM4.77344 7.41307L3.82839 6.46804C3.46486 6.1045 3.46486 5.51509 3.82839 5.15155L5.50418 3.47576C5.86772 3.11223 6.45713 3.11223 6.82066 3.47576L7.7657 4.4208C8.12924 4.78434 8.12924 5.37375 7.7657 5.73728L6.08992 7.41307C5.72638 7.77661 5.13697 7.77661 4.77344 7.41307Z" fill="#FCA311"/>
<path d="M13.0212 10.016H10.89C10.2137 10.016 9.66347 9.46577 9.66347 8.78948V6.65831C9.66347 5.982 10.2137 5.43175 10.89 5.43175H13.0212C13.6975 5.43175 14.2478 5.98201 14.2478 6.65831V8.78948C14.2478 9.46577 13.6975 10.016 13.0212 10.016ZM10.89 5.7843C10.4082 5.7843 10.016 6.17647 10.016 6.65831V8.78948C10.016 9.27132 10.4082 9.66349 10.89 9.66349H13.0212C13.503 9.66349 13.8952 9.27132 13.8952 8.78948V6.65831C13.8952 6.17647 13.503 5.7843 13.0212 5.7843H10.89ZM21.4845 10.016H19.3533C18.677 10.016 18.1268 9.46577 18.1268 8.78948V6.65831C18.1268 5.982 18.677 5.43175 19.3533 5.43175H21.4845C22.1608 5.43175 22.711 5.98201 22.711 6.65831V8.78948C22.711 9.46577 22.1608 10.016 21.4845 10.016ZM19.3533 5.7843C18.8715 5.7843 18.4793 6.17647 18.4793 6.65831V8.78948C18.4793 9.27132 18.8715 9.66349 19.3533 9.66349H21.4845C21.9663 9.66349 22.3585 9.27132 22.3585 8.78948V6.65831C22.3585 6.17647 21.9663 5.7843 21.4845 5.7843H19.3533ZM8.78947 18.4793H6.65829C5.9819 18.4793 5.43173 17.9292 5.43173 17.2529V15.1218C5.43173 14.4455 5.9819 13.8952 6.65829 13.8952H8.78947C9.46576 13.8952 10.016 14.4455 10.016 15.1218V17.2529C10.016 17.9292 9.46576 18.4793 8.78947 18.4793ZM6.65829 14.2478C6.17636 14.2478 5.78429 14.6399 5.78429 15.1218V17.2529C5.78429 17.7348 6.17636 18.1268 6.65829 18.1268H8.78947C9.2713 18.1268 9.66347 17.7348 9.66347 17.2529V15.1218C9.66347 14.6399 9.27131 14.2478 8.78947 14.2478H6.65829ZM17.2529 18.4793H15.1216C14.4453 18.4793 13.8952 17.9292 13.8952 17.2529V15.1218C13.8952 14.4455 14.4453 13.8952 15.1216 13.8952H17.2529C17.9292 13.8952 18.4793 14.4455 18.4793 15.1218V17.2529C18.4793 17.9292 17.9292 18.4793 17.2529 18.4793ZM15.1216 14.2478C14.6397 14.2478 14.2478 14.6399 14.2478 15.1218V17.2529C14.2478 17.7348 14.6397 18.1268 15.1216 18.1268H17.2529C17.7348 18.1268 18.1268 17.7348 18.1268 17.2529V15.1218C18.1268 14.6399 17.7348 14.2478 17.2529 14.2478H15.1216ZM5.43165 7.81265C5.10403 7.81265 4.79604 7.685 4.56431 7.45326L3.0574 5.94635C2.82575 5.7147 2.69818 5.40671 2.69818 5.07901C2.69818 4.75139 2.82575 4.44341 3.0574 4.21175L4.56431 2.70476C4.79604 2.47311 5.10402 2.34554 5.43165 2.34554C5.75926 2.34554 6.06726 2.47311 6.29899 2.70476L7.80581 4.21175C8.03755 4.4434 8.16521 4.75139 8.16521 5.07901C8.16521 5.40672 8.03755 5.7147 7.80581 5.94635L6.29899 7.45326C6.06725 7.685 5.75925 7.81265 5.43165 7.81265ZM4.81368 7.20406C5.15435 7.54473 5.70893 7.54473 6.0496 7.20406L7.5566 5.69697C7.72153 5.53195 7.81246 5.31245 7.81246 5.07901C7.81246 4.84566 7.72153 4.62616 7.5566 4.46114L6.0496 2.95414C5.70893 2.61347 5.15453 2.61329 4.81368 2.95414L3.30677 4.46114C3.14165 4.62616 3.05072 4.84566 3.05072 5.07901C3.05072 5.31245 3.14165 5.53195 3.30677 5.69697L4.81368 7.20406Z" fill="#14213D"/>
<path d="M22.4093 20.7156L20.7156 22.4093C20.357 22.7679 19.7756 22.7679 19.4171 22.4093L18.5398 21.5321C18.1813 21.1736 18.1813 20.5922 18.5398 20.2336L20.2336 18.5399C20.5921 18.1813 21.1735 18.1813 21.5321 18.5399L22.4093 19.4171C22.7679 19.7757 22.7679 20.357 22.4093 20.7156Z" fill="#FFC566"/>
<path d="M4.55773 18.4793H2.42656C1.75017 18.4793 1.2 17.9292 1.2 17.2529V15.1218C1.2 14.4455 1.75017 13.8952 2.42656 13.8952H4.55773C5.23412 13.8952 5.78429 14.4455 5.78429 15.1218V17.2529C5.78429 17.9292 5.23411 18.4793 4.55773 18.4793ZM2.42655 14.2478C1.94462 14.2478 1.55255 14.6399 1.55255 15.1218V17.2529C1.55255 17.7348 1.94462 18.1268 2.42655 18.1268H4.55772C5.03965 18.1268 5.43173 17.7348 5.43173 17.2529V15.1218C5.43173 14.6399 5.03965 14.2478 4.55772 14.2478H2.42655ZM8.78947 22.711H6.65829C5.9819 22.711 5.43173 22.1608 5.43173 21.4845V19.3533C5.43173 18.677 5.9819 18.1268 6.65829 18.1268H8.78947C9.46576 18.1268 10.016 18.677 10.016 19.3533V21.4845C10.016 22.1608 9.46576 22.711 8.78947 22.711ZM6.65829 18.4793C6.17636 18.4793 5.78429 18.8715 5.78429 19.3533V21.4845C5.78429 21.9663 6.17636 22.3585 6.65829 22.3585H8.78947C9.2713 22.3585 9.66347 21.9663 9.66347 21.4845V19.3533C9.66347 18.8715 9.27131 18.4793 8.78947 18.4793H6.65829ZM13.0212 18.4793H10.89C10.2137 18.4793 9.66347 17.9292 9.66347 17.2529V15.1218C9.66347 14.4455 10.2137 13.8952 10.89 13.8952H13.0212C13.6975 13.8952 14.2478 14.4455 14.2478 15.1218V17.2529C14.2478 17.9292 13.6975 18.4793 13.0212 18.4793ZM10.89 14.2478C10.4082 14.2478 10.016 14.6399 10.016 15.1218V17.2529C10.016 17.7348 10.4082 18.1268 10.89 18.1268H13.0212C13.503 18.1268 13.8952 17.7348 13.8952 17.2529V15.1218C13.8952 14.6399 13.503 14.2478 13.0212 14.2478H10.89ZM20.0662 22.8C19.7386 22.8 19.4306 22.6723 19.199 22.4406L17.6921 20.9335C17.4604 20.702 17.3327 20.3941 17.3327 20.0664C17.3327 19.7386 17.4604 19.4306 17.6921 19.199L19.199 17.6921C19.4306 17.4604 19.7386 17.3327 20.0662 17.3327C20.3939 17.3327 20.702 17.4604 20.9335 17.6921L22.4406 19.199C22.6723 19.4306 22.8 19.7386 22.8 20.0664C22.8 20.3941 22.6723 20.702 22.4406 20.9335L20.9335 22.4406C20.702 22.6723 20.3939 22.8 20.0662 22.8ZM20.0662 17.6858C19.8425 17.6858 19.6187 17.771 19.4482 17.9413L17.9413 19.4482C17.7764 19.6133 17.6854 19.8328 17.6854 20.0663C17.6854 20.2997 17.7764 20.5192 17.9413 20.6841L19.4482 22.1914C19.7894 22.5323 20.3435 22.5317 20.6843 22.1914L22.1914 20.6843V20.6841C22.3563 20.5192 22.4473 20.2997 22.4473 20.0664C22.4473 19.8328 22.3563 19.6133 22.1914 19.4482L20.6843 17.9413C20.5138 17.771 20.29 17.6858 20.0662 17.6858Z" fill="#14213D"/>
<path d="M20.0293 21.1741C19.9599 21.1741 19.8942 21.133 19.8663 21.065L19.1391 19.2988C19.1119 19.2329 19.127 19.1572 19.1774 19.107C19.2278 19.0566 19.3034 19.0415 19.3692 19.0686L21.1354 19.7959C21.2254 19.8328 21.2682 19.936 21.2311 20.026C21.1941 20.1162 21.0905 20.1593 21.001 20.1218L19.6261 19.5557L20.1922 20.9306C20.2293 21.0207 20.1864 21.1238 20.0964 21.1607C20.0745 21.1699 20.0518 21.1741 20.0293 21.1741Z" fill="#14213D"/>
<path d="M19.7682 20.5408C19.723 20.5408 19.678 20.5237 19.6436 20.4891C19.5746 20.4203 19.5746 20.3087 19.6436 20.2399L20.3109 19.5726C20.3797 19.5035 20.4913 19.5035 20.5601 19.5726C20.629 19.6414 20.629 19.753 20.5601 19.8218L19.8928 20.4891C19.8584 20.5237 19.8134 20.5408 19.7682 20.5408ZM5.36475 6.22002C5.04209 6.22002 4.73877 6.09434 4.51064 5.8662L4.15575 5.5114C4.1227 5.47836 4.10416 5.43353 4.10416 5.38671C4.10407 5.33998 4.1227 5.29506 4.15575 5.26202L5.61458 3.8031C5.68066 3.73702 5.79788 3.73702 5.86396 3.8031L6.21885 4.158C6.44699 4.38613 6.57267 4.68944 6.57267 5.0121C6.57267 5.33468 6.44699 5.63808 6.21885 5.86621C5.99072 6.09434 5.68732 6.22002 5.36475 6.22002ZM4.52981 5.38671L4.76002 5.61682C4.92153 5.77842 5.13625 5.86737 5.36475 5.86737C5.59315 5.86737 5.80797 5.77842 5.96948 5.61682C6.13108 5.45531 6.22003 5.24049 6.22003 5.01209C6.22003 4.7836 6.13108 4.56888 5.96948 4.40736L5.73927 4.17716L4.52981 5.38671Z" fill="#14213D"/>
</svg>
