<svg width="24" height="24" viewBox="0 0 24 24" fill="none" xmlns="http://www.w3.org/2000/svg">
<path d="M11.8991 2.28841H3.18894C2.28906 2.28841 1.55699 3.02048 1.55699 3.92036C1.55699 4.82018 2.28906 5.55225 3.18894 5.55225H11.8991C12.799 5.55225 13.531 4.82018 13.531 3.92036C13.531 3.02048 12.799 2.28841 11.8991 2.28841ZM20.8047 10.9412H3.18894C2.28906 10.9412 1.55699 11.6733 1.55699 12.5731C1.55699 13.473 2.28906 14.205 3.18894 14.205H20.8047C21.7046 14.205 22.4367 13.473 22.4367 12.5731C22.4367 11.6733 21.7046 10.9412 20.8047 10.9412Z" fill="white"/>
<path d="M12.1391 2.52841H3.42895C2.52906 2.52841 1.797 3.26048 1.797 4.16036C1.797 5.06019 2.52907 5.79226 3.42895 5.79226H12.1391C13.039 5.79226 13.771 5.06019 13.771 4.16036C13.771 3.26048 13.039 2.52841 12.1391 2.52841Z" fill="#FCA311"/>
<path d="M21.0448 11.1812H3.42895C2.52906 11.1812 1.797 11.9133 1.797 12.8131C1.797 13.713 2.52907 14.445 3.42895 14.445H21.0448C21.9446 14.445 22.6767 13.713 22.6767 12.8131C22.6767 11.9133 21.9446 11.1812 21.0448 11.1812Z" fill="#FFAF2B"/>
<path d="M17.3709 4.98401C17.4703 4.98401 17.5509 4.90345 17.5509 4.80401V4.087H18.3169C18.4163 4.087 18.4969 4.00644 18.4969 3.907C18.4969 3.80757 18.4163 3.727 18.3169 3.727H17.5509V3.12419H18.4643C18.5638 3.12419 18.6443 3.04362 18.6443 2.94419C18.6443 2.84476 18.5638 2.76419 18.4643 2.76419H17.4442C17.3781 2.76419 17.3157 2.78886 17.2684 2.83362C17.2184 2.88091 17.1909 2.94483 17.1909 3.01351V4.80401C17.1909 4.90345 17.2714 4.98401 17.3709 4.98401ZM19.9071 5.0575C20.0065 5.0575 20.0871 4.97693 20.0871 4.8775V3.46421L21.1909 4.98841C21.2255 5.03605 21.2801 5.06282 21.3367 5.06282C21.3552 5.06282 21.3739 5.05995 21.3922 5.05404C21.4665 5.03001 21.5167 4.96087 21.5167 4.88282V3.07111C21.5167 2.97168 21.4362 2.89111 21.3367 2.89111C21.2373 2.89111 21.1567 2.97168 21.1567 3.07111V4.32742L20.1885 2.99042C20.1854 2.98626 20.1822 2.98222 20.1788 2.97829C20.086 2.87083 19.9092 2.86286 19.8058 2.96042C19.755 3.00841 19.7271 3.07327 19.7271 3.143V4.87749C19.7271 4.97692 19.8077 5.0575 19.9071 5.0575ZM15.8571 7.19077V8.49074L14.8577 7.11067C14.8546 7.10645 14.8514 7.10229 14.8479 7.09831C14.7542 6.99044 14.5769 6.98188 14.4723 7.08073C14.4212 7.12901 14.3931 7.19429 14.3931 7.26443V9.04064C14.3931 9.14007 14.4736 9.22064 14.5731 9.22064C14.6725 9.22064 14.7531 9.14007 14.7531 9.04064V7.57995L15.8914 9.15173C15.9259 9.19937 15.9805 9.22614 16.0371 9.22614C16.0557 9.22614 16.0744 9.22327 16.0926 9.21735C16.1669 9.19333 16.2171 9.12419 16.2171 9.04614V7.19077C16.2171 7.09134 16.1366 7.01077 16.0371 7.01077C15.9377 7.01077 15.8571 7.09134 15.8571 7.19077ZM18.762 11.7275C18.8614 11.7275 18.942 11.6469 18.942 11.5475C18.942 11.448 18.8614 11.3675 18.762 11.3675H17.4532C17.3838 11.3675 17.3208 11.3923 17.2711 11.4392C17.2194 11.4882 17.1909 11.5542 17.1909 11.6253V13.4775C17.1909 13.5486 17.2194 13.6146 17.2711 13.6636C17.3208 13.7105 17.3838 13.7353 17.4532 13.7353H18.762C18.8614 13.7353 18.942 13.6547 18.942 13.5553C18.942 13.4559 18.8614 13.3753 18.762 13.3753H17.5509V12.7087H18.4338C18.5332 12.7087 18.6138 12.6281 18.6138 12.5287C18.6138 12.4292 18.5332 12.3487 18.4338 12.3487H17.5509V11.7275H18.762ZM4.16283 11.7473C4.00715 11.6008 3.81543 11.5265 3.59301 11.5265H3.18854C3.12051 11.5265 3.0591 11.5507 3.01117 11.5963C2.96096 11.6438 2.93336 11.708 2.93336 11.777V13.5185C2.93336 13.6179 3.01393 13.6985 3.11336 13.6985C3.21279 13.6985 3.29336 13.6179 3.29336 13.5185V13.0543H3.59301C3.8132 13.0543 4.00451 12.9808 4.16154 12.8359C4.32355 12.6864 4.40571 12.5029 4.40571 12.2904C4.4057 12.0758 4.32315 11.8923 4.16283 11.7473ZM3.91738 12.5713C3.82773 12.6541 3.72162 12.6943 3.59301 12.6943H3.29336V11.8865H3.59301C3.7225 11.8865 3.8282 11.9267 3.91873 12.0118C4.00533 12.0902 4.04571 12.1787 4.04571 12.2904C4.0457 12.4013 4.00492 12.4905 3.91738 12.5713ZM3.58492 6.99372C3.58486 6.99372 3.58486 6.99372 3.58481 6.99372C3.5142 6.99372 3.4501 7.03503 3.42092 7.09937L2.58402 8.94361C2.54289 9.03413 2.58303 9.14077 2.67355 9.18185C2.76396 9.22298 2.87072 9.18291 2.9118 9.09232L3.1365 8.59726H4.03111L4.25494 9.09215C4.285 9.15865 4.35051 9.19802 4.41906 9.19802C4.44385 9.19802 4.46905 9.19287 4.49313 9.18197C4.58371 9.14102 4.62391 9.03437 4.58295 8.94378L3.74881 7.09954C3.71969 7.03515 3.65559 6.99378 3.58492 6.99372ZM3.29986 8.23726L3.58451 7.60989L3.86828 8.23726H3.29986ZM9.30332 6.99372C9.30326 6.99372 9.30326 6.99372 9.3032 6.99372C9.2326 6.99372 9.1685 7.03503 9.13932 7.09937L8.30248 8.94361C8.26135 9.03413 8.30148 9.14077 8.39201 9.18185C8.48248 9.22298 8.58924 9.18291 8.63025 9.09232L8.8549 8.59726H9.74951L9.97334 9.09215C10.0034 9.15865 10.0689 9.19802 10.1375 9.19802C10.1622 9.19802 10.1874 9.19287 10.2115 9.18197C10.3021 9.14102 10.3423 9.03437 10.3013 8.94378L9.46721 7.09955C9.43809 7.03515 9.37398 6.99378 9.30332 6.99372ZM9.01826 8.23726L9.30291 7.60989L9.58668 8.23726H9.01826ZM7.4251 7.65841C7.38918 7.27825 7.03709 6.98048 6.62359 6.98048H5.84928C5.74985 6.98048 5.66928 7.06105 5.66928 7.16048V9.00296C5.66928 9.10239 5.74985 9.18296 5.84928 9.18296C5.94871 9.18296 6.02928 9.10239 6.02928 9.00296V8.44814H6.70082L7.11789 9.11376C7.15206 9.16832 7.21065 9.1982 7.27059 9.1982C7.30323 9.1982 7.33627 9.18935 7.36598 9.17072C7.45024 9.11792 7.47573 9.00689 7.42293 8.92263L7.06651 8.35374C7.30809 8.20738 7.45194 7.94242 7.4251 7.65841ZM6.78543 8.08878C6.78039 8.08838 6.77529 8.08814 6.7702 8.08814H6.02928V7.34048H6.62359C6.8534 7.34048 7.04805 7.49499 7.06674 7.69228C7.08332 7.86789 6.96625 8.03054 6.78543 8.08878ZM12.4985 7.16699C12.3663 7.04488 12.2049 6.983 12.019 6.983H11.5942C11.5261 6.983 11.4641 7.00696 11.4153 7.05208C11.3628 7.10042 11.3339 7.16617 11.3339 7.23712V9.00132C11.3339 9.07228 11.3628 9.13802 11.4153 9.18636C11.4644 9.23154 11.5263 9.25544 11.5942 9.25544H12.1252C12.3389 9.25544 12.5252 9.1846 12.6803 9.04351C12.837 8.89785 12.9164 8.71873 12.9164 8.51125C12.9164 8.30494 12.8376 8.1264 12.68 7.97874C12.6621 7.96257 12.6429 7.94687 12.6224 7.93164C12.6767 7.83754 12.704 7.7364 12.704 7.62917C12.704 7.45093 12.633 7.29114 12.4985 7.16699ZM11.6939 7.343H12.019C12.1141 7.343 12.1889 7.37113 12.2543 7.43148C12.3155 7.48802 12.344 7.55084 12.344 7.62918C12.344 7.68308 12.3256 7.73464 12.2881 7.78527H11.6939V7.343ZM12.4366 8.77855C12.3501 8.85718 12.2482 8.89544 12.1252 8.89544H11.6939V8.14527H12.2727C12.2743 8.14603 12.2759 8.14679 12.2775 8.1475C12.346 8.17785 12.3999 8.21078 12.4359 8.24341C12.5182 8.3204 12.5564 8.40554 12.5564 8.51125C12.5564 8.61759 12.5179 8.7029 12.4366 8.77855ZM17.7078 7.11882C17.7078 7.01939 17.6272 6.93882 17.5278 6.93882C17.4283 6.93882 17.3478 7.01939 17.3478 7.11882V9.01046C17.3478 9.10989 17.4283 9.19046 17.5278 9.19046H18.7182C18.8177 9.19046 18.8982 9.10989 18.8982 9.01046C18.8982 8.91103 18.8177 8.83046 18.7182 8.83046H17.7078V7.11882ZM7.28658 11.4603C7.18715 11.4603 7.10658 11.5408 7.10658 11.6403V12.8594C7.10658 12.9989 7.05555 13.115 6.95049 13.2142C6.84244 13.3162 6.71471 13.3657 6.55985 13.3657C6.40498 13.3657 6.27725 13.3162 6.16914 13.2141C6.11629 13.1642 6.07657 13.1094 6.05102 13.0513C6.02548 12.9934 6.01311 12.9306 6.01311 12.8594V11.6403C6.01311 11.5408 5.93254 11.4603 5.83311 11.4603C5.73368 11.4603 5.65311 11.5408 5.65311 11.6403V12.8594C5.65311 12.9799 5.67614 13.0933 5.72149 13.1963C5.76649 13.2986 5.83399 13.3927 5.92206 13.4758C6.09755 13.6416 6.31217 13.7257 6.55985 13.7257C6.80753 13.7257 7.02216 13.6416 7.19765 13.4759C7.37613 13.3074 7.46659 13.0999 7.46659 12.8594V11.6403C7.46658 11.5408 7.38602 11.4603 7.28658 11.4603ZM21.3063 7.35876C21.4057 7.35876 21.4863 7.2782 21.4863 7.17876C21.4863 7.07933 21.4057 6.99876 21.3063 6.99876H20.0881C20.0204 6.99876 19.9589 7.02296 19.91 7.06896C19.8593 7.11688 19.8314 7.18157 19.8314 7.25118V8.97519C19.8314 9.04479 19.8593 9.10949 19.91 9.15742C19.9587 9.20335 20.0202 9.22761 20.0881 9.22761H21.3063C21.4057 9.22761 21.4863 9.14704 21.4863 9.04761C21.4863 8.94817 21.4057 8.86761 21.3063 8.86761H20.1914V8.272H21.0008C21.1002 8.272 21.1808 8.19144 21.1808 8.092C21.1808 7.99257 21.1002 7.912 21.0008 7.912H20.1914V7.35876H21.3063ZM12.9247 15.9418C12.8253 15.9418 12.7447 16.0224 12.7447 16.1218V17.4218L11.7453 16.0417C11.7422 16.0375 11.7389 16.0333 11.7355 16.0293C11.6418 15.9214 11.464 15.9131 11.3595 16.012C11.3086 16.0603 11.2806 16.1255 11.2806 16.1955V17.9717C11.2806 18.0712 11.3612 18.1517 11.4606 18.1517C11.5601 18.1517 11.6406 18.0712 11.6406 17.9717V16.511L12.7789 18.0828C12.8134 18.1304 12.8681 18.1572 12.9247 18.1572C12.9432 18.1572 12.9619 18.1543 12.9802 18.1484C13.0544 18.1244 13.1047 18.0552 13.1047 17.9772V16.1218C13.1047 16.0224 13.0241 15.9418 12.9247 15.9418ZM9.46721 16.0527C9.43808 15.9883 9.37398 15.9469 9.30332 15.9469C9.30326 15.9469 9.30326 15.9469 9.3032 15.9469C9.2326 15.9469 9.1685 15.9882 9.13932 16.0525L8.30248 17.8967C8.26135 17.9873 8.30148 18.0939 8.39201 18.135C8.48248 18.1761 8.58924 18.136 8.63025 18.0454L8.8549 17.5504H9.74951L9.97334 18.0453C10.0034 18.1118 10.0689 18.1512 10.1375 18.1512C10.1622 18.1512 10.1874 18.146 10.2115 18.1351C10.3021 18.0941 10.3423 17.9875 10.3013 17.8969L9.46721 16.0527ZM9.01826 17.1904L9.30291 16.563L9.58668 17.1904H9.01826ZM4.44865 16.618C4.41273 16.2379 4.0607 15.9402 3.64733 15.9402C3.64727 15.9402 3.64721 15.9402 3.64715 15.9402H2.87283C2.7734 15.9402 2.69283 16.0207 2.69283 16.1202V17.9627C2.69283 18.0621 2.7734 18.1427 2.87283 18.1427C2.97226 18.1427 3.05283 18.0621 3.05283 17.9627V17.4078H3.72432L4.14145 18.0734C4.17561 18.1279 4.2342 18.1578 4.29414 18.1578C4.32678 18.1578 4.35983 18.149 4.38954 18.1303C4.47379 18.0775 4.49928 17.9665 4.44649 17.8823L4.09006 17.3134C4.3317 17.167 4.47555 16.902 4.44865 16.618ZM3.8091 17.0484C3.80406 17.048 3.79891 17.0478 3.79375 17.0478H3.05283V16.3002H3.64721C3.64721 16.3002 3.64721 16.3002 3.64726 16.3002C3.87701 16.3002 4.0716 16.4547 4.09029 16.652C4.10688 16.8275 3.98992 16.9901 3.8091 17.0484ZM18.6851 16.8402C18.7394 16.7461 18.7668 16.645 18.7668 16.5378C18.7668 16.3595 18.6957 16.1997 18.5613 16.0756C18.4291 15.9535 18.2677 15.8916 18.0817 15.8916H17.657C17.5888 15.8916 17.5269 15.9156 17.4781 15.9607C17.4256 16.009 17.3967 16.0748 17.3967 16.1457V17.9099C17.3967 17.9809 17.4256 18.0466 17.4778 18.0947C17.5269 18.1401 17.5888 18.164 17.657 18.164H18.1879C18.4017 18.164 18.588 18.0932 18.743 17.9521C18.8997 17.8065 18.9792 17.6274 18.9792 17.4199C18.9792 17.2135 18.9003 17.035 18.7428 16.8873C18.7249 16.8712 18.7057 16.8555 18.6851 16.8402ZM17.7567 16.2516H18.0817C18.1769 16.2516 18.2516 16.2797 18.3171 16.3402C18.3783 16.3967 18.4068 16.4594 18.4068 16.5378C18.4068 16.5917 18.3884 16.6432 18.3508 16.6939H17.7567V16.2516ZM18.4994 17.6871C18.4129 17.7658 18.311 17.804 18.1879 17.804H17.7567V17.0539H18.3354C18.337 17.0546 18.3386 17.0554 18.3403 17.0561C18.4087 17.0864 18.4627 17.1194 18.4987 17.152C18.5809 17.229 18.6192 17.3141 18.6192 17.4199C18.6192 17.5262 18.5807 17.6116 18.4994 17.6871ZM20.472 15.9232C20.3726 15.9232 20.292 16.0037 20.292 16.1032V17.9948C20.292 18.0943 20.3726 18.1748 20.472 18.1748H21.6625C21.7619 18.1748 21.8425 18.0943 21.8425 17.9948C21.8425 17.8954 21.7619 17.8148 21.6625 17.8148H20.652V16.1032C20.652 16.0037 20.5715 15.9232 20.472 15.9232ZM15.8374 16.3801C15.9368 16.3801 16.0174 16.2996 16.0174 16.2001C16.0174 16.1007 15.9368 16.0201 15.8374 16.0201H14.6192C14.5513 16.0201 14.4897 16.0444 14.4412 16.0903C14.3905 16.1382 14.3625 16.203 14.3625 16.2726V17.9966C14.3625 18.0664 14.3905 18.1312 14.4412 18.1788C14.4898 18.2247 14.5513 18.249 14.6192 18.249H15.8374C15.9368 18.249 16.0174 18.1684 16.0174 18.069C16.0174 17.9696 15.9368 17.889 15.8374 17.889H14.7225V17.2934H15.5319C15.6313 17.2934 15.7119 17.2128 15.7119 17.1134C15.7119 17.014 15.6313 16.9334 15.5319 16.9334H14.7225V16.3801H15.8374ZM3.00654 4.89695C3.02969 4.96632 3.0925 5.01472 3.16545 5.01952C3.16943 5.01982 3.17342 5.01993 3.17734 5.01993C3.24578 5.01993 3.30877 4.98097 3.33906 4.9188L3.68658 4.20613L4.0341 4.9188C4.06439 4.98097 4.12738 5.01993 4.19582 5.01993C4.19974 5.01993 4.20373 5.01982 4.20771 5.01952C4.28066 5.01472 4.34347 4.96632 4.36661 4.89695L4.96767 3.097C4.99914 3.00273 4.94822 2.90077 4.85394 2.86925C4.75919 2.83755 4.65771 2.88876 4.62618 2.98298L4.16464 4.36521L3.84835 3.71664C3.84747 3.71482 3.84618 3.71338 3.84524 3.71161C3.8422 3.70582 3.83862 3.7004 3.83496 3.69495C3.83189 3.69041 3.8289 3.68584 3.82544 3.68164C3.82178 3.67717 3.81764 3.6731 3.81354 3.66897C3.80921 3.6646 3.80493 3.66026 3.80019 3.65643C3.79623 3.65317 3.79189 3.65036 3.78762 3.64743C3.78193 3.64356 3.77623 3.63984 3.77019 3.63665C3.76852 3.63577 3.76714 3.63456 3.76544 3.63373C3.76251 3.63229 3.75941 3.63166 3.75643 3.63038C3.75029 3.62781 3.74417 3.62539 3.73778 3.6235C3.73236 3.62187 3.727 3.62067 3.72154 3.61957C3.71569 3.61842 3.70989 3.61743 3.70396 3.61687C3.69814 3.6163 3.6924 3.61612 3.68662 3.61612C3.68083 3.61612 3.67509 3.61631 3.66926 3.61688C3.66334 3.61747 3.65757 3.61842 3.65174 3.61958C3.64623 3.62068 3.6408 3.62189 3.63533 3.62353C3.62909 3.6254 3.62309 3.62774 3.61708 3.63027C3.61398 3.63158 3.61077 3.63224 3.60771 3.63373C3.60592 3.63461 3.6045 3.63587 3.60275 3.63679C3.59695 3.63985 3.59147 3.64345 3.58602 3.64715C3.58148 3.65021 3.57694 3.65318 3.57277 3.6566C3.56824 3.66031 3.56414 3.66447 3.55997 3.66863C3.55567 3.6729 3.55141 3.67712 3.54762 3.68176C3.54425 3.68588 3.54132 3.69037 3.5383 3.69481C3.53458 3.70031 3.53097 3.7058 3.52789 3.71163C3.52697 3.71339 3.52567 3.71484 3.5248 3.71664L3.20851 4.36521L2.74697 2.98298C2.71551 2.8887 2.61373 2.83767 2.51922 2.86925C2.42494 2.90077 2.37402 3.00273 2.40548 3.097L3.00654 4.89695ZM6.65851 5.01993C7.29467 5.01993 7.81222 4.52669 7.81222 3.92036C7.81222 3.31404 7.29466 2.82073 6.65851 2.82073C6.02237 2.82073 5.50481 3.31404 5.50481 3.92036C5.50481 4.52669 6.02237 5.01993 6.65851 5.01993ZM6.65851 3.18073C7.09615 3.18073 7.45222 3.51255 7.45222 3.92036C7.45222 4.32817 7.09615 4.65993 6.65851 4.65993C6.22088 4.65993 5.86481 4.32817 5.86481 3.92036C5.86481 3.51255 6.22088 3.18073 6.65851 3.18073ZM8.74047 4.94728C8.8399 4.94728 8.92047 4.86672 8.92047 4.76728V4.26859H9.5193L9.90051 4.87691C9.93467 4.93146 9.99327 4.96134 10.0532 4.96134C10.0858 4.96134 10.1189 4.95249 10.1486 4.93386C10.2329 4.88106 10.2583 4.76997 10.2056 4.68577L9.8837 4.17214C10.1041 4.03286 10.2344 3.78724 10.2096 3.52415C10.1757 3.16609 9.8445 2.8856 9.45561 2.8856H8.74048C8.64104 2.8856 8.56048 2.96616 8.56048 3.0656V4.76728C8.56047 4.86671 8.64103 4.94728 8.74047 4.94728ZM8.92047 3.2456H9.45561C9.66086 3.2456 9.83459 3.38288 9.85123 3.55808C9.86583 3.71288 9.76288 3.85644 9.6035 3.909C9.5994 3.9087 9.59524 3.90859 9.59102 3.90859H8.92048L8.92047 3.2456ZM11.3454 4.99439H11.7329C12.0382 4.99439 12.3031 4.89273 12.5202 4.69234C12.7423 4.48738 12.8549 4.23589 12.8549 3.94486C12.8549 3.6537 12.7422 3.40251 12.5205 3.19878C12.3033 2.99739 12.0383 2.89532 11.7329 2.89532H11.3454C11.2802 2.89532 11.2206 2.91853 11.1726 2.96276C11.1217 3.00987 11.0936 3.0738 11.0936 3.14276V4.747C11.0936 4.8159 11.1217 4.87983 11.1729 4.92718C11.2206 4.97118 11.2802 4.99439 11.3454 4.99439ZM11.4536 3.25532H11.7329C11.9476 3.25532 12.1252 3.32317 12.2764 3.46333C12.4234 3.59845 12.4949 3.75595 12.4949 3.94486C12.4949 4.13394 12.4233 4.29191 12.2761 4.42778C12.1255 4.56683 11.9478 4.63439 11.7328 4.63439H11.4536L11.4536 3.25532ZM15.7942 13.3183H14.7658V11.5781C14.7658 11.4787 14.6852 11.3981 14.5858 11.3981C14.4863 11.3981 14.4058 11.4787 14.4058 11.5781V13.4983C14.4058 13.5977 14.4863 13.6783 14.5858 13.6783H15.7942C15.8936 13.6783 15.9742 13.5977 15.9742 13.4983C15.9742 13.3988 15.8936 13.3183 15.7942 13.3183ZM20.8337 12.5418C20.7551 12.5038 20.6696 12.4809 20.5825 12.4738C20.5276 12.4685 20.4777 12.4547 20.4299 12.4317C20.3837 12.4094 20.3446 12.3804 20.3138 12.3468C20.2838 12.3121 20.2615 12.2758 20.2454 12.2361C20.2306 12.1995 20.2235 12.1621 20.2235 12.1238C20.2248 12.0065 20.2667 11.9189 20.3568 11.847C20.4303 11.7872 20.5142 11.7581 20.6133 11.7581C20.6962 11.7581 20.7698 11.7812 20.8384 11.8288C20.92 11.8855 21.0321 11.8653 21.0889 11.7837C21.1456 11.702 21.1254 11.5899 21.0437 11.5332C20.9147 11.4435 20.7699 11.3981 20.6133 11.3981C20.4306 11.3981 20.2678 11.4552 20.1309 11.5667C19.9585 11.7043 19.866 11.8954 19.8635 12.1217C19.8635 12.2079 19.8797 12.2917 19.9116 12.3708C19.9422 12.4468 19.9859 12.5178 20.0447 12.5859C20.1095 12.6568 20.1865 12.714 20.2735 12.756C20.359 12.7972 20.4513 12.8228 20.5506 12.8324C20.5967 12.8362 20.638 12.8471 20.677 12.866C20.7149 12.8843 20.7476 12.909 20.7778 12.9425C20.8281 12.9974 20.8515 13.0558 20.8515 13.1265C20.8515 13.1804 20.8424 13.2237 20.8245 13.2548C20.8012 13.2954 20.7729 13.329 20.7398 13.3561C20.677 13.4065 20.6074 13.4309 20.5326 13.431C20.4665 13.429 20.4137 13.4182 20.3758 13.399C20.3326 13.3769 20.2973 13.3506 20.272 13.3231C20.2589 13.3079 20.2473 13.2934 20.2373 13.2796C20.1788 13.1991 20.0665 13.1809 19.9859 13.2395C19.9054 13.2978 19.8875 13.4103 19.9458 13.4908C19.9611 13.5119 19.9787 13.5341 20.0026 13.5619C20.0607 13.6253 20.1312 13.6783 20.2125 13.7198C20.2983 13.7634 20.4024 13.7873 20.5273 13.7909C20.6901 13.7909 20.8373 13.7392 20.9664 13.6359C21.0345 13.58 21.0917 13.5122 21.1366 13.4342C21.1863 13.3477 21.2115 13.2442 21.2115 13.1264C21.2115 12.965 21.1549 12.8213 21.0442 12.7004C20.984 12.6337 20.9132 12.5803 20.8337 12.5418ZM9.96613 13.3385H9.01633L10.1144 11.7423C10.1523 11.6872 10.1566 11.6157 10.1254 11.5565C10.0943 11.4973 10.033 11.4603 9.96613 11.4603H8.67402C8.57459 11.4603 8.49402 11.5408 8.49402 11.6403C8.49402 11.7397 8.57459 11.8203 8.67402 11.8203H9.62383L8.52572 13.4165C8.48781 13.4716 8.48359 13.5431 8.51471 13.6023C8.54582 13.6615 8.60717 13.6985 8.67402 13.6985H9.96613C10.0656 13.6985 10.1461 13.6179 10.1461 13.5185C10.1461 13.4191 10.0656 13.3385 9.96613 13.3385ZM12.7325 13.3385H11.7827L12.8808 11.7423C12.9187 11.6872 12.9229 11.6157 12.8918 11.5565C12.8607 11.4973 12.7993 11.4603 12.7325 11.4603H11.4404C11.3409 11.4603 11.2604 11.5408 11.2604 11.6403C11.2604 11.7397 11.3409 11.8203 11.4404 11.8203H12.3902L11.2921 13.4165C11.2541 13.4716 11.2499 13.5431 11.281 13.6023C11.3122 13.6615 11.3735 13.6985 11.4404 13.6985H12.7325C12.8319 13.6985 12.9125 13.6179 12.9125 13.5185C12.9125 13.4191 12.8319 13.3385 12.7325 13.3385Z" fill="#14213D"/>
<path d="M20.8047 10.5812H3.18894C2.0906 10.5812 1.19699 11.4747 1.19699 12.5731C1.19699 13.6714 2.0906 14.565 3.18894 14.565H20.8047C21.9031 14.565 22.7967 13.6714 22.7967 12.5731C22.7967 11.4747 21.9031 10.5812 20.8047 10.5812ZM20.8047 14.205H3.18894C2.28906 14.205 1.55699 13.473 1.55699 12.5731C1.55699 11.6733 2.28906 10.9412 3.18894 10.9412H20.8047C21.7046 10.9412 22.4367 11.6733 22.4367 12.5731C22.4367 13.473 21.7046 14.205 20.8047 14.205ZM3.18894 5.91225H11.8991C12.9974 5.91225 13.891 5.0187 13.891 3.92036C13.891 2.82202 12.9974 1.92841 11.8991 1.92841H3.18894C2.0906 1.92841 1.19699 2.82202 1.19699 3.92036C1.19699 5.0187 2.0906 5.91225 3.18894 5.91225ZM3.18894 2.28841H11.8991C12.799 2.28841 13.531 3.02048 13.531 3.92036C13.531 4.82018 12.799 5.55225 11.8991 5.55225H3.18894C2.28906 5.55225 1.55699 4.82018 1.55699 3.92036C1.55699 3.02048 2.28906 2.28841 3.18894 2.28841ZM14.4579 4.9768C14.5574 4.9768 14.6379 4.89624 14.6379 4.7968V3.33612L15.7762 4.9079C15.8107 4.95554 15.8654 4.98232 15.922 4.98232C15.9405 4.98232 15.9592 4.97944 15.9775 4.97353C16.0517 4.9495 16.102 4.88036 16.102 4.80231V2.94694C16.102 2.8475 16.0214 2.76694 15.922 2.76694C15.8226 2.76694 15.742 2.8475 15.742 2.94694V4.2469L14.7426 2.86684C14.7395 2.86262 14.7362 2.85846 14.7328 2.85448C14.639 2.74643 14.4607 2.73881 14.3574 2.83661C14.3062 2.88495 14.2779 2.95028 14.2779 3.02059V4.7968C14.2779 4.89624 14.3585 4.9768 14.4579 4.9768ZM7.2059 17.8081H6.25609L7.3542 16.2119C7.39211 16.1568 7.39633 16.0853 7.36522 16.0261C7.3341 15.9669 7.27275 15.9299 7.2059 15.9299H5.91379C5.81436 15.9299 5.73379 16.0105 5.73379 16.1099C5.73379 16.2093 5.81436 16.2899 5.91379 16.2899H6.8636L5.76549 17.8861C5.72758 17.9411 5.72336 18.0127 5.75448 18.0719C5.78559 18.131 5.84694 18.1681 5.91379 18.1681H7.2059C7.30533 18.1681 7.3859 18.0875 7.3859 17.9881C7.3859 17.8886 7.30533 17.8081 7.2059 17.8081ZM21.834 19.8151C21.7346 19.8151 21.654 19.8957 21.654 19.9951V21.2951L20.6546 19.915C20.6515 19.9108 20.6482 19.9066 20.6448 19.9026C20.551 19.7946 20.3731 19.7866 20.2691 19.8851C20.218 19.9333 20.1899 19.9986 20.1899 20.0687V21.845C20.1899 21.9444 20.2705 22.025 20.3699 22.025C20.4694 22.025 20.5499 21.9444 20.5499 21.845V20.3843L21.6882 21.9561C21.7227 22.0037 21.7774 22.0305 21.834 22.0305C21.8525 22.0305 21.8712 22.0276 21.8895 22.0217C21.9637 21.9976 22.014 21.9285 22.014 21.8505V19.9951C22.014 19.8957 21.9334 19.8151 21.834 19.8151ZM3.74881 19.926C3.71968 19.8616 3.65558 19.8202 3.58492 19.8202C3.58486 19.8202 3.58486 19.8202 3.5848 19.8202C3.5142 19.8202 3.4501 19.8615 3.42092 19.9258L2.58402 21.7701C2.54289 21.8606 2.58302 21.9672 2.67355 22.0083C2.76396 22.0494 2.87072 22.0094 2.9118 21.9188L3.1365 21.4237H4.03111L4.25494 21.9186C4.285 21.9851 4.35051 22.0245 4.41906 22.0245C4.44385 22.0245 4.46905 22.0193 4.49313 22.0084C4.58371 21.9675 4.62391 21.8608 4.58295 21.7702L3.74881 19.926ZM3.29986 21.0637L3.58451 20.4364L3.86828 21.0637H3.29986ZM15.8033 21.1867C16.0449 21.0403 16.1888 20.7754 16.1619 20.4914C16.126 20.1112 15.7739 19.8134 15.3604 19.8134H14.5861C14.4867 19.8134 14.4061 19.894 14.4061 19.9934V21.8359C14.4061 21.9354 14.4867 22.0159 14.5861 22.0159C14.6856 22.0159 14.7661 21.9354 14.7661 21.8359V21.2811H15.4376L15.8547 21.9467C15.8889 22.0013 15.9475 22.0312 16.0074 22.0312C16.0401 22.0312 16.0731 22.0223 16.1028 22.0037C16.1871 21.9509 16.2126 21.8398 16.1598 21.7556L15.8033 21.1867ZM15.5222 20.9217C15.5172 20.9213 15.5121 20.9211 15.507 20.9211H14.7661V20.1734H15.3604C15.5903 20.1734 15.7849 20.3279 15.8036 20.5252C15.8202 20.7008 15.7031 20.8635 15.5222 20.9217ZM18.6851 20.7135C18.7394 20.6194 18.7668 20.5183 18.7668 20.411C18.7668 20.2328 18.6957 20.073 18.5613 19.9489C18.4291 19.8268 18.2677 19.7649 18.0817 19.7649H17.657C17.5891 19.7649 17.5272 19.7888 17.4781 19.834C17.4256 19.8823 17.3967 19.948 17.3967 20.019V21.7833C17.3967 21.8542 17.4256 21.9199 17.4778 21.968C17.5269 22.0134 17.5888 22.0373 17.657 22.0373H18.1879C18.4016 22.0373 18.5879 21.9665 18.7431 21.8254C18.8997 21.6798 18.9792 21.5007 18.9792 21.2932C18.9792 21.0868 18.9003 20.9083 18.7428 20.7606C18.7249 20.7444 18.7057 20.7287 18.6851 20.7135ZM17.7567 20.1249H18.0817C18.1769 20.1249 18.2516 20.153 18.3171 20.2135C18.3783 20.27 18.4068 20.3327 18.4068 20.411C18.4068 20.4649 18.3884 20.5166 18.3508 20.5672H17.7567L17.7567 20.1249ZM18.4994 21.5604C18.4129 21.6391 18.311 21.6773 18.1879 21.6773H17.7567V20.9272H18.3355C18.3371 20.928 18.3387 20.9287 18.3403 20.9294C18.4087 20.9597 18.4627 20.9926 18.4987 21.0253C18.5809 21.1023 18.6192 21.1874 18.6192 21.2932C18.6192 21.3995 18.5806 21.4848 18.4994 21.5604ZM12.7879 21.6881H11.7774V19.9765C11.7774 19.877 11.6969 19.7965 11.5974 19.7965C11.498 19.7965 11.4174 19.877 11.4174 19.9765V21.8681C11.4174 21.9675 11.498 22.0481 11.5974 22.0481H12.7879C12.8873 22.0481 12.9679 21.9675 12.9679 21.8681C12.9679 21.7687 12.8873 21.6881 12.7879 21.6881ZM9.9305 20.1938C10.0299 20.1938 10.1105 20.1133 10.1105 20.0138C10.1105 19.9144 10.0299 19.8338 9.9305 19.8338H8.71228C8.64443 19.8338 8.58285 19.8581 8.53422 19.904C8.48353 19.952 8.45558 20.0167 8.45558 20.0863V21.8103C8.45558 21.8799 8.48353 21.9446 8.53422 21.9925C8.58285 22.0384 8.64443 22.0627 8.71228 22.0627H9.9305C10.0299 22.0627 10.1105 21.9821 10.1105 21.8827C10.1105 21.7833 10.0299 21.7027 9.9305 21.7027H8.81558V21.1071H9.625C9.72443 21.1071 9.805 21.0265 9.805 20.9271C9.805 20.8276 9.72443 20.7471 9.625 20.7471H8.81558V20.1938H9.9305ZM7.14232 19.8627H6.12215C6.05529 19.8627 5.99464 19.8866 5.94642 19.9321C5.89638 19.9794 5.86885 20.0433 5.86885 20.112V21.9025C5.86885 22.002 5.94941 22.0825 6.04885 22.0825C6.14828 22.0825 6.22885 22.002 6.22885 21.9025V21.1855H6.99496C7.09439 21.1855 7.17496 21.1049 7.17496 21.0055C7.17496 20.906 7.09439 20.8255 6.99496 20.8255H6.22885V20.2227H7.14232C7.24176 20.2227 7.32232 20.1422 7.32232 20.0427C7.32232 19.9433 7.24176 19.8627 7.14232 19.8627Z" fill="#14213D"/>
</svg>
