<svg width="24" height="24" viewBox="0 0 24 24" fill="none" xmlns="http://www.w3.org/2000/svg">
<g clip-path="url(#clip0_1_6)">
<path d="M20.9934 19.0635H3.10664C1.54683 19.0635 0.282425 17.7991 0.282425 16.2393C0.282425 14.6794 1.54683 13.415 3.10664 13.415H20.9934C22.5532 13.415 23.8176 14.6794 23.8176 16.2393C23.8176 17.7991 22.5532 19.0635 20.9934 19.0635Z" fill="#FCA311"/>
<path d="M21.8208 5.03653H12.4884C11.3857 5.03653 10.4916 5.93049 10.4916 7.03335V9.15114C10.4916 10.2539 11.3856 11.148 12.4884 11.148H13.0881L12.9777 12.1007C12.9618 12.2377 13.1174 12.3275 13.2282 12.2453L14.7052 11.148H21.8209C22.9236 11.148 23.8176 10.254 23.8176 9.15114V7.03335C23.8176 5.93049 22.9236 5.03653 21.8208 5.03653Z" fill="#050403"/>
<path d="M4.00842 18.0931C4.00403 18.0931 3.99963 18.093 3.99524 18.0928C3.99085 18.0926 3.98646 18.0923 3.98208 18.0919C3.97771 18.0914 3.97334 18.0909 3.96898 18.0903C3.96463 18.0897 3.96029 18.089 3.95596 18.0882C3.95165 18.0874 3.94735 18.0865 3.94306 18.0854C3.9388 18.0844 3.93454 18.0833 3.93031 18.0821C3.92609 18.0809 3.9219 18.0796 3.91774 18.0782C3.91357 18.0767 3.90943 18.0752 3.90534 18.0736C3.90124 18.072 3.89719 18.0703 3.89319 18.0685C3.88918 18.0667 3.8852 18.0649 3.88126 18.0629C3.87734 18.0609 3.87346 18.0588 3.86963 18.0567C3.86581 18.0545 3.86202 18.0523 3.85829 18.0499C3.85457 18.0476 3.85091 18.0452 3.8473 18.0427C3.84369 18.0402 3.84014 18.0376 3.83664 18.0349C3.83315 18.0322 3.82973 18.0295 3.82635 18.0266C3.82299 18.0238 3.8197 18.0209 3.81647 18.0179C3.81325 18.0149 3.8101 18.0119 3.80701 18.0087C3.80393 18.0056 3.80093 18.0024 3.79799 17.9991C3.79506 17.9958 3.7922 17.9925 3.78943 17.9891C3.78665 17.9857 3.78395 17.9822 3.78133 17.9787C3.77871 17.9751 3.77618 17.9715 3.77373 17.9679C3.77128 17.9642 3.76892 17.9605 3.76664 17.9568C3.76437 17.953 3.76219 17.9492 3.7601 17.9453C3.758 17.9415 3.75599 17.9376 3.75408 17.9336C3.75216 17.9296 3.75034 17.9256 3.74862 17.9216C3.74689 17.9175 3.74526 17.9135 3.74372 17.9093C3.74218 17.9052 3.74075 17.9011 3.73941 17.8969C3.73806 17.8927 3.73682 17.8885 3.73567 17.8842C3.73453 17.88 3.73348 17.8757 3.73254 17.8714C3.73158 17.8671 3.73074 17.8628 3.73 17.8585C3.72926 17.8542 3.72862 17.8498 3.72807 17.8454C3.72752 17.8411 3.72708 17.8367 3.72675 17.8323L3.485 14.6895C3.48464 14.6849 3.48439 14.6803 3.48427 14.6757C3.48414 14.6711 3.48413 14.6664 3.48422 14.6618C3.48433 14.6572 3.48455 14.6526 3.48488 14.648C3.48519 14.6434 3.48563 14.6388 3.4862 14.6342C3.48675 14.6296 3.48741 14.625 3.48818 14.6205C3.48896 14.6159 3.48985 14.6114 3.49084 14.6069C3.49184 14.6023 3.49295 14.5979 3.49418 14.5934C3.49539 14.5889 3.49671 14.5845 3.49815 14.5801C3.49958 14.5757 3.50113 14.5714 3.50279 14.5671C3.50444 14.5627 3.50619 14.5585 3.50804 14.5542C3.50991 14.55 3.51187 14.5458 3.51392 14.5417C3.51599 14.5376 3.51816 14.5335 3.52042 14.5294C3.52269 14.5254 3.52506 14.5214 3.52753 14.5175C3.52997 14.5136 3.53252 14.5098 3.53518 14.506C3.53783 14.5022 3.54057 14.4985 3.54341 14.4948C3.54624 14.4912 3.54916 14.4876 3.55217 14.4841C3.55518 14.4806 3.55827 14.4771 3.56144 14.4738C3.56461 14.4704 3.56787 14.4671 3.57121 14.464C3.57455 14.4608 3.57796 14.4576 3.58145 14.4546C3.58494 14.4516 3.58851 14.4486 3.59213 14.4458C3.59577 14.4429 3.59947 14.4402 3.60324 14.4375C3.60702 14.4348 3.61086 14.4322 3.61475 14.4298C3.61864 14.4273 3.62259 14.4249 3.62661 14.4226C3.63063 14.4203 3.6347 14.4181 3.63882 14.416C3.64294 14.4139 3.6471 14.4119 3.65132 14.4101C3.65554 14.4082 3.65981 14.4064 3.66412 14.4047C3.66842 14.403 3.67277 14.4015 3.67716 14.4C3.68154 14.3985 3.68596 14.3972 3.69041 14.3959C3.69485 14.3947 3.69933 14.3935 3.70385 14.3925C3.70836 14.3915 3.71288 14.3906 3.71743 14.3898C3.72198 14.389 3.72655 14.3883 3.73113 14.3877C3.73571 14.3871 3.74031 14.3867 3.74492 14.3863C3.74953 14.3859 3.75415 14.3857 3.75876 14.3856C3.76337 14.3855 3.76799 14.3855 3.7726 14.3856C3.77723 14.3857 3.78184 14.3859 3.78644 14.3862C3.79105 14.3866 3.79565 14.387 3.80023 14.3876C3.80481 14.3882 3.80938 14.3888 3.81393 14.3896C3.81849 14.3904 3.82303 14.3913 3.82753 14.3923C3.83203 14.3933 3.83651 14.3944 3.84097 14.3956C3.84542 14.3969 3.84985 14.3982 3.85424 14.3996C3.85862 14.4011 3.86297 14.4026 3.86728 14.4043C3.8716 14.4059 3.87586 14.4077 3.88008 14.4095C3.88432 14.4114 3.8885 14.4134 3.89263 14.4154C3.89675 14.4175 3.90083 14.4197 3.90487 14.4219C3.90888 14.4242 3.91284 14.4266 3.91675 14.429C3.92067 14.4315 3.92453 14.434 3.92831 14.4367C3.93209 14.4393 3.9358 14.4421 3.93944 14.4449C3.94309 14.4477 3.94668 14.4507 3.95019 14.4537C3.95369 14.4567 3.95712 14.4598 3.96048 14.4629C3.96384 14.4661 3.96712 14.4694 3.97032 14.4727C3.9735 14.476 3.97661 14.4794 3.97964 14.4829C3.98267 14.4864 3.98561 14.49 3.98846 14.4936C3.99132 14.4972 3.99409 14.5009 3.99677 14.5047C3.99944 14.5085 4.00202 14.5123 4.00451 14.5162C4.00699 14.5201 4.00938 14.524 4.01167 14.528C4.01396 14.532 4.01616 14.5361 4.01826 14.5402C4.02034 14.5443 4.02234 14.5485 4.02424 14.5527C4.02612 14.5569 4.02791 14.5612 4.0296 14.5655C4.03128 14.5698 4.03286 14.5741 4.03433 14.5785C4.03579 14.5829 4.03715 14.5873 4.0384 14.5918C4.03966 14.5962 4.0408 14.6007 4.04184 14.6052C4.04288 14.6097 4.0438 14.6142 4.04462 14.6187C4.04543 14.6233 4.04613 14.6279 4.04671 14.6324C4.04731 14.637 4.04779 14.6416 4.04815 14.6462L4.22937 17.0023L4.62307 16.4399C4.6263 16.4352 4.62967 16.4307 4.63319 16.4263C4.6367 16.4219 4.64035 16.4175 4.64413 16.4133C4.64789 16.4091 4.65179 16.405 4.6558 16.4011C4.65982 16.3971 4.66395 16.3932 4.66821 16.3895C4.67244 16.3858 4.6768 16.3822 4.68127 16.3787C4.68572 16.3752 4.69029 16.3719 4.69496 16.3687C4.69962 16.3655 4.70438 16.3625 4.70923 16.3596C4.71408 16.3567 4.719 16.3539 4.72401 16.3513C4.72903 16.3487 4.73412 16.3462 4.73928 16.3439C4.74444 16.3416 4.74967 16.3395 4.75496 16.3375C4.76024 16.3355 4.76559 16.3337 4.77098 16.332C4.77638 16.3303 4.78183 16.3288 4.78732 16.3275C4.79281 16.3261 4.79833 16.3249 4.80389 16.3239C4.80944 16.3229 4.81503 16.3221 4.82064 16.3214C4.82626 16.3207 4.83188 16.3202 4.83752 16.3199C4.84317 16.3195 4.84881 16.3194 4.85446 16.3194C4.86011 16.3194 4.86576 16.3195 4.87141 16.3199C4.87704 16.3202 4.88267 16.3207 4.88828 16.3214C4.8939 16.3221 4.89949 16.3229 4.90504 16.3239C4.91059 16.3249 4.91612 16.3261 4.92161 16.3275C4.9271 16.3288 4.93254 16.3303 4.93794 16.332C4.94334 16.3337 4.94868 16.3355 4.95397 16.3375C4.95926 16.3395 4.96448 16.3416 4.96964 16.3439C4.97481 16.3462 4.9799 16.3487 4.98492 16.3513C4.98992 16.3539 4.99485 16.3567 4.9997 16.3596C5.00455 16.3625 5.0093 16.3655 5.01396 16.3687C5.01862 16.3719 5.02319 16.3752 5.02766 16.3787C5.03213 16.3822 5.03648 16.3858 5.04072 16.3895C5.04497 16.3932 5.04911 16.3971 5.05312 16.4011C5.05714 16.405 5.06103 16.4091 5.0648 16.4133C5.06858 16.4175 5.07223 16.4219 5.07574 16.4263C5.07924 16.4307 5.08261 16.4352 5.08586 16.4399L5.47956 17.0023L5.66078 14.6461C5.66109 14.6415 5.66151 14.6368 5.66205 14.6322C5.66258 14.6276 5.66323 14.623 5.664 14.6184C5.66475 14.6138 5.66563 14.6092 5.66661 14.6047C5.6676 14.6001 5.66871 14.5956 5.66993 14.5911C5.67114 14.5867 5.67247 14.5822 5.67391 14.5778C5.67534 14.5733 5.67688 14.5689 5.67852 14.5646C5.68017 14.5602 5.68193 14.5559 5.68379 14.5517C5.68566 14.5474 5.68763 14.5432 5.6897 14.539C5.69177 14.5349 5.69395 14.5307 5.69622 14.5267C5.6985 14.5226 5.70087 14.5186 5.70335 14.5147C5.70582 14.5107 5.70838 14.5069 5.71105 14.503C5.71372 14.4992 5.71648 14.4955 5.71933 14.4918C5.72217 14.4881 5.72511 14.4845 5.72814 14.481C5.73116 14.4775 5.73428 14.474 5.73748 14.4706C5.74068 14.4672 5.74396 14.464 5.74732 14.4607C5.75067 14.4575 5.75412 14.4544 5.75765 14.4513C5.76116 14.4483 5.76475 14.4453 5.7684 14.4424C5.77208 14.4396 5.77581 14.4368 5.77961 14.4341C5.7834 14.4314 5.78727 14.4288 5.79121 14.4263C5.79513 14.4239 5.79912 14.4215 5.80317 14.4192C5.80721 14.4169 5.81132 14.4147 5.81547 14.4126C5.81962 14.4105 5.82382 14.4085 5.82809 14.4066C5.83234 14.4047 5.83663 14.4029 5.84096 14.4013C5.84531 14.3996 5.84969 14.398 5.85412 14.3966C5.85853 14.3951 5.86298 14.3938 5.86746 14.3925C5.87195 14.3913 5.87647 14.3902 5.88102 14.3891C5.88555 14.3881 5.89011 14.3872 5.89469 14.3864C5.89929 14.3856 5.9039 14.385 5.90851 14.3844C5.91312 14.3838 5.91775 14.3834 5.92239 14.3831C5.92704 14.3827 5.93169 14.3825 5.93635 14.3824C5.94099 14.3823 5.94565 14.3823 5.95031 14.3825C5.95495 14.3826 5.9596 14.3828 5.96424 14.3832C5.96888 14.3835 5.97351 14.384 5.97813 14.3846C5.98274 14.3852 5.98734 14.3859 5.99192 14.3867C5.9965 14.3875 6.00106 14.3884 6.00559 14.3895C6.01013 14.3905 6.01464 14.3917 6.01912 14.3929C6.0236 14.3942 6.02804 14.3955 6.03244 14.397C6.03687 14.3985 6.04125 14.4001 6.04558 14.4018C6.04991 14.4035 6.05419 14.4053 6.05843 14.4072C6.06268 14.4091 6.06688 14.4111 6.07102 14.4132C6.07516 14.4154 6.07925 14.4176 6.08328 14.4199C6.08731 14.4222 6.09129 14.4246 6.09521 14.4271C6.09914 14.4297 6.10299 14.4323 6.10677 14.435C6.11055 14.4377 6.11427 14.4405 6.11792 14.4434C6.12156 14.4463 6.12513 14.4492 6.12863 14.4523C6.13213 14.4554 6.13556 14.4585 6.13892 14.4617C6.14226 14.465 6.14552 14.4683 6.14871 14.4717C6.15188 14.4751 6.15497 14.4786 6.15798 14.4821C6.16099 14.4857 6.16391 14.4893 6.16674 14.493C6.16958 14.4967 6.17231 14.5004 6.17495 14.5043C6.1776 14.5081 6.18015 14.512 6.1826 14.5159C6.18505 14.5199 6.1874 14.5239 6.18966 14.528C6.19192 14.5321 6.19407 14.5362 6.19611 14.5404C6.19816 14.5445 6.20012 14.5488 6.20197 14.553C6.2038 14.5573 6.20554 14.5616 6.20717 14.566C6.20879 14.5703 6.2103 14.5747 6.21171 14.5792C6.21312 14.5836 6.21443 14.5881 6.21562 14.5926C6.21681 14.5971 6.21789 14.6016 6.21884 14.6061C6.21982 14.6107 6.22067 14.6153 6.22141 14.6199C6.22215 14.6245 6.22277 14.6291 6.22329 14.6337C6.22381 14.6383 6.22421 14.643 6.22449 14.6476C6.22477 14.6522 6.22494 14.6569 6.22499 14.6615C6.22503 14.6662 6.22497 14.6708 6.2248 14.6755C6.22463 14.6802 6.22433 14.6848 6.22393 14.6894L5.98217 17.8322C5.98162 17.8394 5.9808 17.8466 5.9797 17.8537C5.97859 17.8609 5.97721 17.868 5.97556 17.875C5.97391 17.882 5.972 17.889 5.96982 17.8959C5.96764 17.9028 5.9652 17.9096 5.9625 17.9163C5.9598 17.923 5.95685 17.9295 5.95365 17.936C5.95043 17.9425 5.94698 17.9488 5.94329 17.955C5.93959 17.9612 5.93566 17.9673 5.9315 17.9732C5.92734 17.9791 5.92297 17.9849 5.91837 17.9904C5.91377 17.996 5.90897 18.0014 5.90397 18.0066C5.89895 18.0118 5.89374 18.0168 5.88834 18.0216C5.88294 18.0264 5.87737 18.031 5.87163 18.0354C5.86589 18.0397 5.85998 18.0439 5.85391 18.0478C5.84783 18.0517 5.84163 18.0554 5.83529 18.0589C5.82894 18.0623 5.82246 18.0655 5.81587 18.0685C5.80927 18.0714 5.80257 18.0741 5.79577 18.0765C5.78897 18.079 5.78208 18.0811 5.77511 18.083C5.76814 18.0849 5.76112 18.0866 5.75402 18.0879C5.74693 18.0893 5.73979 18.0904 5.73261 18.0912C5.72544 18.0921 5.71824 18.0926 5.71102 18.0929C5.70381 18.0931 5.69659 18.0931 5.68937 18.0928C5.68216 18.0925 5.67495 18.092 5.66777 18.0911C5.6606 18.0903 5.65347 18.0892 5.64637 18.0878C5.63928 18.0864 5.63225 18.0848 5.62529 18.0828C5.61834 18.0809 5.61146 18.0787 5.60467 18.0763C5.59788 18.0738 5.59118 18.0711 5.58459 18.0681C5.578 18.0652 5.57154 18.062 5.5652 18.0585C5.55886 18.055 5.55266 18.0513 5.54661 18.0474C5.54055 18.0435 5.53465 18.0393 5.52891 18.0349C5.52318 18.0305 5.51763 18.0259 5.51225 18.0211C5.50685 18.0163 5.50166 18.0112 5.49667 18.006C5.49166 18.0008 5.48687 17.9954 5.48229 17.9898C5.47771 17.9842 5.47334 17.9785 5.4692 17.9726L4.85437 17.0943L4.23963 17.9726C4.2364 17.9772 4.23303 17.9817 4.22953 17.9862C4.22602 17.9906 4.22238 17.9949 4.21861 17.9991C4.21485 18.0033 4.21096 18.0074 4.20694 18.0114C4.20294 18.0154 4.19881 18.0193 4.19456 18.023C4.19032 18.0267 4.18598 18.0303 4.18152 18.0338C4.17705 18.0372 4.17248 18.0406 4.16782 18.0438C4.16316 18.047 4.15842 18.05 4.15359 18.0529C4.14874 18.0558 4.14381 18.0586 4.13881 18.0612C4.1338 18.0638 4.12872 18.0663 4.12355 18.0686C4.11839 18.0709 4.11317 18.073 4.10788 18.075C4.10259 18.077 4.09725 18.0788 4.09185 18.0805C4.08647 18.0822 4.08103 18.0837 4.07554 18.085C4.07005 18.0864 4.06453 18.0875 4.05897 18.0885C4.05342 18.0895 4.04783 18.0904 4.04222 18.0911C4.03662 18.0917 4.03099 18.0922 4.02534 18.0926C4.01971 18.0929 4.01407 18.0931 4.00842 18.0931Z" fill="#15151B"/>
<path d="M7.69054 17.378C7.69054 17.3851 7.69036 17.3921 7.69002 17.3992C7.68967 17.4063 7.68916 17.4133 7.68846 17.4204C7.68776 17.4274 7.68689 17.4345 7.68585 17.4415C7.68482 17.4485 7.68361 17.4554 7.68223 17.4624C7.68085 17.4693 7.67929 17.4762 7.67757 17.4831C7.67584 17.49 7.67395 17.4968 7.6719 17.5036C7.66984 17.5104 7.66762 17.5171 7.66524 17.5237C7.66285 17.5304 7.66031 17.537 7.65761 17.5436C7.6549 17.5501 7.65202 17.5566 7.649 17.563C7.64597 17.5694 7.64278 17.5757 7.63944 17.5819C7.6361 17.5882 7.63261 17.5943 7.62897 17.6004C7.62533 17.6065 7.62155 17.6125 7.61762 17.6184C7.61369 17.6243 7.60961 17.63 7.60539 17.6357C7.60117 17.6414 7.59681 17.647 7.59232 17.6525C7.58784 17.6579 7.58322 17.6633 7.57846 17.6685C7.57371 17.6738 7.56882 17.6789 7.5638 17.6839C7.55879 17.6889 7.55367 17.6938 7.54843 17.6986C7.54319 17.7033 7.53783 17.708 7.53236 17.7124C7.52688 17.7169 7.52129 17.7213 7.5156 17.7255C7.50992 17.7297 7.50414 17.7338 7.49825 17.7377C7.49235 17.7417 7.48637 17.7454 7.4803 17.7491C7.47422 17.7527 7.46807 17.7562 7.46182 17.7596C7.45558 17.7629 7.44925 17.7661 7.44285 17.7691C7.43645 17.7721 7.42998 17.775 7.42344 17.7777C7.41689 17.7804 7.41029 17.783 7.40362 17.7854C7.39695 17.7877 7.39024 17.79 7.38347 17.792C7.3767 17.7941 7.36987 17.796 7.363 17.7977C7.35613 17.7994 7.34922 17.801 7.34229 17.8023C7.33534 17.8037 7.32835 17.8049 7.32134 17.806C7.31434 17.807 7.30732 17.8079 7.30028 17.8086C7.29323 17.8093 7.28617 17.8098 7.27909 17.8101C7.27202 17.8105 7.26494 17.8107 7.25787 17.8107C7.25079 17.8107 7.24371 17.8105 7.23664 17.8101C7.22956 17.8098 7.2225 17.8093 7.21546 17.8086C7.20841 17.8079 7.20138 17.807 7.19437 17.806C7.18737 17.8049 7.1804 17.8037 7.17345 17.8023C7.16651 17.801 7.15961 17.7994 7.15273 17.7977C7.14586 17.796 7.13904 17.7941 7.13226 17.792C7.12548 17.79 7.11877 17.7877 7.11211 17.7854C7.10544 17.783 7.09884 17.7804 7.0923 17.7777C7.08575 17.775 7.07928 17.7721 7.07288 17.7691C7.06648 17.7661 7.06015 17.7629 7.05391 17.7596C7.04767 17.7562 7.04151 17.7527 7.03544 17.7491C7.02936 17.7454 7.02338 17.7417 7.01748 17.7377C7.01159 17.7338 7.00581 17.7297 7.00013 17.7255C6.99444 17.7213 6.98885 17.7169 6.98338 17.7124C6.9779 17.708 6.97254 17.7033 6.9673 17.6986C6.96206 17.6938 6.95694 17.6889 6.95193 17.6839C6.94691 17.6789 6.94202 17.6738 6.93727 17.6685C6.93252 17.6633 6.9279 17.6579 6.92341 17.6525C6.91892 17.647 6.91457 17.6414 6.91035 17.6357C6.90613 17.63 6.90205 17.6242 6.89811 17.6183C6.89418 17.6125 6.8904 17.6065 6.88676 17.6004C6.88311 17.5943 6.87962 17.5882 6.87629 17.5819C6.87295 17.5757 6.86976 17.5694 6.86674 17.563C6.86371 17.5566 6.86084 17.5501 6.85812 17.5436C6.85542 17.537 6.85288 17.5304 6.8505 17.5237C6.84811 17.5171 6.84589 17.5104 6.84383 17.5036C6.84178 17.4968 6.83989 17.49 6.83816 17.4831C6.83644 17.4762 6.83488 17.4693 6.8335 17.4624C6.83212 17.4554 6.83091 17.4485 6.82988 17.4415C6.82884 17.4345 6.82798 17.4274 6.82729 17.4204C6.82658 17.4133 6.82606 17.4063 6.82571 17.3992C6.82537 17.3921 6.8252 17.3851 6.8252 17.378C6.8252 17.3709 6.82537 17.3638 6.82571 17.3568C6.82606 17.3497 6.82658 17.3426 6.82729 17.3356C6.82798 17.3285 6.82884 17.3215 6.82988 17.3145C6.83091 17.3075 6.83212 17.3005 6.8335 17.2936C6.83488 17.2866 6.83644 17.2797 6.83816 17.2729C6.83989 17.266 6.84178 17.2592 6.84383 17.2524C6.84589 17.2456 6.84811 17.2389 6.8505 17.2322C6.85288 17.2256 6.85542 17.219 6.85812 17.2124C6.86084 17.2059 6.86371 17.1994 6.86674 17.193C6.86976 17.1866 6.87295 17.1803 6.87629 17.174C6.87962 17.1678 6.88311 17.1616 6.88676 17.1556C6.8904 17.1495 6.89418 17.1435 6.89811 17.1376C6.90205 17.1317 6.90613 17.1259 6.91035 17.1202C6.91457 17.1146 6.91892 17.109 6.92341 17.1035C6.9279 17.098 6.93252 17.0927 6.93727 17.0874C6.94202 17.0822 6.94691 17.077 6.95193 17.072C6.95694 17.067 6.96206 17.0621 6.9673 17.0574C6.97254 17.0526 6.9779 17.048 6.98338 17.0435C6.98885 17.039 6.99444 17.0347 7.00013 17.0305C7.00581 17.0262 7.01159 17.0222 7.01748 17.0182C7.02338 17.0143 7.02936 17.0105 7.03544 17.0069C7.04151 17.0032 7.04767 16.9997 7.05391 16.9964C7.06015 16.9931 7.06648 16.9899 7.07288 16.9869C7.07928 16.9838 7.08575 16.981 7.0923 16.9782C7.09884 16.9755 7.10544 16.973 7.11211 16.9706C7.11877 16.9682 7.12548 16.966 7.13226 16.964C7.13904 16.9619 7.14586 16.96 7.15273 16.9583C7.15961 16.9566 7.16651 16.955 7.17345 16.9536C7.1804 16.9522 7.18737 16.951 7.19437 16.95C7.20138 16.949 7.20841 16.9481 7.21546 16.9474C7.2225 16.9467 7.22956 16.9462 7.23664 16.9458C7.24371 16.9455 7.25079 16.9453 7.25787 16.9453C7.26494 16.9453 7.27202 16.9455 7.27909 16.9458C7.28617 16.9462 7.29323 16.9467 7.30028 16.9474C7.30732 16.9481 7.31434 16.949 7.32134 16.95C7.32835 16.951 7.33534 16.9522 7.34229 16.9536C7.34922 16.955 7.35613 16.9566 7.363 16.9583C7.36987 16.96 7.3767 16.9619 7.38347 16.964C7.39024 16.966 7.39695 16.9682 7.40362 16.9706C7.41029 16.973 7.41689 16.9755 7.42344 16.9782C7.42998 16.981 7.43645 16.9838 7.44285 16.9869C7.44925 16.9899 7.45558 16.9931 7.46182 16.9964C7.46807 16.9997 7.47422 17.0032 7.4803 17.0069C7.48637 17.0105 7.49235 17.0143 7.49825 17.0182C7.50414 17.0222 7.50992 17.0262 7.5156 17.0305C7.52129 17.0347 7.52688 17.039 7.53236 17.0435C7.53783 17.048 7.54319 17.0526 7.54843 17.0574C7.55367 17.0621 7.55879 17.067 7.5638 17.072C7.56882 17.077 7.57371 17.0822 7.57846 17.0874C7.58322 17.0927 7.58784 17.098 7.59232 17.1035C7.59681 17.109 7.60117 17.1146 7.60539 17.1202C7.60961 17.1259 7.61369 17.1317 7.61762 17.1376C7.62155 17.1435 7.62533 17.1495 7.62897 17.1556C7.63261 17.1616 7.6361 17.1678 7.63944 17.174C7.64278 17.1803 7.64597 17.1866 7.649 17.193C7.65202 17.1994 7.6549 17.2059 7.65761 17.2124C7.66031 17.219 7.66285 17.2256 7.66524 17.2322C7.66762 17.2389 7.66984 17.2456 7.6719 17.2524C7.67395 17.2592 7.67584 17.266 7.67757 17.2729C7.67929 17.2797 7.68085 17.2866 7.68223 17.2936C7.68361 17.3005 7.68482 17.3075 7.68585 17.3145C7.68689 17.3215 7.68776 17.3285 7.68846 17.3356C7.68916 17.3426 7.68967 17.3497 7.69002 17.3568C7.69036 17.3638 7.69054 17.3709 7.69054 17.378Z" fill="#15151B"/>
<path d="M9.94992 17.378C9.94992 17.3851 9.94975 17.3921 9.9494 17.3992C9.94906 17.4063 9.94854 17.4133 9.94785 17.4204C9.94714 17.4274 9.94627 17.4345 9.94524 17.4415C9.9442 17.4485 9.94299 17.4554 9.94161 17.4624C9.94023 17.4693 9.93868 17.4762 9.93695 17.4831C9.93523 17.49 9.93334 17.4968 9.93128 17.5036C9.92923 17.5104 9.927 17.5171 9.92462 17.5237C9.92224 17.5304 9.91969 17.537 9.91699 17.5436C9.91428 17.5501 9.91141 17.5566 9.90838 17.563C9.90535 17.5694 9.90217 17.5757 9.89883 17.5819C9.89548 17.5882 9.89199 17.5943 9.88835 17.6004C9.88471 17.6065 9.88093 17.6125 9.87701 17.6184C9.87307 17.6243 9.86899 17.63 9.86477 17.6357C9.86055 17.6414 9.8562 17.647 9.85171 17.6525C9.84722 17.6579 9.8426 17.6633 9.83785 17.6685C9.83309 17.6738 9.8282 17.6789 9.82318 17.6839C9.81818 17.6889 9.81306 17.6938 9.80782 17.6986C9.80257 17.7033 9.79722 17.708 9.79174 17.7124C9.78626 17.7169 9.78068 17.7213 9.77498 17.7255C9.7693 17.7297 9.76352 17.7338 9.75764 17.7377C9.75174 17.7417 9.74575 17.7454 9.73968 17.7491C9.73361 17.7527 9.72745 17.7562 9.72121 17.7596C9.71496 17.7629 9.70864 17.7661 9.70224 17.7691C9.69583 17.7721 9.68936 17.775 9.68282 17.7777C9.67628 17.7804 9.66967 17.783 9.663 17.7854C9.65633 17.7877 9.64962 17.79 9.64286 17.792C9.63608 17.7941 9.62925 17.796 9.62238 17.7977C9.61551 17.7994 9.60861 17.801 9.60167 17.8023C9.59472 17.8037 9.58774 17.8049 9.58072 17.806C9.57373 17.807 9.56671 17.8079 9.55966 17.8086C9.55262 17.8093 9.54556 17.8098 9.53848 17.8101C9.5314 17.8105 9.52433 17.8107 9.51725 17.8107C9.51017 17.8107 9.5031 17.8105 9.49602 17.8101C9.48894 17.8098 9.48188 17.8093 9.47484 17.8086C9.46779 17.8079 9.46077 17.807 9.45375 17.806C9.44675 17.8049 9.43978 17.8037 9.43283 17.8023C9.42589 17.801 9.41899 17.7994 9.41212 17.7977C9.40525 17.796 9.39842 17.7941 9.39164 17.792C9.38488 17.79 9.37817 17.7877 9.3715 17.7854C9.36483 17.783 9.35822 17.7804 9.35168 17.7777C9.34514 17.775 9.33866 17.7721 9.33226 17.7691C9.32586 17.7661 9.31954 17.7629 9.31329 17.7596C9.30705 17.7562 9.30089 17.7527 9.29482 17.7491C9.28875 17.7454 9.28276 17.7417 9.27686 17.7377C9.27098 17.7338 9.2652 17.7297 9.25952 17.7255C9.25382 17.7213 9.24824 17.7169 9.24276 17.7124C9.23728 17.708 9.23193 17.7033 9.22668 17.6986C9.22144 17.6938 9.21632 17.6889 9.21132 17.6839C9.2063 17.6789 9.20141 17.6738 9.19665 17.6685C9.1919 17.6633 9.18728 17.6579 9.18279 17.6525C9.1783 17.647 9.17395 17.6414 9.16973 17.6357C9.16551 17.63 9.16143 17.6242 9.15749 17.6183C9.15357 17.6125 9.14979 17.6065 9.14615 17.6004C9.14249 17.5943 9.139 17.5882 9.13567 17.5819C9.13233 17.5757 9.12915 17.5694 9.12612 17.563C9.12309 17.5566 9.12022 17.5501 9.1175 17.5436C9.11481 17.537 9.11226 17.5304 9.10988 17.5237C9.1075 17.5171 9.10527 17.5104 9.10322 17.5036C9.10116 17.4968 9.09927 17.49 9.09755 17.4831C9.09582 17.4762 9.09427 17.4693 9.09289 17.4624C9.09151 17.4554 9.0903 17.4485 9.08926 17.4415C9.08823 17.4345 9.08736 17.4274 9.08667 17.4204C9.08597 17.4133 9.08544 17.4063 9.0851 17.3992C9.08475 17.3921 9.08458 17.3851 9.08458 17.378C9.08458 17.3709 9.08475 17.3638 9.0851 17.3568C9.08544 17.3497 9.08597 17.3426 9.08667 17.3356C9.08736 17.3285 9.08823 17.3215 9.08926 17.3145C9.0903 17.3075 9.09151 17.3005 9.09289 17.2936C9.09427 17.2866 9.09582 17.2797 9.09755 17.2729C9.09927 17.266 9.10116 17.2592 9.10322 17.2524C9.10527 17.2456 9.1075 17.2389 9.10988 17.2322C9.11226 17.2256 9.11481 17.219 9.1175 17.2124C9.12022 17.2059 9.12309 17.1994 9.12612 17.193C9.12915 17.1866 9.13233 17.1803 9.13567 17.174C9.139 17.1678 9.14248 17.1616 9.14612 17.1556C9.14978 17.1495 9.15357 17.1435 9.15749 17.1376C9.16143 17.1317 9.16551 17.1259 9.16973 17.1202C9.17395 17.1146 9.1783 17.109 9.18279 17.1035C9.18728 17.098 9.1919 17.0927 9.19665 17.0874C9.20141 17.0822 9.2063 17.077 9.21132 17.072C9.21632 17.067 9.22144 17.0621 9.22668 17.0574C9.23193 17.0526 9.23728 17.048 9.24276 17.0435C9.24824 17.039 9.25382 17.0347 9.25952 17.0305C9.2652 17.0262 9.27098 17.0222 9.27686 17.0182C9.28276 17.0143 9.28875 17.0105 9.29482 17.0069C9.30089 17.0032 9.30705 16.9997 9.31329 16.9964C9.31954 16.9931 9.32586 16.9899 9.33226 16.9869C9.33866 16.9838 9.34514 16.981 9.35168 16.9782C9.35822 16.9755 9.36483 16.973 9.3715 16.9706C9.37817 16.9682 9.38488 16.966 9.39164 16.964C9.39842 16.9619 9.40525 16.96 9.41212 16.9583C9.41899 16.9566 9.42589 16.955 9.43283 16.9536C9.43978 16.9522 9.44676 16.951 9.45378 16.95C9.46077 16.949 9.46779 16.9481 9.47484 16.9474C9.48188 16.9467 9.48894 16.9462 9.49602 16.9458C9.5031 16.9455 9.51017 16.9453 9.51725 16.9453C9.52433 16.9453 9.5314 16.9455 9.53848 16.9458C9.54556 16.9462 9.55262 16.9467 9.55966 16.9474C9.56671 16.9481 9.57373 16.949 9.58072 16.95C9.58774 16.951 9.59471 16.9522 9.60165 16.9536C9.6086 16.955 9.61551 16.9566 9.62238 16.9583C9.62925 16.96 9.63608 16.9619 9.64286 16.964C9.64962 16.966 9.65633 16.9682 9.663 16.9706C9.66967 16.973 9.67628 16.9755 9.68282 16.9782C9.68936 16.981 9.69583 16.9838 9.70224 16.9869C9.70864 16.9899 9.71496 16.9931 9.72121 16.9964C9.72745 16.9997 9.73361 17.0032 9.73968 17.0069C9.74575 17.0105 9.75174 17.0143 9.75764 17.0182C9.76352 17.0222 9.7693 17.0262 9.77498 17.0305C9.78068 17.0347 9.78626 17.039 9.79174 17.0435C9.79722 17.048 9.80257 17.0526 9.80782 17.0574C9.81306 17.0621 9.81818 17.067 9.82318 17.072C9.8282 17.077 9.83309 17.0822 9.83785 17.0874C9.8426 17.0927 9.84722 17.098 9.85171 17.1035C9.8562 17.109 9.86055 17.1146 9.86477 17.1202C9.86899 17.1259 9.87307 17.1317 9.87701 17.1376C9.88093 17.1435 9.88471 17.1495 9.88835 17.1556C9.89199 17.1616 9.89548 17.1678 9.89883 17.174C9.90217 17.1803 9.90535 17.1866 9.90838 17.193C9.91141 17.1994 9.91428 17.2059 9.91699 17.2124C9.91969 17.219 9.92224 17.2256 9.92462 17.2322C9.927 17.2389 9.92923 17.2456 9.93128 17.2524C9.93334 17.2592 9.93523 17.266 9.93695 17.2729C9.93868 17.2797 9.94023 17.2866 9.94161 17.2936C9.94299 17.3005 9.9442 17.3075 9.94524 17.3145C9.94627 17.3215 9.94714 17.3285 9.94785 17.3356C9.94854 17.3426 9.94906 17.3497 9.9494 17.3568C9.94975 17.3638 9.94992 17.3709 9.94992 17.378Z" fill="#15151B"/>
<path d="M12.2093 17.378C12.2093 17.3851 12.2091 17.3921 12.2088 17.3992C12.2084 17.4063 12.2079 17.4133 12.2072 17.4204C12.2065 17.4274 12.2056 17.4345 12.2046 17.4415C12.2036 17.4485 12.2024 17.4554 12.201 17.4624C12.1996 17.4693 12.198 17.4762 12.1963 17.4831C12.1946 17.49 12.1927 17.4968 12.1906 17.5036C12.1886 17.5104 12.1864 17.5171 12.184 17.5237C12.1816 17.5304 12.1791 17.537 12.1764 17.5436C12.1736 17.5501 12.1708 17.5566 12.1677 17.563C12.1647 17.5694 12.1615 17.5757 12.1582 17.5819C12.1549 17.5882 12.1514 17.5943 12.1477 17.6004C12.1441 17.6065 12.1403 17.6125 12.1364 17.6184C12.1324 17.6243 12.1284 17.63 12.1241 17.6357C12.1199 17.6414 12.1156 17.647 12.1111 17.6525C12.1066 17.6579 12.102 17.6633 12.0972 17.6685C12.0925 17.6738 12.0876 17.6789 12.0826 17.6839C12.0775 17.6889 12.0724 17.6938 12.0672 17.6986C12.0619 17.7033 12.0566 17.708 12.0511 17.7124C12.0456 17.7169 12.04 17.7213 12.0344 17.7255C12.0287 17.7297 12.0229 17.7338 12.017 17.7377C12.0111 17.7417 12.0051 17.7454 11.999 17.7491C11.993 17.7527 11.9868 17.7562 11.9806 17.7596C11.9743 17.7629 11.968 17.7661 11.9616 17.7691C11.9552 17.7721 11.9487 17.775 11.9422 17.7777C11.9356 17.7804 11.929 17.783 11.9224 17.7854C11.9157 17.7877 11.909 17.79 11.9022 17.792C11.8954 17.7941 11.8886 17.796 11.8818 17.7977C11.8749 17.7994 11.868 17.801 11.861 17.8023C11.8541 17.8037 11.8471 17.8049 11.8401 17.806C11.8331 17.807 11.8261 17.8079 11.819 17.8086C11.812 17.8093 11.8049 17.8098 11.7978 17.8101C11.7908 17.8105 11.7837 17.8107 11.7766 17.8107C11.7695 17.8107 11.7625 17.8105 11.7554 17.8101C11.7483 17.8098 11.7413 17.8093 11.7342 17.8086C11.7272 17.8079 11.7201 17.807 11.7131 17.806C11.7061 17.8049 11.6991 17.8037 11.6922 17.8023C11.6853 17.801 11.6784 17.7994 11.6715 17.7977C11.6646 17.796 11.6578 17.7941 11.651 17.792C11.6442 17.79 11.6375 17.7877 11.6309 17.7854C11.6242 17.783 11.6176 17.7804 11.611 17.7777C11.6045 17.775 11.598 17.7721 11.5916 17.7691C11.5852 17.7661 11.5789 17.7629 11.5727 17.7596C11.5664 17.7562 11.5603 17.7527 11.5542 17.7491C11.5481 17.7454 11.5421 17.7417 11.5362 17.7377C11.5303 17.7338 11.5246 17.7297 11.5189 17.7255C11.5132 17.7213 11.5076 17.7169 11.5021 17.7124C11.4967 17.708 11.4913 17.7033 11.4861 17.6986C11.4808 17.6938 11.4757 17.6889 11.4707 17.6839C11.4657 17.6789 11.4608 17.6738 11.456 17.6685C11.4513 17.6633 11.4466 17.6579 11.4422 17.6525C11.4377 17.647 11.4333 17.6414 11.4291 17.6357C11.4249 17.63 11.4208 17.6242 11.4169 17.6183C11.4129 17.6125 11.4092 17.6065 11.4055 17.6004C11.4019 17.5943 11.3984 17.5882 11.395 17.5819C11.3917 17.5757 11.3885 17.5694 11.3855 17.563C11.3825 17.5566 11.3796 17.5501 11.3769 17.5436C11.3742 17.537 11.3716 17.5304 11.3692 17.5237C11.3669 17.5171 11.3646 17.5104 11.3626 17.5036C11.3605 17.4968 11.3586 17.49 11.3569 17.4831C11.3552 17.4762 11.3536 17.4693 11.3523 17.4624C11.3509 17.4554 11.3497 17.4485 11.3486 17.4415C11.3476 17.4345 11.3467 17.4274 11.346 17.4204C11.3453 17.4133 11.3448 17.4063 11.3445 17.3992C11.3441 17.3921 11.3439 17.3851 11.3439 17.378C11.3439 17.3709 11.3441 17.3638 11.3445 17.3568C11.3448 17.3497 11.3453 17.3426 11.346 17.3356C11.3467 17.3285 11.3476 17.3215 11.3486 17.3145C11.3497 17.3075 11.3509 17.3005 11.3523 17.2936C11.3536 17.2866 11.3552 17.2797 11.3569 17.2729C11.3586 17.266 11.3605 17.2592 11.3626 17.2524C11.3646 17.2456 11.3669 17.2389 11.3692 17.2322C11.3716 17.2256 11.3742 17.219 11.3769 17.2124C11.3796 17.2059 11.3825 17.1994 11.3855 17.193C11.3885 17.1866 11.3917 17.1803 11.395 17.174C11.3984 17.1678 11.4019 17.1616 11.4055 17.1556C11.4091 17.1495 11.4129 17.1435 11.4169 17.1376C11.4208 17.1317 11.4249 17.1259 11.4291 17.1202C11.4333 17.1146 11.4377 17.109 11.4422 17.1035C11.4466 17.098 11.4513 17.0927 11.456 17.0874C11.4608 17.0822 11.4657 17.077 11.4707 17.072C11.4757 17.067 11.4808 17.0621 11.4861 17.0574C11.4913 17.0526 11.4967 17.048 11.5021 17.0435C11.5076 17.039 11.5132 17.0347 11.5189 17.0305C11.5246 17.0262 11.5303 17.0222 11.5362 17.0182C11.5421 17.0143 11.5481 17.0105 11.5542 17.0069C11.5603 17.0032 11.5664 16.9997 11.5727 16.9964C11.5789 16.9931 11.5852 16.9899 11.5916 16.9869C11.598 16.9838 11.6045 16.981 11.611 16.9782C11.6176 16.9755 11.6242 16.973 11.6309 16.9706C11.6375 16.9682 11.6442 16.966 11.651 16.964C11.6578 16.9619 11.6646 16.96 11.6715 16.9583C11.6784 16.9566 11.6853 16.955 11.6922 16.9536C11.6991 16.9522 11.7061 16.951 11.7131 16.95C11.7201 16.949 11.7272 16.9481 11.7342 16.9474C11.7413 16.9467 11.7483 16.9462 11.7554 16.9458C11.7625 16.9455 11.7695 16.9453 11.7766 16.9453C11.7837 16.9453 11.7908 16.9455 11.7978 16.9458C11.8049 16.9462 11.812 16.9467 11.819 16.9474C11.8261 16.9481 11.8331 16.949 11.8401 16.95C11.8471 16.951 11.8541 16.9522 11.861 16.9536C11.868 16.955 11.8749 16.9566 11.8818 16.9583C11.8886 16.96 11.8954 16.9619 11.9022 16.964C11.909 16.966 11.9157 16.9682 11.9224 16.9706C11.929 16.973 11.9356 16.9755 11.9422 16.9782C11.9487 16.981 11.9552 16.9838 11.9616 16.9869C11.968 16.9899 11.9743 16.9931 11.9806 16.9964C11.9868 16.9997 11.993 17.0032 11.999 17.0069C12.0051 17.0105 12.0111 17.0143 12.017 17.0182C12.0229 17.0222 12.0287 17.0262 12.0344 17.0305C12.04 17.0347 12.0456 17.039 12.0511 17.0435C12.0566 17.048 12.0619 17.0526 12.0672 17.0574C12.0724 17.0621 12.0775 17.067 12.0826 17.072C12.0876 17.077 12.0925 17.0822 12.0972 17.0874C12.102 17.0927 12.1066 17.098 12.1111 17.1035C12.1156 17.109 12.1199 17.1146 12.1241 17.1202C12.1284 17.1259 12.1324 17.1317 12.1364 17.1376C12.1403 17.1435 12.1441 17.1495 12.1477 17.1556C12.1514 17.1616 12.1549 17.1678 12.1582 17.174C12.1615 17.1803 12.1647 17.1866 12.1677 17.193C12.1708 17.1994 12.1736 17.2059 12.1764 17.2124C12.1791 17.219 12.1816 17.2256 12.184 17.2322C12.1864 17.2389 12.1886 17.2456 12.1906 17.2524C12.1927 17.2592 12.1946 17.266 12.1963 17.2729C12.198 17.2797 12.1996 17.2866 12.201 17.2936C12.2024 17.3005 12.2036 17.3075 12.2046 17.3145C12.2056 17.3215 12.2065 17.3285 12.2072 17.3356C12.2079 17.3426 12.2084 17.3497 12.2088 17.3568C12.2091 17.3638 12.2093 17.3709 12.2093 17.378Z" fill="#15151B"/>
<path d="M13.2523 9.8137C13.2461 9.8137 13.2399 9.81355 13.2338 9.81325C13.2276 9.81294 13.2215 9.81248 13.2154 9.81188C13.2092 9.81127 13.2031 9.81052 13.197 9.80962C13.1909 9.80871 13.1849 9.80766 13.1788 9.80647C13.1728 9.80526 13.1667 9.80391 13.1608 9.8024C13.1548 9.80091 13.1489 9.79927 13.143 9.79748C13.1371 9.79569 13.1312 9.79376 13.1254 9.79169C13.1196 9.7896 13.1139 9.78738 13.1082 9.78503C13.1025 9.78268 13.0968 9.78018 13.0913 9.77755C13.0857 9.77491 13.0802 9.77214 13.0748 9.76924C13.0693 9.76634 13.064 9.7633 13.0587 9.76013C13.0534 9.75696 13.0482 9.75367 13.0431 9.75025C13.0379 9.74681 13.0329 9.74326 13.028 9.73958C13.023 9.73591 13.0181 9.73212 13.0134 9.72822C13.0086 9.72431 13.004 9.72028 12.9994 9.71614C12.9948 9.712 12.9904 9.70776 12.986 9.70341C12.9816 9.69905 12.9774 9.69458 12.9733 9.69002C12.9691 9.68545 12.9651 9.68079 12.9612 9.67602C12.9573 9.67126 12.9535 9.6664 12.9498 9.66145C12.9461 9.6565 12.9426 9.65147 12.9392 9.64634C12.9357 9.64122 12.9324 9.63602 12.9293 9.63073C12.9261 9.62545 12.9231 9.62008 12.9202 9.61464C12.9173 9.60921 12.9145 9.60371 12.9119 9.59814C12.9092 9.59257 12.9067 9.58693 12.9044 9.58124C12.902 9.57554 12.8998 9.56979 12.8977 9.56399C12.8956 9.55818 12.8937 9.55234 12.8919 9.54645C12.8901 9.54055 12.8885 9.53462 12.887 9.52864C12.8855 9.52266 12.8841 9.51664 12.8829 9.51059C12.8817 9.50455 12.8807 9.49848 12.8798 9.49239C12.8789 9.48629 12.8781 9.48017 12.8775 9.47404C12.8769 9.4679 12.8765 9.46176 12.8762 9.45561C12.8759 9.44946 12.8757 9.4433 12.8757 9.43713V7.61401C12.8707 7.61601 12.8657 7.61792 12.8606 7.61972C12.8556 7.62151 12.8505 7.6232 12.8453 7.62478C12.8402 7.62635 12.835 7.62782 12.8298 7.62919C12.8246 7.63054 12.8194 7.63177 12.8141 7.6329C12.8089 7.63403 12.8036 7.63505 12.7983 7.63596C12.793 7.63687 12.7877 7.63767 12.7823 7.63834C12.777 7.63903 12.7717 7.6396 12.7663 7.64004C12.761 7.64049 12.7556 7.64083 12.7502 7.64105C12.7449 7.64127 12.7395 7.64137 12.7341 7.64135C12.7287 7.64135 12.7234 7.64123 12.718 7.64098C12.7126 7.64074 12.7073 7.64039 12.7019 7.63992C12.6966 7.63945 12.6912 7.63887 12.6859 7.63818C12.6805 7.63747 12.6752 7.63665 12.6699 7.63573C12.6646 7.6348 12.6594 7.63377 12.6541 7.63262C12.6489 7.63146 12.6436 7.6302 12.6385 7.62883C12.6332 7.62745 12.6281 7.62596 12.6229 7.62436C12.6178 7.62276 12.6127 7.62106 12.6077 7.61925C12.6026 7.61743 12.5976 7.61551 12.5926 7.61349C12.5876 7.61145 12.5827 7.60931 12.5778 7.60706C12.5729 7.60482 12.5681 7.60247 12.5633 7.60003C12.5585 7.59758 12.5538 7.59503 12.5491 7.59238C12.5444 7.58972 12.5398 7.58698 12.5352 7.58414C12.5307 7.58128 12.5262 7.57834 12.5218 7.57531C12.5173 7.57227 12.513 7.56913 12.5087 7.5659C12.5044 7.56267 12.5002 7.55935 12.496 7.55594C12.4918 7.55254 12.4878 7.54904 12.4838 7.54545C12.4797 7.54187 12.4758 7.53821 12.472 7.53446C12.4681 7.53069 12.4644 7.52685 12.4607 7.52295C12.457 7.51904 12.4534 7.51505 12.4499 7.51097C12.4463 7.5069 12.4429 7.50277 12.4396 7.49857C12.4363 7.49434 12.433 7.49005 12.4299 7.48569C12.4267 7.48135 12.4236 7.47693 12.4207 7.47244C12.4177 7.46795 12.4148 7.46341 12.4121 7.45881C12.4093 7.4542 12.4066 7.44953 12.4041 7.44481C12.4015 7.44009 12.399 7.43532 12.3967 7.4305C12.3943 7.42567 12.392 7.42079 12.3899 7.41586C12.3877 7.41094 12.3857 7.40597 12.3837 7.40097C12.3818 7.39594 12.3799 7.39089 12.3782 7.38581C12.3765 7.38071 12.3749 7.37559 12.3734 7.37044C12.3719 7.36528 12.3705 7.36008 12.3692 7.35486C12.3679 7.34964 12.3667 7.34439 12.3657 7.33914C12.3646 7.33387 12.3636 7.32857 12.3628 7.32325C12.362 7.31795 12.3613 7.31262 12.3606 7.30727C12.36 7.30194 12.3596 7.29659 12.3592 7.29122C12.3588 7.28585 12.3585 7.28049 12.3584 7.27512C12.3582 7.26974 12.3582 7.26437 12.3583 7.259C12.3584 7.25362 12.3586 7.24825 12.3589 7.24288C12.3592 7.23751 12.3596 7.23216 12.3602 7.2268C12.3607 7.22147 12.3614 7.21614 12.3621 7.2108C12.3629 7.20548 12.3638 7.20019 12.3648 7.19492C12.3658 7.18963 12.3669 7.18436 12.3681 7.17912C12.3693 7.1739 12.3707 7.1687 12.3721 7.16352C12.3736 7.15834 12.3751 7.15319 12.3768 7.14808C12.3784 7.14296 12.3802 7.13789 12.3821 7.13285C12.384 7.12783 12.386 7.12284 12.3881 7.11788C12.3902 7.11294 12.3924 7.10804 12.3947 7.10317C12.397 7.09833 12.3994 7.09353 12.4019 7.08877C12.4044 7.08402 12.407 7.07932 12.4098 7.07467C12.4125 7.07005 12.4153 7.06546 12.4182 7.06093C12.4211 7.05641 12.4241 7.05196 12.4272 7.04758C12.4303 7.04319 12.4335 7.03887 12.4368 7.03462C12.4401 7.03035 12.4435 7.02616 12.4469 7.02205C12.4504 7.01795 12.4539 7.01392 12.4576 7.00995C12.4612 7.006 12.4649 7.00212 12.4687 6.99833L12.986 6.48102C12.9893 6.47776 12.9926 6.47455 12.996 6.4714C12.9994 6.46826 13.0029 6.46518 13.0064 6.46217C13.0099 6.45914 13.0134 6.45619 13.017 6.4533C13.0206 6.45041 13.0243 6.44759 13.028 6.44485C13.0317 6.44209 13.0355 6.4394 13.0393 6.4368C13.0431 6.43418 13.047 6.43164 13.0509 6.42917C13.0547 6.4267 13.0587 6.4243 13.0627 6.42197C13.0667 6.41965 13.0707 6.4174 13.0748 6.41522C13.0789 6.41304 13.083 6.41094 13.0871 6.40891C13.0913 6.40689 13.0955 6.40493 13.0997 6.40305C13.1039 6.40118 13.1082 6.39939 13.1125 6.39768C13.1168 6.39596 13.1211 6.39432 13.1254 6.39277C13.1298 6.39121 13.1342 6.38974 13.1386 6.38834C13.143 6.38694 13.1474 6.38563 13.1519 6.38441C13.1563 6.38317 13.1608 6.38202 13.1653 6.38095C13.1698 6.37988 13.1743 6.3789 13.1788 6.37801C13.1834 6.3771 13.1879 6.37628 13.1925 6.37554C13.197 6.37482 13.2016 6.37417 13.2062 6.37361C13.2108 6.37304 13.2154 6.37256 13.22 6.37215C13.2246 6.37176 13.2292 6.37145 13.2338 6.37123C13.2384 6.371 13.243 6.37085 13.2477 6.37081C13.2523 6.37074 13.2569 6.37077 13.2615 6.37088C13.2661 6.37099 13.2707 6.37118 13.2754 6.37147C13.28 6.37176 13.2846 6.37213 13.2892 6.37257C13.2938 6.37303 13.2984 6.37357 13.3029 6.3742C13.3075 6.37482 13.3121 6.37553 13.3166 6.37631C13.3212 6.3771 13.3257 6.37797 13.3303 6.37893C13.3348 6.37988 13.3393 6.38093 13.3438 6.38206C13.3482 6.38317 13.3527 6.38437 13.3571 6.38566C13.3616 6.38694 13.366 6.38832 13.3704 6.38978C13.3748 6.39122 13.3791 6.39275 13.3835 6.39437C13.3878 6.39597 13.3921 6.39765 13.3964 6.39943C13.4006 6.4012 13.4049 6.40304 13.4091 6.40496C13.4133 6.40689 13.4174 6.40889 13.4216 6.41096C13.4257 6.41305 13.4298 6.4152 13.4338 6.41743C13.4379 6.41966 13.4419 6.42196 13.4458 6.42433C13.4498 6.42671 13.4537 6.42916 13.4576 6.43167C13.4615 6.4342 13.4653 6.43678 13.4691 6.43944C13.4729 6.4421 13.4766 6.44483 13.4803 6.44763C13.4839 6.45043 13.4876 6.4533 13.4911 6.45622C13.4947 6.45915 13.4982 6.46215 13.5017 6.46521C13.5051 6.46827 13.5086 6.47139 13.5119 6.47457C13.5153 6.47776 13.5185 6.48101 13.5218 6.48432C13.525 6.48763 13.5281 6.49099 13.5313 6.49441C13.5344 6.49783 13.5374 6.50132 13.5404 6.50486C13.5434 6.50839 13.5463 6.51198 13.5491 6.51562C13.552 6.51926 13.5547 6.52295 13.5574 6.5267C13.5601 6.53045 13.5628 6.53425 13.5653 6.5381C13.5679 6.54192 13.5704 6.54581 13.5728 6.54975C13.5753 6.55368 13.5776 6.55766 13.5799 6.56168C13.5822 6.56569 13.5844 6.56976 13.5865 6.57387C13.5886 6.57796 13.5907 6.5821 13.5927 6.58627C13.5946 6.59046 13.5965 6.59467 13.5984 6.59891C13.6002 6.60316 13.6019 6.60745 13.6036 6.61176C13.6052 6.61608 13.6068 6.62041 13.6083 6.62478C13.6098 6.62914 13.6113 6.63353 13.6126 6.63796C13.6139 6.64238 13.6152 6.64683 13.6164 6.6513C13.6176 6.65577 13.6187 6.66026 13.6197 6.66476C13.6207 6.66927 13.6216 6.67379 13.6225 6.67834C13.6233 6.68288 13.6241 6.68743 13.6247 6.69202C13.6254 6.69658 13.626 6.70116 13.6265 6.70576C13.627 6.71034 13.6275 6.71494 13.6278 6.71955C13.6281 6.72416 13.6284 6.72878 13.6286 6.73339C13.6287 6.738 13.6288 6.74262 13.6288 6.74725V9.43704C13.6288 9.44321 13.6287 9.44936 13.6284 9.45551C13.6281 9.46168 13.6276 9.46783 13.627 9.47397C13.6264 9.48009 13.6257 9.4862 13.6248 9.4923C13.6239 9.4984 13.6228 9.50448 13.6216 9.51052C13.6204 9.51656 13.6191 9.52257 13.6176 9.52854C13.6161 9.53452 13.6144 9.54046 13.6126 9.54636C13.6109 9.55226 13.6089 9.55811 13.6069 9.56392C13.6048 9.56972 13.6026 9.57547 13.6002 9.58117C13.5978 9.58686 13.5953 9.5925 13.5927 9.59807C13.5901 9.60364 13.5873 9.60914 13.5844 9.61459C13.5815 9.62002 13.5785 9.62538 13.5753 9.63066C13.5721 9.63595 13.5688 9.64116 13.5654 9.64629C13.562 9.65142 13.5584 9.65646 13.5548 9.6614C13.5511 9.66636 13.5473 9.67122 13.5434 9.67599C13.5395 9.68075 13.5355 9.68541 13.5313 9.68997C13.5272 9.69454 13.5229 9.699 13.5186 9.70336C13.5142 9.70772 13.5097 9.71198 13.5052 9.71612C13.5006 9.72026 13.496 9.72429 13.4912 9.72819C13.4864 9.7321 13.4816 9.73589 13.4766 9.73956C13.4717 9.74323 13.4666 9.74679 13.4615 9.75022C13.4564 9.75364 13.4512 9.75694 13.4459 9.76011C13.4406 9.76328 13.4352 9.76631 13.4298 9.76921C13.4244 9.77212 13.4189 9.77489 13.4133 9.77752C13.4077 9.78016 13.4021 9.78266 13.3964 9.78503C13.3907 9.78738 13.385 9.7896 13.3791 9.79167C13.3733 9.79375 13.3675 9.79569 13.3616 9.79748C13.3557 9.79927 13.3498 9.80091 13.3438 9.8024C13.3378 9.80391 13.3318 9.80525 13.3257 9.80645C13.3197 9.80766 13.3136 9.80871 13.3075 9.80962C13.3014 9.81052 13.2953 9.81127 13.2892 9.81188C13.2831 9.81248 13.2769 9.81294 13.2707 9.81325C13.2646 9.81355 13.2584 9.8137 13.2523 9.8137Z" fill="#FCA311"/>
<path d="M17.7754 9.81369H16.327C16.3208 9.81369 16.3147 9.81354 16.3085 9.81324C16.3024 9.81293 16.2962 9.81247 16.2901 9.81188C16.284 9.81126 16.2778 9.81051 16.2717 9.80962C16.2657 9.80871 16.2596 9.80766 16.2535 9.80646C16.2475 9.80526 16.2415 9.8039 16.2355 9.80239C16.2295 9.8009 16.2236 9.79926 16.2177 9.79747C16.2118 9.79568 16.206 9.79375 16.2001 9.79168C16.1943 9.7896 16.1886 9.78738 16.1829 9.78502C16.1772 9.78267 16.1716 9.78017 16.166 9.77754C16.1604 9.7749 16.1549 9.77213 16.1495 9.76923C16.1441 9.76633 16.1387 9.76329 16.1334 9.76012C16.1281 9.75695 16.1229 9.75366 16.1178 9.75024C16.1127 9.7468 16.1076 9.74325 16.1027 9.73958C16.0977 9.7359 16.0929 9.73212 16.0881 9.72821C16.0833 9.7243 16.0787 9.72028 16.0741 9.71614C16.0695 9.71199 16.0651 9.70775 16.0607 9.7034C16.0564 9.69904 16.0521 9.69458 16.048 9.69001C16.0438 9.68545 16.0398 9.68078 16.0359 9.67601C16.032 9.67125 16.0282 9.6664 16.0246 9.66144C16.0209 9.6565 16.0173 9.65146 16.0139 9.64633C16.0105 9.64121 16.0072 9.63601 16.004 9.63073C16.0008 9.62544 15.9978 9.62007 15.9949 9.61463C15.992 9.6092 15.9892 9.6037 15.9866 9.59813C15.984 9.59256 15.9815 9.58693 15.9791 9.58123C15.9768 9.57554 15.9745 9.56979 15.9724 9.56398C15.9704 9.55817 15.9684 9.55233 15.9667 9.54645C15.9649 9.54055 15.9632 9.53461 15.9617 9.52863C15.9602 9.52265 15.9589 9.51664 15.9577 9.51058C15.9565 9.50454 15.9554 9.49847 15.9545 9.49239C15.9536 9.48628 15.9529 9.48016 15.9523 9.47403C15.9517 9.46789 15.9512 9.46175 15.9509 9.4556C15.9506 9.44945 15.9504 9.44329 15.9504 9.43713V8.29915C15.9504 7.80633 16.3514 7.40529 16.8443 7.40529H17.2581C17.2604 7.40521 17.2626 7.40508 17.2649 7.40489C17.2671 7.4047 17.2694 7.40446 17.2716 7.40416C17.2738 7.40386 17.2761 7.40351 17.2783 7.4031C17.2805 7.40269 17.2827 7.40224 17.2849 7.40173C17.2871 7.40122 17.2893 7.40065 17.2914 7.40004C17.2936 7.39943 17.2957 7.39876 17.2979 7.39804C17.3 7.39732 17.3021 7.39655 17.3042 7.39573C17.3063 7.39492 17.3084 7.39405 17.3104 7.39314C17.3125 7.39222 17.3145 7.39125 17.3165 7.39023C17.3185 7.38922 17.3205 7.38816 17.3225 7.38705C17.3245 7.38593 17.3264 7.38477 17.3283 7.38357C17.3302 7.38237 17.332 7.38113 17.3339 7.37982C17.3357 7.37854 17.3375 7.3772 17.3393 7.37582C17.3411 7.37444 17.3429 7.37302 17.3446 7.37156C17.3463 7.37009 17.3479 7.36858 17.3496 7.36704C17.3512 7.36549 17.3528 7.36391 17.3544 7.36229C17.356 7.36067 17.3575 7.35902 17.3589 7.35732C17.3604 7.35563 17.3619 7.3539 17.3633 7.35215C17.3647 7.35037 17.366 7.34858 17.3673 7.34676C17.3687 7.34492 17.3699 7.34306 17.3712 7.34118C17.3724 7.3393 17.3736 7.33738 17.3747 7.33544C17.3758 7.33349 17.3769 7.33151 17.3779 7.3295C17.379 7.32751 17.38 7.3255 17.3809 7.32346C17.3819 7.3214 17.3828 7.31933 17.3836 7.31724C17.3844 7.31516 17.3852 7.31305 17.386 7.31094C17.3867 7.3088 17.3874 7.30666 17.388 7.30451C17.3887 7.30235 17.3893 7.30017 17.3898 7.29799C17.3903 7.29579 17.3908 7.2936 17.3912 7.2914C17.3917 7.28919 17.3921 7.28697 17.3924 7.28474C17.3927 7.28251 17.393 7.28028 17.3932 7.27803C17.3934 7.27579 17.3936 7.27355 17.3937 7.2713C17.3938 7.26904 17.3938 7.26679 17.3938 7.26455C17.3938 7.2623 17.3938 7.26005 17.3937 7.25779C17.3936 7.25555 17.3934 7.25331 17.3932 7.25106C17.393 7.24882 17.3927 7.24658 17.3924 7.24435C17.3921 7.24213 17.3917 7.23991 17.3912 7.23769C17.3908 7.2355 17.3903 7.2333 17.3898 7.2311C17.3893 7.22892 17.3887 7.22675 17.388 7.22458C17.3874 7.22244 17.3867 7.22029 17.386 7.21816C17.3852 7.21604 17.3844 7.21394 17.3836 7.21185C17.3828 7.20977 17.3819 7.20769 17.3809 7.20564C17.38 7.2036 17.379 7.20158 17.3779 7.19959C17.3769 7.19758 17.3758 7.19561 17.3747 7.19366C17.3736 7.19171 17.3724 7.1898 17.3712 7.18792C17.3699 7.18603 17.3687 7.18417 17.3673 7.18234C17.366 7.18052 17.3647 7.17872 17.3633 7.17695C17.3619 7.17519 17.3604 7.17347 17.3589 7.17177C17.3575 7.17008 17.356 7.16842 17.3544 7.16681C17.3528 7.16517 17.3512 7.16359 17.3496 7.16205C17.3479 7.16051 17.3463 7.15901 17.3446 7.15753C17.3429 7.15607 17.3411 7.15465 17.3393 7.15327C17.3375 7.15189 17.3357 7.15056 17.3339 7.14927C17.332 7.14797 17.3302 7.14672 17.3283 7.14553C17.3264 7.14432 17.3245 7.14316 17.3225 7.14205C17.3205 7.14093 17.3185 7.13987 17.3165 7.13887C17.3145 7.13785 17.3125 7.13688 17.3104 7.13595C17.3084 7.13504 17.3063 7.13418 17.3042 7.13336C17.3021 7.13255 17.3 7.13178 17.2979 7.13106C17.2957 7.13033 17.2936 7.12967 17.2914 7.12906C17.2893 7.12844 17.2871 7.12788 17.2849 7.12736C17.2827 7.12686 17.2805 7.1264 17.2783 7.126C17.2761 7.12559 17.2738 7.12523 17.2716 7.12494C17.2694 7.12464 17.2671 7.1244 17.2649 7.12421C17.2626 7.12402 17.2604 7.12389 17.2581 7.12381H16.327C16.3208 7.12381 16.3147 7.12366 16.3085 7.12336C16.3024 7.12305 16.2962 7.12259 16.2901 7.12199C16.284 7.12138 16.2778 7.12063 16.2717 7.11974C16.2657 7.11883 16.2596 7.11777 16.2535 7.11658C16.2475 7.11537 16.2415 7.11402 16.2355 7.11251C16.2295 7.11102 16.2236 7.10938 16.2177 7.10759C16.2118 7.1058 16.2059 7.10387 16.2001 7.1018C16.1943 7.09971 16.1886 7.0975 16.1829 7.09514C16.1772 7.09279 16.1716 7.09029 16.166 7.08766C16.1604 7.08502 16.1549 7.08225 16.1495 7.07935C16.1441 7.07645 16.1387 7.07341 16.1334 7.07024C16.1281 7.06707 16.1229 7.06377 16.1178 7.06033C16.1127 7.05691 16.1076 7.05337 16.1027 7.0497C16.0977 7.04602 16.0929 7.04223 16.0881 7.03833C16.0833 7.03442 16.0787 7.0304 16.0741 7.02625C16.0695 7.02211 16.0651 7.01787 16.0607 7.01352C16.0564 7.00916 16.0521 7.0047 16.048 7.00013C16.0438 6.99556 16.0398 6.9909 16.0359 6.98613C16.032 6.98137 16.0282 6.97652 16.0246 6.97156C16.0209 6.96662 16.0173 6.96158 16.0139 6.95645C16.0105 6.95132 16.0072 6.94612 16.004 6.94085C16.0008 6.93556 15.9978 6.93019 15.9949 6.92475C15.992 6.91932 15.9892 6.91382 15.9866 6.90825C15.984 6.90268 15.9815 6.89705 15.9791 6.89135C15.9768 6.88566 15.9745 6.8799 15.9724 6.8741C15.9704 6.86829 15.9684 6.86245 15.9667 6.85657C15.9649 6.85067 15.9632 6.84473 15.9617 6.83875C15.9602 6.83277 15.9589 6.82675 15.9577 6.8207C15.9565 6.81466 15.9554 6.80859 15.9545 6.80251C15.9536 6.7964 15.9529 6.79028 15.9523 6.78415C15.9516 6.77801 15.9512 6.77187 15.9509 6.76572C15.9506 6.75957 15.9504 6.75341 15.9504 6.74724C15.9504 6.74108 15.9506 6.73492 15.9509 6.72877C15.9512 6.72262 15.9516 6.71648 15.9523 6.71034C15.9529 6.70421 15.9536 6.69809 15.9545 6.69198C15.9554 6.6859 15.9565 6.67983 15.9577 6.67379C15.9589 6.66773 15.9602 6.66172 15.9617 6.65574C15.9632 6.64976 15.9649 6.64382 15.9667 6.63792C15.9684 6.63204 15.9704 6.6262 15.9724 6.62039C15.9745 6.61458 15.9768 6.60883 15.9791 6.60314C15.9815 6.59744 15.984 6.59181 15.9866 6.58624C15.9892 6.58067 15.992 6.57517 15.9949 6.56974C15.9978 6.5643 16.0008 6.55893 16.004 6.55364C16.0072 6.54836 16.0105 6.54316 16.0139 6.53804C16.0173 6.53291 16.0209 6.52787 16.0246 6.52293C16.0282 6.51797 16.032 6.51312 16.0359 6.50836C16.0398 6.50359 16.0438 6.49892 16.048 6.49436C16.0521 6.48979 16.0564 6.48533 16.0607 6.48097C16.0651 6.47662 16.0695 6.47238 16.0741 6.46824C16.0787 6.46409 16.0833 6.46007 16.0881 6.45616C16.0929 6.45226 16.0977 6.44847 16.1027 6.44479C16.1076 6.44112 16.1127 6.43757 16.1178 6.43413C16.1229 6.43071 16.1281 6.42742 16.1334 6.42425C16.1387 6.42108 16.1441 6.41804 16.1495 6.41514C16.1549 6.41224 16.1604 6.40947 16.166 6.40683C16.1716 6.4042 16.1772 6.4017 16.1829 6.39935C16.1886 6.39699 16.1943 6.39477 16.2001 6.39269C16.2059 6.39062 16.2118 6.38869 16.2177 6.3869C16.2236 6.38511 16.2295 6.38346 16.2355 6.38196C16.2415 6.38046 16.2475 6.37912 16.2535 6.37791C16.2596 6.37671 16.2657 6.37566 16.2717 6.37475C16.2778 6.37386 16.284 6.37311 16.2901 6.37249C16.2962 6.3719 16.3024 6.37144 16.3085 6.37113C16.3147 6.37083 16.3208 6.37068 16.327 6.37068H17.2581C17.751 6.37068 18.152 6.77163 18.152 7.26455C18.152 7.75747 17.7511 8.15841 17.2581 8.15841H16.8443C16.7667 8.15841 16.7036 8.22149 16.7036 8.29915V9.06056H17.7754C17.7815 9.06056 17.7877 9.06071 17.7938 9.06101C17.8 9.06132 17.8061 9.06178 17.8123 9.06238C17.8184 9.06299 17.8245 9.06374 17.8306 9.06464C17.8367 9.06555 17.8428 9.0666 17.8488 9.06779C17.8549 9.069 17.8609 9.07035 17.8669 9.07186C17.8728 9.07335 17.8788 9.07499 17.8847 9.07678C17.8906 9.07857 17.8964 9.0805 17.9022 9.08257C17.908 9.08466 17.9138 9.08688 17.9195 9.08923C17.9252 9.09158 17.9308 9.09408 17.9364 9.09671C17.9419 9.09935 17.9474 9.10212 17.9529 9.10502C17.9583 9.10792 17.9637 9.11096 17.969 9.11413C17.9742 9.1173 17.9794 9.12059 17.9846 9.12401C17.9897 9.12745 17.9947 9.131 17.9997 9.13468C18.0046 9.13835 18.0095 9.14214 18.0142 9.14604C18.019 9.14995 18.0237 9.15397 18.0282 9.15812C18.0328 9.16226 18.0373 9.1665 18.0416 9.17085C18.046 9.17521 18.0502 9.17967 18.0544 9.18424C18.0585 9.18881 18.0625 9.19347 18.0664 9.19824C18.0703 9.203 18.0741 9.20785 18.0778 9.21281C18.0815 9.21775 18.085 9.22279 18.0884 9.22792C18.0919 9.23304 18.0952 9.23824 18.0984 9.24353C18.1015 9.24881 18.1045 9.25418 18.1075 9.25962C18.1104 9.26505 18.1131 9.27055 18.1158 9.27612C18.1184 9.28169 18.1209 9.28732 18.1233 9.29302C18.1256 9.29872 18.1278 9.30447 18.1299 9.31027C18.132 9.31608 18.1339 9.32192 18.1357 9.3278C18.1375 9.3337 18.1391 9.33964 18.1406 9.34562C18.1421 9.3516 18.1435 9.35762 18.1447 9.36367C18.1459 9.36971 18.1469 9.37578 18.1478 9.38187C18.1487 9.38797 18.1495 9.39409 18.1501 9.40022C18.1507 9.40636 18.1512 9.4125 18.1515 9.41865C18.1518 9.4248 18.1519 9.43096 18.1519 9.43713C18.1519 9.44329 18.1518 9.44945 18.1515 9.4556C18.1512 9.46175 18.1507 9.46789 18.1501 9.47403C18.1495 9.48016 18.1487 9.48628 18.1478 9.49239C18.1469 9.49847 18.1459 9.50454 18.1447 9.51058C18.1435 9.51664 18.1421 9.52265 18.1406 9.52863C18.1391 9.53461 18.1375 9.54055 18.1357 9.54645C18.1339 9.55233 18.132 9.55817 18.1299 9.56398C18.1278 9.56979 18.1256 9.57554 18.1233 9.58123C18.1209 9.58693 18.1184 9.59256 18.1158 9.59813C18.1131 9.6037 18.1104 9.6092 18.1075 9.61463C18.1045 9.62007 18.1015 9.62544 18.0984 9.63073C18.0952 9.63601 18.0919 9.64121 18.0884 9.64633C18.085 9.65146 18.0815 9.6565 18.0778 9.66144C18.0741 9.6664 18.0703 9.67125 18.0664 9.67601C18.0625 9.68078 18.0585 9.68545 18.0544 9.69001C18.0502 9.69458 18.046 9.69904 18.0416 9.7034C18.0373 9.70775 18.0328 9.71199 18.0282 9.71614C18.0237 9.72028 18.019 9.7243 18.0142 9.72821C18.0095 9.73212 18.0046 9.7359 17.9997 9.73958C17.9947 9.74325 17.9897 9.7468 17.9846 9.75024C17.9794 9.75366 17.9742 9.75695 17.969 9.76012C17.9637 9.76329 17.9583 9.76633 17.9529 9.76923C17.9474 9.77213 17.9419 9.7749 17.9364 9.77754C17.9308 9.78017 17.9252 9.78267 17.9195 9.78502C17.9138 9.78738 17.908 9.7896 17.9022 9.79168C17.8964 9.79375 17.8906 9.79568 17.8847 9.79747C17.8788 9.79926 17.8728 9.8009 17.8669 9.80239C17.8609 9.8039 17.8549 9.80526 17.8488 9.80646C17.8428 9.80766 17.8367 9.80871 17.8306 9.80962C17.8245 9.81051 17.8184 9.81126 17.8123 9.81188C17.8061 9.81247 17.8 9.81293 17.7938 9.81324C17.7877 9.81354 17.7815 9.81369 17.7754 9.81369Z" fill="#FCA311"/>
<path d="M21.9507 7.26455C21.9507 6.77172 21.5497 6.37068 21.0568 6.37068H20.1258C20.1196 6.37068 20.1134 6.37083 20.1073 6.37113C20.1011 6.37144 20.095 6.3719 20.0889 6.37249C20.0827 6.37311 20.0766 6.37386 20.0705 6.37475C20.0644 6.37566 20.0584 6.37671 20.0523 6.37791C20.0463 6.37912 20.0402 6.38047 20.0343 6.38198C20.0283 6.38347 20.0223 6.38511 20.0164 6.3869C20.0106 6.38869 20.0047 6.39062 19.9989 6.39269C19.9931 6.39477 19.9874 6.39699 19.9817 6.39935C19.976 6.4017 19.9703 6.4042 19.9648 6.40683C19.9592 6.40947 19.9537 6.41224 19.9483 6.41514C19.9428 6.41804 19.9375 6.42108 19.9322 6.42425C19.9269 6.42742 19.9217 6.43071 19.9166 6.43413C19.9114 6.43757 19.9064 6.44112 19.9015 6.44479C19.8965 6.44847 19.8916 6.45226 19.8869 6.45616C19.8821 6.46007 19.8774 6.46409 19.8729 6.46824C19.8683 6.47238 19.8639 6.47662 19.8595 6.48097C19.8551 6.48533 19.8509 6.48979 19.8468 6.49436C19.8426 6.49892 19.8386 6.50359 19.8347 6.50836C19.8308 6.51312 19.827 6.51797 19.8233 6.52293C19.8196 6.52787 19.8161 6.53291 19.8127 6.53804C19.8092 6.54316 19.8059 6.54836 19.8028 6.55364C19.7996 6.55893 19.7966 6.5643 19.7937 6.56974C19.7908 6.57517 19.788 6.58067 19.7854 6.58624C19.7827 6.59181 19.7802 6.59744 19.7779 6.60314C19.7755 6.60883 19.7733 6.61458 19.7712 6.62039C19.7691 6.6262 19.7672 6.63204 19.7654 6.63792C19.7636 6.64382 19.762 6.64976 19.7605 6.65574C19.759 6.66172 19.7576 6.66773 19.7564 6.67379C19.7552 6.67983 19.7542 6.6859 19.7533 6.69198C19.7524 6.69809 19.7516 6.70421 19.751 6.71034C19.7504 6.71648 19.75 6.72262 19.7497 6.72877C19.7494 6.73492 19.7492 6.74108 19.7492 6.74724C19.7492 6.75341 19.7494 6.75957 19.7497 6.76572C19.75 6.77187 19.7504 6.77801 19.751 6.78415C19.7516 6.79028 19.7524 6.7964 19.7533 6.80251C19.7542 6.80859 19.7552 6.81466 19.7564 6.8207C19.7576 6.82675 19.759 6.83277 19.7605 6.83875C19.762 6.84473 19.7636 6.85067 19.7654 6.85657C19.7672 6.86245 19.7691 6.86829 19.7712 6.8741C19.7733 6.8799 19.7755 6.88566 19.7779 6.89135C19.7802 6.89705 19.7827 6.90268 19.7854 6.90825C19.788 6.91382 19.7908 6.91932 19.7937 6.92475C19.7966 6.93019 19.7996 6.93556 19.8028 6.94085C19.8059 6.94612 19.8092 6.95132 19.8127 6.95645C19.8161 6.96158 19.8196 6.96662 19.8233 6.97156C19.827 6.97652 19.8308 6.98137 19.8347 6.98613C19.8386 6.9909 19.8426 6.99556 19.8468 7.00013C19.8509 7.0047 19.8551 7.00916 19.8595 7.01352C19.8639 7.01787 19.8683 7.02211 19.8729 7.02625C19.8774 7.0304 19.8821 7.03442 19.8869 7.03833C19.8916 7.04223 19.8965 7.04602 19.9015 7.0497C19.9064 7.05337 19.9114 7.05691 19.9166 7.06033C19.9217 7.06377 19.9269 7.06707 19.9322 7.07024C19.9375 7.07341 19.9428 7.07645 19.9483 7.07935C19.9537 7.08225 19.9592 7.08502 19.9648 7.08766C19.9703 7.09029 19.976 7.09279 19.9817 7.09514C19.9874 7.0975 19.9931 7.09971 19.9989 7.1018C20.0047 7.10387 20.0106 7.1058 20.0164 7.10759C20.0223 7.10938 20.0283 7.11102 20.0343 7.11251C20.0402 7.11402 20.0463 7.11537 20.0523 7.11658C20.0584 7.11777 20.0644 7.11883 20.0705 7.11974C20.0766 7.12063 20.0827 7.12138 20.0889 7.12199C20.095 7.12259 20.1011 7.12305 20.1073 7.12336C20.1134 7.12366 20.1196 7.12381 20.1258 7.12381H21.0568C21.0591 7.12389 21.0613 7.12402 21.0636 7.12421C21.0658 7.1244 21.068 7.12464 21.0703 7.12494C21.0725 7.12523 21.0747 7.12559 21.0769 7.126C21.0792 7.1264 21.0814 7.12686 21.0836 7.12736C21.0858 7.12788 21.0879 7.12844 21.0901 7.12906C21.0923 7.12967 21.0944 7.13033 21.0965 7.13106C21.0987 7.13178 21.1008 7.13255 21.1029 7.13336C21.105 7.13418 21.1071 7.13504 21.1091 7.13595C21.1112 7.13688 21.1132 7.13785 21.1152 7.13887C21.1172 7.13987 21.1192 7.14093 21.1212 7.14205C21.1231 7.14316 21.1251 7.14432 21.127 7.14553C21.1289 7.14672 21.1307 7.14797 21.1326 7.14927C21.1344 7.15056 21.1362 7.15189 21.138 7.15327C21.1398 7.15465 21.1415 7.15607 21.1432 7.15753C21.145 7.15901 21.1466 7.16051 21.1483 7.16205C21.1499 7.16359 21.1515 7.16517 21.1531 7.16681C21.1546 7.16842 21.1561 7.17008 21.1576 7.17177C21.1591 7.17347 21.1606 7.17519 21.162 7.17695C21.1633 7.17872 21.1647 7.18052 21.166 7.18234C21.1673 7.18417 21.1686 7.18603 21.1698 7.18792C21.1711 7.1898 21.1722 7.19171 21.1734 7.19366C21.1745 7.19561 21.1756 7.19758 21.1766 7.19959C21.1777 7.20158 21.1787 7.2036 21.1796 7.20564C21.1805 7.20769 21.1814 7.20977 21.1823 7.21185C21.1831 7.21394 21.1839 7.21604 21.1846 7.21816C21.1854 7.22029 21.1861 7.22244 21.1867 7.22458C21.1874 7.22675 21.1879 7.22892 21.1885 7.2311C21.189 7.2333 21.1895 7.2355 21.1899 7.23769C21.1904 7.23991 21.1907 7.24213 21.191 7.24435C21.1914 7.24658 21.1916 7.24882 21.1919 7.25106C21.1921 7.25331 21.1922 7.25555 21.1923 7.25779C21.1924 7.26004 21.1925 7.26229 21.1925 7.26455C21.1925 7.26679 21.1924 7.26904 21.1923 7.2713C21.1922 7.27355 21.1921 7.27579 21.1919 7.27803C21.1916 7.28028 21.1914 7.28251 21.191 7.28474C21.1907 7.28697 21.1904 7.28919 21.1899 7.2914C21.1895 7.2936 21.189 7.29579 21.1885 7.29799C21.1879 7.30017 21.1874 7.30235 21.1867 7.30451C21.1861 7.30666 21.1854 7.3088 21.1846 7.31094C21.1839 7.31305 21.1831 7.31516 21.1823 7.31724C21.1814 7.31933 21.1805 7.3214 21.1796 7.32346C21.1787 7.3255 21.1777 7.32751 21.1766 7.3295C21.1756 7.33151 21.1745 7.33349 21.1734 7.33544C21.1722 7.33738 21.1711 7.3393 21.1698 7.34118C21.1686 7.34306 21.1673 7.34492 21.166 7.34676C21.1647 7.34858 21.1633 7.35037 21.162 7.35215C21.1606 7.3539 21.1591 7.35563 21.1576 7.35732C21.1561 7.35902 21.1546 7.36067 21.1531 7.36229C21.1515 7.36391 21.1499 7.36549 21.1483 7.36704C21.1466 7.36858 21.145 7.37009 21.1432 7.37156C21.1415 7.37302 21.1398 7.37444 21.138 7.37582C21.1362 7.3772 21.1344 7.37854 21.1326 7.37982C21.1307 7.38113 21.1289 7.38237 21.127 7.38357C21.1251 7.38477 21.1231 7.38593 21.1212 7.38705C21.1192 7.38816 21.1172 7.38922 21.1152 7.39023C21.1132 7.39125 21.1112 7.39222 21.1091 7.39314C21.1071 7.39405 21.105 7.39492 21.1029 7.39573C21.1008 7.39655 21.0987 7.39732 21.0965 7.39804C21.0944 7.39876 21.0923 7.39943 21.0901 7.40004C21.0879 7.40065 21.0858 7.40122 21.0836 7.40173C21.0814 7.40224 21.0792 7.40269 21.0769 7.4031C21.0747 7.40351 21.0725 7.40386 21.0703 7.40416C21.068 7.40444 21.0658 7.40468 21.0636 7.40489C21.0613 7.40508 21.0591 7.40521 21.0568 7.40529H20.643C20.6368 7.40529 20.6307 7.40544 20.6245 7.40573C20.6184 7.40605 20.6122 7.4065 20.6061 7.4071C20.5999 7.40771 20.5938 7.40847 20.5877 7.40936C20.5816 7.41027 20.5756 7.41132 20.5695 7.41251C20.5635 7.41372 20.5575 7.41507 20.5515 7.41656C20.5455 7.41807 20.5396 7.41972 20.5337 7.4215C20.5278 7.42329 20.5219 7.42522 20.5161 7.42729C20.5103 7.42938 20.5046 7.4316 20.4989 7.43395C20.4932 7.43631 20.4875 7.4388 20.482 7.44144C20.4764 7.44407 20.4709 7.44684 20.4655 7.44975C20.46 7.45265 20.4547 7.45568 20.4494 7.45885C20.4441 7.46202 20.4389 7.46532 20.4338 7.46874C20.4286 7.47217 20.4236 7.47573 20.4187 7.4794C20.4137 7.48307 20.4088 7.48686 20.4041 7.49077C20.3993 7.49467 20.3947 7.4987 20.3901 7.50284C20.3855 7.50698 20.3811 7.51123 20.3767 7.51557C20.3724 7.51994 20.3681 7.5244 20.364 7.52897C20.3598 7.53353 20.3558 7.5382 20.3519 7.54297C20.348 7.54772 20.3442 7.55258 20.3405 7.55754C20.3369 7.56248 20.3333 7.56752 20.3299 7.57265C20.3264 7.57776 20.3232 7.58296 20.32 7.58825C20.3168 7.59354 20.3138 7.5989 20.3109 7.60435C20.308 7.60978 20.3052 7.61528 20.3026 7.62085C20.2999 7.62642 20.2974 7.63205 20.2951 7.63774C20.2927 7.64344 20.2905 7.64919 20.2884 7.655C20.2863 7.6608 20.2844 7.66665 20.2826 7.67253C20.2808 7.67843 20.2792 7.68437 20.2777 7.69035C20.2762 7.69632 20.2748 7.70234 20.2736 7.7084C20.2724 7.71444 20.2714 7.7205 20.2705 7.72659C20.2696 7.73269 20.2688 7.73881 20.2682 7.74495C20.2676 7.75108 20.2672 7.75723 20.2669 7.76338C20.2666 7.76953 20.2664 7.77568 20.2664 7.78185C20.2664 7.78802 20.2666 7.79418 20.2669 7.80033C20.2672 7.80648 20.2676 7.81262 20.2682 7.81875C20.2688 7.82489 20.2696 7.83101 20.2705 7.83711C20.2714 7.8432 20.2724 7.84926 20.2736 7.8553C20.2748 7.86136 20.2762 7.86738 20.2777 7.87336C20.2792 7.87933 20.2808 7.88527 20.2826 7.89117C20.2844 7.89706 20.2863 7.9029 20.2884 7.90871C20.2905 7.91451 20.2927 7.92026 20.2951 7.92596C20.2974 7.93165 20.2999 7.93728 20.3026 7.94285C20.3052 7.94842 20.308 7.95392 20.3109 7.95935C20.3138 7.9648 20.3168 7.97016 20.32 7.97545C20.3232 7.98072 20.3264 7.98592 20.3299 7.99105C20.3333 7.99619 20.3369 8.00122 20.3405 8.00616C20.3442 8.01112 20.348 8.01598 20.3519 8.02073C20.3558 8.0255 20.3598 8.03017 20.364 8.03474C20.3681 8.0393 20.3724 8.04377 20.3767 8.04813C20.3811 8.05247 20.3855 8.05672 20.3901 8.06086C20.3947 8.065 20.3993 8.06903 20.4041 8.07293C20.4088 8.07684 20.4137 8.08063 20.4187 8.0843C20.4236 8.08797 20.4286 8.09152 20.4338 8.09494C20.4389 8.09837 20.4441 8.10168 20.4494 8.10485C20.4547 8.10802 20.46 8.11105 20.4655 8.11396C20.4709 8.11686 20.4764 8.11963 20.482 8.12226C20.4875 8.1249 20.4932 8.12739 20.4989 8.12975C20.5046 8.1321 20.5103 8.13432 20.5161 8.13641C20.5219 8.13848 20.5278 8.14041 20.5337 8.1422C20.5396 8.14399 20.5455 8.14563 20.5515 8.14712C20.5575 8.14862 20.5635 8.14998 20.5695 8.15119C20.5756 8.15238 20.5816 8.15343 20.5877 8.15434C20.5938 8.15524 20.5999 8.15599 20.6061 8.1566C20.6122 8.1572 20.6184 8.15765 20.6245 8.15797C20.6307 8.15826 20.6368 8.15841 20.643 8.15841H21.0568C21.1344 8.15841 21.1976 8.22149 21.1976 8.29915V8.91982C21.1976 8.99739 21.1345 9.06056 21.0568 9.06056H20.1258C20.1196 9.06056 20.1134 9.06071 20.1073 9.06101C20.1011 9.06132 20.095 9.06178 20.0889 9.06238C20.0827 9.06299 20.0766 9.06374 20.0705 9.06464C20.0644 9.06555 20.0584 9.0666 20.0523 9.06779C20.0463 9.069 20.0402 9.07035 20.0343 9.07186C20.0283 9.07335 20.0223 9.07499 20.0164 9.07678C20.0106 9.07857 20.0047 9.0805 19.9989 9.08257C19.9931 9.08466 19.9874 9.08688 19.9817 9.08923C19.976 9.09158 19.9703 9.09408 19.9648 9.09671C19.9592 9.09935 19.9537 9.10212 19.9483 9.10502C19.9428 9.10792 19.9375 9.11096 19.9322 9.11413C19.9269 9.1173 19.9217 9.12059 19.9166 9.12401C19.9114 9.12745 19.9064 9.131 19.9015 9.13468C19.8965 9.13835 19.8916 9.14214 19.8869 9.14604C19.8821 9.14995 19.8774 9.15397 19.8729 9.15812C19.8683 9.16226 19.8639 9.1665 19.8595 9.17085C19.8551 9.17521 19.8509 9.17967 19.8468 9.18424C19.8426 9.18881 19.8386 9.19347 19.8347 9.19824C19.8308 9.203 19.827 9.20785 19.8233 9.21281C19.8196 9.21775 19.8161 9.22279 19.8127 9.22792C19.8092 9.23304 19.8059 9.23824 19.8028 9.24353C19.7996 9.24881 19.7966 9.25418 19.7937 9.25962C19.7908 9.26505 19.788 9.27055 19.7854 9.27612C19.7827 9.28169 19.7802 9.28732 19.7779 9.29302C19.7755 9.29872 19.7733 9.30447 19.7712 9.31027C19.7691 9.31608 19.7672 9.32192 19.7654 9.3278C19.7636 9.3337 19.762 9.33964 19.7605 9.34562C19.759 9.3516 19.7576 9.35762 19.7564 9.36367C19.7552 9.36971 19.7542 9.37578 19.7533 9.38187C19.7524 9.38797 19.7516 9.39409 19.751 9.40022C19.7504 9.40636 19.75 9.4125 19.7497 9.41865C19.7494 9.4248 19.7492 9.43096 19.7492 9.43713C19.7492 9.44329 19.7494 9.44945 19.7497 9.4556C19.75 9.46175 19.7504 9.46789 19.751 9.47403C19.7516 9.48016 19.7524 9.48628 19.7533 9.49239C19.7542 9.49847 19.7552 9.50454 19.7564 9.51058C19.7576 9.51664 19.759 9.52265 19.7605 9.52863C19.762 9.53461 19.7636 9.54055 19.7654 9.54645C19.7672 9.55233 19.7691 9.55817 19.7712 9.56398C19.7733 9.56979 19.7755 9.57554 19.7779 9.58123C19.7802 9.58693 19.7827 9.59256 19.7854 9.59813C19.788 9.6037 19.7908 9.6092 19.7937 9.61463C19.7966 9.62007 19.7996 9.62544 19.8028 9.63073C19.8059 9.63601 19.8092 9.64121 19.8127 9.64633C19.8161 9.65146 19.8196 9.6565 19.8233 9.66144C19.827 9.6664 19.8308 9.67125 19.8347 9.67601C19.8386 9.68078 19.8426 9.68545 19.8468 9.69001C19.8509 9.69458 19.8551 9.69904 19.8595 9.7034C19.8639 9.70775 19.8683 9.71199 19.8729 9.71614C19.8774 9.72028 19.8821 9.7243 19.8869 9.72821C19.8916 9.73212 19.8965 9.7359 19.9015 9.73958C19.9064 9.74325 19.9114 9.7468 19.9166 9.75024C19.9217 9.75366 19.9269 9.75695 19.9322 9.76012C19.9375 9.76329 19.9428 9.76633 19.9483 9.76923C19.9537 9.77213 19.9592 9.7749 19.9648 9.77754C19.9703 9.78017 19.976 9.78267 19.9817 9.78502C19.9874 9.78738 19.9931 9.7896 19.9989 9.79168C20.0047 9.79375 20.0106 9.79568 20.0164 9.79747C20.0223 9.79926 20.0283 9.8009 20.0343 9.80239C20.0402 9.8039 20.0463 9.80526 20.0523 9.80646C20.0584 9.80766 20.0644 9.80871 20.0705 9.80962C20.0766 9.81051 20.0827 9.81126 20.0889 9.81188C20.095 9.81247 20.1011 9.81293 20.1073 9.81324C20.1134 9.81354 20.1196 9.81369 20.1258 9.81369H21.0568C21.5496 9.81369 21.9507 9.41274 21.9507 8.91982V8.29915C21.9507 8.27614 21.9498 8.25315 21.948 8.2302C21.9462 8.20724 21.9435 8.1844 21.94 8.16166C21.9364 8.13891 21.932 8.11634 21.9266 8.09395C21.9213 8.07154 21.9151 8.04939 21.9081 8.02749C21.901 8.00557 21.8932 7.98395 21.8844 7.96265C21.8757 7.94134 21.8662 7.92041 21.8558 7.89986C21.8455 7.87929 21.8343 7.85916 21.8224 7.83946C21.8105 7.81977 21.7978 7.80057 21.7844 7.78185C21.7978 7.76315 21.8105 7.74394 21.8224 7.72424C21.8344 7.70455 21.8455 7.68442 21.8558 7.66387C21.8662 7.6433 21.8757 7.62237 21.8845 7.60108C21.8932 7.57977 21.9011 7.55816 21.9081 7.53624C21.9152 7.51432 21.9213 7.49216 21.9267 7.46975C21.932 7.44736 21.9364 7.42479 21.94 7.40204C21.9436 7.37931 21.9462 7.35646 21.948 7.33351C21.9498 7.31055 21.9507 7.28757 21.9507 7.26455Z" fill="#FCA311"/>
<path d="M20.9934 19.2518H3.10665C1.44554 19.2518 0.0941467 17.9004 0.0941467 16.2393C0.0941467 14.5782 1.44554 13.2268 3.10665 13.2268H20.9934C22.6545 13.2268 24.0059 14.5782 24.0059 16.2393C24.0059 17.9004 22.6545 19.2518 20.9934 19.2518ZM3.10665 13.6033C1.65321 13.6033 0.470709 14.7858 0.470709 16.2393C0.470709 17.6927 1.65321 18.8752 3.10665 18.8752H20.9934C22.4468 18.8752 23.6293 17.6927 23.6293 16.2393C23.6293 14.7858 22.4468 13.6033 20.9934 13.6033H3.10665ZM13.1342 12.4646C13.1282 12.4646 13.1221 12.4645 13.116 12.4641C13.1099 12.4638 13.1039 12.4633 13.0978 12.4627C13.0918 12.4621 13.0858 12.4613 13.0798 12.4603C13.0738 12.4593 13.0678 12.4582 13.0619 12.457C13.0559 12.4557 13.05 12.4543 13.0442 12.4527C13.0383 12.4511 13.0325 12.4494 13.0267 12.4475C13.0209 12.4456 13.0152 12.4436 13.0095 12.4414C13.0039 12.4392 12.9983 12.4368 12.9927 12.4343C12.9872 12.4319 12.9817 12.4292 12.9763 12.4265C12.9709 12.4237 12.9655 12.4208 12.9603 12.4177C12.955 12.4146 12.9499 12.4114 12.9448 12.4081C12.9397 12.4048 12.9347 12.4013 12.9298 12.3977C12.9249 12.3942 12.9201 12.3904 12.9154 12.3866C12.9107 12.3827 12.9061 12.3788 12.9016 12.3747C12.8971 12.3706 12.8927 12.3664 12.8885 12.3621C12.8842 12.3578 12.88 12.3533 12.876 12.3488C12.8719 12.3443 12.868 12.3396 12.8642 12.3349C12.8604 12.3301 12.8567 12.3253 12.8532 12.3204C12.8497 12.3154 12.8463 12.3104 12.843 12.3053C12.8397 12.3002 12.8366 12.295 12.8336 12.2897C12.8306 12.2844 12.8277 12.279 12.825 12.2736C12.8223 12.2682 12.8197 12.2627 12.8173 12.2571C12.8148 12.2515 12.8125 12.2459 12.8104 12.2402C12.8083 12.2345 12.8063 12.2288 12.8045 12.223C12.8026 12.2172 12.801 12.2113 12.7994 12.2055C12.7979 12.1996 12.7965 12.1937 12.7953 12.1877C12.7941 12.1818 12.7931 12.1758 12.7922 12.1698C12.7913 12.1637 12.7905 12.1577 12.79 12.1517C12.7894 12.1456 12.789 12.1396 12.7887 12.1335C12.7885 12.1274 12.7884 12.1213 12.7884 12.1153C12.7885 12.1092 12.7887 12.1031 12.7891 12.0971C12.7895 12.091 12.79 12.085 12.7907 12.0789L12.8768 11.3362H12.4885C11.2837 11.3362 10.3034 10.356 10.3034 9.15123V7.03326C10.3034 5.82844 11.2837 4.84825 12.4885 4.84825H21.8209C23.0257 4.84825 24.0059 5.82844 24.0059 7.03326V9.15114C24.0059 10.356 23.0257 11.3361 21.8209 11.3361H14.7675L13.3405 12.3963C13.3331 12.4018 13.3255 12.407 13.3177 12.4119C13.3099 12.4168 13.3019 12.4213 13.2937 12.4256C13.2856 12.4298 13.2772 12.4338 13.2687 12.4374C13.2602 12.4409 13.2516 12.4442 13.2429 12.4471C13.2341 12.45 13.2253 12.4525 13.2163 12.4547C13.2074 12.4569 13.1984 12.4587 13.1893 12.4602C13.1802 12.4617 13.171 12.4628 13.1618 12.4635C13.1526 12.4642 13.1434 12.4646 13.1342 12.4646ZM12.4884 5.22481C11.4912 5.22481 10.6799 6.03612 10.6799 7.03326V9.15114C10.6799 10.1484 11.4912 10.9596 12.4884 10.9596H13.0881C13.0914 10.9596 13.0947 10.9597 13.098 10.9598C13.1013 10.96 13.1046 10.9603 13.1079 10.9606C13.1112 10.961 13.1145 10.9614 13.1177 10.9619C13.121 10.9625 13.1242 10.9631 13.1275 10.9638C13.1307 10.9645 13.1339 10.9652 13.1371 10.9661C13.1403 10.967 13.1435 10.9679 13.1466 10.9689C13.1498 10.97 13.1529 10.9711 13.156 10.9723C13.1591 10.9735 13.1621 10.9747 13.1651 10.9761C13.1681 10.9774 13.1711 10.9789 13.1741 10.9804C13.177 10.9819 13.1799 10.9835 13.1828 10.9851C13.1856 10.9868 13.1884 10.9885 13.1912 10.9903C13.194 10.9922 13.1967 10.9941 13.1994 10.996C13.202 10.998 13.2046 11 13.2072 11.0021C13.2098 11.0042 13.2123 11.0063 13.2147 11.0086C13.2172 11.0108 13.2196 11.0131 13.2219 11.0154C13.2242 11.0178 13.2265 11.0202 13.2287 11.0226C13.2309 11.0251 13.233 11.0276 13.2351 11.0302C13.2371 11.0328 13.2391 11.0354 13.2411 11.0381C13.243 11.0408 13.2448 11.0435 13.2466 11.0463C13.2484 11.0491 13.2501 11.0519 13.2518 11.0548C13.2534 11.0577 13.2549 11.0606 13.2564 11.0636C13.2579 11.0665 13.2593 11.0695 13.2606 11.0725C13.262 11.0756 13.2632 11.0786 13.2644 11.0817C13.2655 11.0848 13.2666 11.0879 13.2676 11.0911C13.2686 11.0942 13.2695 11.0974 13.2704 11.1006C13.2712 11.1038 13.2719 11.1071 13.2726 11.1103C13.2733 11.1135 13.2738 11.1168 13.2743 11.1201C13.2748 11.1233 13.2752 11.1266 13.2755 11.1299C13.2758 11.1332 13.2761 11.1365 13.2762 11.1398C13.2764 11.1431 13.2764 11.1464 13.2764 11.1497C13.2763 11.153 13.2762 11.1563 13.276 11.1596C13.2758 11.1629 13.2755 11.1662 13.2752 11.1695L13.1729 12.0516L14.5928 10.9967C14.6009 10.9907 14.6094 10.9854 14.6183 10.9807C14.6272 10.9761 14.6365 10.9722 14.646 10.969C14.6555 10.9659 14.6653 10.9635 14.6752 10.9619C14.6851 10.9603 14.6951 10.9595 14.7052 10.9595H21.8209C22.8181 10.9595 23.6293 10.1482 23.6293 9.15104V7.03326C23.6293 6.03602 22.818 5.22481 21.8209 5.22481H12.4884Z" fill="#15151B"/>
</g>
<defs>
<clipPath id="clip0_1_6">
<rect width="24" height="24" fill="white"/>
</clipPath>
</defs>
</svg>
