<svg width="24" height="24" viewBox="0 0 24 24" fill="none" xmlns="http://www.w3.org/2000/svg">
<g clip-path="url(#clip0_1_73)">
<path d="M21.5916 5.96478V16.6152C21.5916 17.6765 20.7315 18.5366 19.6702 18.5366H2.09293C1.82519 18.5366 1.56991 18.4811 1.33824 18.3826C0.651529 18.0899 0.171524 17.4087 0.171524 16.6152V5.96478C0.171524 4.90487 1.03165 4.04474 2.09294 4.04474H19.6702C20.4638 4.04474 21.1449 4.52613 21.4376 5.21147C21.5375 5.44315 21.5916 5.69703 21.5916 5.96478Z" fill="white"/>
<path d="M21.5916 5.96477V16.6152C21.5916 17.6765 20.7315 18.5366 19.6702 18.5366H2.09293C1.82519 18.5366 1.56991 18.4811 1.33824 18.3826C1.23975 18.1509 1.18423 17.8957 1.18423 17.6279V6.97752C1.18423 5.91761 2.04439 5.05746 3.10567 5.05746H20.6843C20.9521 5.05746 21.2059 5.11159 21.4376 5.21147C21.5375 5.44314 21.5916 5.69703 21.5916 5.96477Z" fill="#FFE4B8"/>
<path d="M21.5916 5.96477V16.6152C21.5916 17.6765 20.7315 18.5366 19.6702 18.5366H2.09293C1.82519 18.5366 1.56991 18.4811 1.33824 18.3826C1.23975 18.1509 1.18423 17.8957 1.18423 17.6279V16.3211C2.94751 16.8843 4.92307 17.2006 7.00956 17.2006C14.4525 17.2006 20.4859 13.1844 20.4859 8.22888C20.4859 7.11209 20.1794 6.04386 19.6189 5.05746H20.6843C20.9521 5.05746 21.206 5.11159 21.4376 5.21147C21.5375 5.44314 21.5916 5.69703 21.5916 5.96477Z" fill="#FFD591"/>
<path d="M15.1725 18.5363L14.8401 18.7438C14.0886 19.2127 14.3111 20.3613 15.1834 20.5157L15.1829 20.5164H19.4471C19.8959 20.5164 20.2581 20.8786 20.2581 21.326C20.2581 21.7733 19.8959 22.137 19.4471 22.137H2.83377C2.38497 22.137 2.02275 21.7733 2.02275 21.326C2.02275 20.8786 2.38497 20.5164 2.83377 20.5164H6.58068L6.58022 20.5157C7.45246 20.3613 7.67498 19.2127 6.92349 18.7438L6.59108 18.5363H15.1725Z" fill="#FFE4B8"/>
<path d="M6.59062 18.5089H15.1725L14.8396 18.7156C14.3804 19.0027 14.2847 19.5438 14.4803 19.9558C13.3704 19.7657 12.1704 19.6617 10.9176 19.6617C9.63437 19.6617 8.40659 19.7699 7.27594 19.9697C7.34392 19.8337 7.3786 19.6825 7.3786 19.5299C7.3786 19.2205 7.2357 18.9098 6.92355 18.7156L6.59062 18.5089Z" fill="#FFD591"/>
<path d="M6.57995 20.7035C6.48091 20.7035 6.39312 20.6326 6.37527 20.5317C6.35526 20.4185 6.43075 20.3105 6.54391 20.2905C6.91966 20.224 7.10442 19.9378 7.15198 19.6922C7.19957 19.4465 7.13508 19.112 6.81131 18.91L6.48081 18.7037C6.3833 18.6429 6.35359 18.5145 6.41446 18.417C6.47532 18.3196 6.60366 18.2899 6.70117 18.3507L7.03167 18.5569C7.4522 18.8193 7.65488 19.2847 7.56058 19.7713C7.46633 20.258 7.10456 20.6139 6.61646 20.7003C6.6044 20.7025 6.59219 20.7035 6.57995 20.7035Z" fill="#14213D"/>
<path d="M18.0887 22.3156H2.758C2.19857 22.3156 1.74346 21.8605 1.74346 21.3011C1.74346 20.7424 2.19857 20.288 2.758 20.288H6.58063C6.69555 20.288 6.78873 20.3811 6.78873 20.4961C6.78873 20.611 6.69555 20.7042 6.58063 20.7042H2.758C2.42807 20.7042 2.15965 20.9719 2.15965 21.3011C2.15965 21.631 2.42807 21.8994 2.758 21.8994H18.0887C18.2036 21.8994 18.2968 21.9926 18.2968 22.1075C18.2968 22.2224 18.2036 22.3156 18.0887 22.3156ZM16.7864 20.7041H15.1342C15.0193 20.7041 14.9261 20.611 14.9261 20.496C14.9261 20.3811 15.0193 20.2879 15.1342 20.2879H16.7864C16.9013 20.2879 16.9945 20.3811 16.9945 20.496C16.9945 20.611 16.9013 20.7041 16.7864 20.7041ZM15.3172 18.7354H13.4023C13.2873 18.7354 13.1942 18.6423 13.1942 18.5273C13.1942 18.4124 13.2873 18.3192 13.4023 18.3192H15.3172C15.4322 18.3192 15.5253 18.4124 15.5253 18.5273C15.5253 18.6423 15.4322 18.7354 15.3172 18.7354ZM21.5068 14.7239C21.3919 14.7239 21.2987 14.6307 21.2987 14.5158V12.7693C21.2987 12.6544 21.3919 12.5612 21.5068 12.5612C21.6217 12.5612 21.7149 12.6544 21.7149 12.7693V14.5158C21.7149 14.6307 21.6217 14.7239 21.5068 14.7239ZM21.5068 6.23514C21.3919 6.23514 21.2987 6.14196 21.2987 6.02704C21.2987 5.08867 20.5352 4.32524 19.5969 4.32524H14.0416C13.9267 4.32524 13.8335 4.23206 13.8335 4.11714C13.8335 4.00222 13.9267 3.90904 14.0416 3.90904H19.5969C20.7648 3.90904 21.7149 4.85916 21.7149 6.02703C21.7149 6.14196 21.6217 6.23514 21.5068 6.23514ZM8.3126 18.7354H2.11799C0.950121 18.7354 0 17.7853 0 16.6174V6.02704C0 4.85917 0.950121 3.90905 2.11799 3.90905H7.13383C7.24875 3.90905 7.34193 4.00221 7.34193 4.11715C7.34193 4.23207 7.24875 4.32525 7.13383 4.32525H2.11799C1.17962 4.32525 0.416194 5.08868 0.416194 6.02705V16.6175C0.416194 17.5558 1.17962 18.3193 2.11799 18.3193H8.3126C8.42752 18.3193 8.5207 18.4124 8.5207 18.5274C8.5207 18.6423 8.42752 18.7354 8.3126 18.7354Z" fill="#14213D"/>
<path d="M15.1349 20.7036C15.1229 20.7036 15.1107 20.7025 15.0984 20.7003C14.6103 20.6139 14.2485 20.258 14.1543 19.7713C14.06 19.2847 14.2627 18.8193 14.6832 18.5569L15.0137 18.3507C15.1112 18.2898 15.2396 18.3195 15.3004 18.417C15.3613 18.5145 15.3316 18.6429 15.2341 18.7037L14.9036 18.91C14.5798 19.1121 14.5153 19.4465 14.5629 19.6922C14.6105 19.9378 14.7952 20.224 15.171 20.2905C15.2841 20.3105 15.3596 20.4185 15.3396 20.5317C15.3217 20.6326 15.234 20.7036 15.1349 20.7036Z" fill="#14213D"/>
<path d="M13.2192 2.20794V6.84711H8.02507V2.20794C8.02507 1.90133 8.2748 1.65302 8.57999 1.65302H12.6642C12.9708 1.65302 13.2192 1.90133 13.2192 2.20794Z" fill="white"/>
<path d="M13.2192 2.74899V6.8471H9.12105V3.30392C9.12105 2.99731 9.36938 2.74899 9.67597 2.74899H13.2192Z" fill="#FFF1D9"/>
<path d="M13.2192 2.74898V6.84709H9.12105V5.85932C10.8108 5.71365 12.2023 4.4415 12.6282 2.74898L13.2192 2.74898Z" fill="#FFDFAB"/>
<path d="M13.2192 12.0468V16.6859C13.2192 16.9925 12.9708 17.2409 12.6643 17.2409H8.58001C8.27481 17.2409 8.02509 16.9925 8.02509 16.6859V12.0468H13.2192Z" fill="white"/>
<path d="M13.2192 12.0468V16.6859C13.2192 16.9925 12.9708 17.2409 12.6642 17.2409H9.58303C9.27644 17.2409 9.02811 16.9925 9.02811 16.6859V12.0468H13.2192Z" fill="#FFF1D9"/>
<path d="M13.2192 12.0468V16.6859C13.2192 16.9925 12.9708 17.2409 12.6642 17.2409H9.58303C9.27644 17.2409 9.02811 16.9925 9.02811 16.6859V16.3114C10.9565 16.0242 12.4409 14.2623 12.4409 12.1328C12.4409 12.1036 12.4409 12.0759 12.4381 12.0468H13.2192Z" fill="#FFDFAB"/>
<path d="M13.2303 6.85266H18.4244V12.0468H13.2303V6.85266ZM7.97929 6.85266V12.0468H3.34013C3.03353 12.0468 2.7852 11.7984 2.7852 11.4918V7.40759C2.7852 7.10098 3.03353 6.85266 3.34013 6.85266H7.97929Z" fill="white"/>
<path d="M8.0556 6.85266H13.2497V12.0468H8.0556V6.85266Z" fill="white"/>
<path d="M7.97929 7.82516V12.0468H3.75771V8.38009C3.75771 8.07348 4.00604 7.82516 4.31263 7.82516H7.97929Z" fill="#FFD591"/>
<path d="M7.97929 7.82516V12.0468H3.75771V11.3919C5.64585 11.2851 7.18436 9.77572 7.46738 7.82516H7.97929Z" fill="#FFB843"/>
<path d="M8.02789 12.2547H3.38869C2.96796 12.2547 2.62567 11.9124 2.62567 11.4917V7.4074C2.62567 6.98667 2.96796 6.64438 3.38869 6.64438H8.02789C8.14282 6.64438 8.23599 6.73756 8.23599 6.85247V12.0466C8.23599 12.1615 8.14282 12.2547 8.02789 12.2547ZM3.38869 7.06057C3.19747 7.06057 3.04187 7.21615 3.04187 7.4074V11.4917C3.04187 11.6829 3.19746 11.8385 3.38869 11.8385H7.8198V7.06057H3.38869Z" fill="#14213D"/>
<path d="M13.2497 7.82516V12.0468H9.02811V8.61946C9.02811 8.18078 9.38373 7.82516 9.82241 7.82516H13.2497Z" fill="#FFD591"/>
<path d="M13.2497 7.82516V12.0468H9.02811V11.3919C10.926 11.2976 12.4756 9.78266 12.76 7.82516H13.2497Z" fill="#FFB843"/>
<path d="M13.222 12.2547C13.1071 12.2547 13.0139 12.1615 13.0139 12.0466V7.06057H8.02789C7.91297 7.06057 7.81979 6.96739 7.81979 6.85247C7.81979 6.73755 7.91297 6.64438 8.02789 6.64438H13.222C13.3369 6.64438 13.4301 6.73756 13.4301 6.85247V12.0466C13.4301 12.1615 13.3369 12.2547 13.222 12.2547Z" fill="#14213D"/>
<path d="M18.4161 7.06057H13.222C13.1071 7.06057 13.0139 6.96739 13.0139 6.85247C13.0139 6.73755 13.1071 6.64438 13.222 6.64438H18.4161C18.531 6.64438 18.6242 6.73756 18.6242 6.85247C18.6242 6.9674 18.531 7.06057 18.4161 7.06057Z" fill="#14213D"/>
<path d="M18.4244 7.82516V12.0468H14.2028V8.61946C14.2028 8.18078 14.5584 7.82516 14.9971 7.82516H18.4244Z" fill="#FFD591"/>
<path d="M18.4244 7.82516V12.0468H14.2028V11.3961C16.1547 11.36 17.7612 9.8229 18.0512 7.82516H18.4244Z" fill="#FFB843"/>
<path d="M18.4161 12.2547H13.222C13.1071 12.2547 13.0139 12.1615 13.0139 12.0466C13.0139 11.9317 13.1071 11.8385 13.222 11.8385H18.4161C18.531 11.8385 18.6242 11.9317 18.6242 12.0466C18.6242 12.1615 18.531 12.2547 18.4161 12.2547Z" fill="#14213D"/>
<path d="M23.6102 7.40758V11.4918C23.6102 11.7984 23.3618 12.0468 23.0552 12.0468H18.416V6.85266H23.0552C23.3618 6.85266 23.6102 7.10098 23.6102 7.40758Z" fill="white"/>
<path d="M23.6102 7.82516V11.4918C23.6102 11.7983 23.3617 12.0468 23.0552 12.0468H19.3886V8.61946C19.3886 8.18078 19.7442 7.82516 20.1829 7.82516H23.6102Z" fill="#FFD591"/>
<path d="M23.6102 7.82516V11.4918C23.6102 11.7984 23.3618 12.0468 23.0552 12.0468H19.3886V11.3947C21.3253 11.3434 22.9165 9.81179 23.205 7.82516H23.6102Z" fill="#FFB843"/>
<path d="M23.0553 12.2547H18.4161C18.3012 12.2547 18.208 12.1615 18.208 12.0466V6.85246C18.208 6.73754 18.3012 6.64437 18.4161 6.64437H23.0553C23.476 6.64437 23.8183 6.98665 23.8183 7.40739V11.4917C23.8183 11.9124 23.476 12.2547 23.0553 12.2547ZM18.6242 11.8385H23.0553C23.2465 11.8385 23.4021 11.6829 23.4021 11.4917V7.40739C23.4021 7.21614 23.2465 7.06056 23.0553 7.06056H18.6242V11.8385ZM13.222 7.06056C13.1071 7.06056 13.0139 6.96738 13.0139 6.85246V2.23717C13.0139 2.03275 12.8476 1.86645 12.6432 1.86645H8.60669C8.40228 1.86645 8.23598 2.03275 8.23598 2.23717V6.85246C8.23598 6.96738 8.1428 7.06056 8.02788 7.06056C7.91296 7.06056 7.81978 6.96738 7.81978 6.85246V2.23717C7.81978 1.80327 8.17277 1.45026 8.60668 1.45026H12.6432C13.0771 1.45026 13.4301 1.80327 13.4301 2.23717V6.85246C13.4301 6.96739 13.3369 7.06056 13.222 7.06056ZM12.667 17.4488H8.58281C8.16208 17.4488 7.81978 17.1065 7.81978 16.6858V12.0466C7.81978 11.9317 7.91296 11.8385 8.02788 11.8385H13.222C13.3369 11.8385 13.4301 11.9317 13.4301 12.0466V16.6858C13.4301 17.1065 13.0878 17.4488 12.667 17.4488ZM8.23598 12.2547V16.6858C8.23598 16.877 8.39158 17.0326 8.58281 17.0326H12.6671C12.8583 17.0326 13.0139 16.877 13.0139 16.6858V12.2547H8.23598ZM15.2649 10.9946C15.15 10.9946 15.0568 10.9014 15.0568 10.7865V7.99721C15.0568 7.88229 15.15 7.78911 15.2649 7.78911H15.8276C16.3708 7.78911 16.8127 8.23106 16.8127 8.77429C16.8127 9.31705 16.3708 9.75861 15.8276 9.75861H15.473V10.7865C15.473 10.9014 15.3798 10.9946 15.2649 10.9946ZM15.473 9.34243H15.8276C16.1413 9.34243 16.3965 9.08756 16.3965 8.7743C16.3965 8.46056 16.1413 8.20532 15.8276 8.20532H15.473V9.34243Z" fill="#14213D"/>
<path d="M16.6047 10.9947C16.5355 10.9947 16.4678 10.9602 16.4283 10.8972L15.6517 9.66135C15.5906 9.56403 15.6199 9.43559 15.7172 9.37443C15.8146 9.31328 15.943 9.34258 16.0041 9.43994L16.7807 10.6758C16.8418 10.7731 16.8125 10.9016 16.7152 10.9627C16.6808 10.9844 16.6425 10.9947 16.6047 10.9947ZM20.7093 10.9946H20.4312C20.3163 10.9946 20.2231 10.9015 20.2231 10.7865V7.99723C20.2231 7.88231 20.3163 7.78913 20.4312 7.78913H20.7093C21.3125 7.78913 21.8032 8.27984 21.8032 8.88301V9.90075C21.8032 10.5039 21.3125 10.9946 20.7093 10.9946ZM20.6393 10.5784H20.7093C21.083 10.5784 21.387 10.2744 21.387 9.90075V8.88301C21.387 8.50934 21.083 8.20532 20.7093 8.20532H20.6393V10.5784ZM10.6527 10.9946C10.1048 10.9946 9.65903 10.5489 9.65903 10.001V8.78281C9.65903 8.2349 10.1048 7.78913 10.6527 7.78913C11.2006 7.78913 11.6464 8.2349 11.6464 8.78281V10.001C11.6464 10.5489 11.2006 10.9946 10.6527 10.9946ZM10.6527 8.20533C10.3343 8.20533 10.0752 8.46438 10.0752 8.78281V10.001C10.0752 10.3194 10.3343 10.5784 10.6527 10.5784C10.9711 10.5784 11.2302 10.3194 11.2302 10.001V8.78281C11.2302 8.46438 10.9711 8.20533 10.6527 8.20533ZM6.14763 10.9946C6.10857 10.9946 6.0703 10.9836 6.0372 10.9629C6.00411 10.9421 5.97751 10.9125 5.96046 10.8774L5.43097 9.78594L4.9026 10.8772C4.86484 10.9552 4.7827 11.0015 4.69651 10.9938C4.61024 10.986 4.53786 10.9255 4.51476 10.842L3.74293 8.05273C3.71228 7.94196 3.7772 7.82732 3.88796 7.79667C3.99892 7.76607 4.11336 7.83098 4.14402 7.94174L4.76861 10.1989L5.2435 9.2181C5.26054 9.18293 5.28714 9.15326 5.32025 9.13249C5.35336 9.11173 5.39165 9.10071 5.43074 9.1007H5.4308C5.46988 9.1007 5.50816 9.1117 5.54127 9.13244C5.57438 9.15317 5.60098 9.18282 5.61804 9.21797L6.09405 10.1992L6.71759 7.94182C6.74818 7.83109 6.86266 7.76602 6.97358 7.79665C7.08437 7.82724 7.14937 7.94185 7.11875 8.05264L6.34828 10.8419C6.32521 10.9254 6.25286 10.9859 6.16663 10.9938C6.16026 10.9943 6.15392 10.9946 6.14763 10.9946Z" fill="#14213D"/>
<path d="M23.5491 19.1137L20.5636 22.0992C20.2404 22.4225 19.7146 22.4225 19.3913 22.0992L16.4059 19.1137C16.0812 18.7891 16.0812 18.2647 16.4059 17.9415L19.3913 14.9546C19.7146 14.6313 20.2404 14.6313 20.5636 14.9546L21.5944 15.9853L21.6 15.9909L23.5491 17.9415C23.8737 18.2647 23.8737 18.7891 23.5491 19.1137Z" fill="white"/>
<path d="M23.5491 19.1137L20.5636 22.0992C20.2404 22.4225 19.7146 22.4225 19.3913 22.0992L17.4408 20.1487C17.1175 19.8254 17.1175 19.2996 17.4408 18.9764L20.4263 15.9909C20.7495 15.669 21.2698 15.6676 21.5944 15.9853L21.5999 15.9909L23.5491 17.9415C23.8737 18.2647 23.8737 18.7891 23.5491 19.1137Z" fill="#FFD591"/>
<path d="M23.5491 19.1137L20.5636 22.0992C20.2404 22.4225 19.7146 22.4225 19.3913 22.0992L18.2496 20.9575C18.3245 20.9616 18.4008 20.9644 18.4771 20.9644C20.6399 20.9644 22.399 19.1234 22.442 16.8344L23.5491 17.9415C23.8737 18.2647 23.8737 18.7891 23.5491 19.1137Z" fill="#FFB843"/>
<path d="M19.9775 22.5497C19.7118 22.5497 19.4462 22.4486 19.2439 22.2464L16.2583 19.2608C16.0623 19.0648 15.9545 18.8043 15.9545 18.5272C15.9545 18.2501 16.0624 17.9896 16.2583 17.7937L19.2439 14.8081C19.6484 14.4036 20.3065 14.4036 20.711 14.8081L23.6966 17.7937C24.1011 18.1982 24.1011 18.8563 23.6967 19.2608L20.711 22.2464C20.5088 22.4486 20.2431 22.5497 19.9775 22.5497ZM19.5382 21.9521C19.7804 22.1943 20.1745 22.1943 20.4167 21.9521L23.4024 18.9665C23.6445 18.7243 23.6445 18.3302 23.4023 18.088L20.4167 15.1024C20.1745 14.8601 19.7804 14.8602 19.5382 15.1024L16.5526 18.088C16.4353 18.2053 16.3707 18.3613 16.3707 18.5272C16.3707 18.6931 16.4353 18.8491 16.5526 18.9665L19.5382 21.9521Z" fill="#14213D"/>
<path d="M19.427 20.7034C19.3914 20.7033 19.3564 20.6942 19.3254 20.6767C19.2251 20.6205 19.1894 20.4937 19.2456 20.3934L20.6936 17.8111L18.1112 19.259C18.011 19.3153 17.8842 19.2795 17.828 19.1793C17.7717 19.0791 17.8074 18.9522 17.9077 18.896L21.1348 17.0866C21.2162 17.041 21.3179 17.055 21.3838 17.1209C21.4497 17.1868 21.4637 17.2885 21.4181 17.3698L19.6087 20.597C19.5705 20.665 19.4998 20.7034 19.427 20.7034Z" fill="#14213D"/>
<path d="M20.0954 19.5114C20.0422 19.5114 19.9889 19.4911 19.9483 19.4505L19.0543 18.5565C18.973 18.4752 18.973 18.3435 19.0543 18.2622C19.1355 18.1809 19.2674 18.1809 19.3486 18.2622L20.2426 19.1562C20.3239 19.2375 20.3239 19.3692 20.2426 19.4505C20.202 19.4911 20.1487 19.5114 20.0954 19.5114Z" fill="#14213D"/>
</g>
<defs>
<clipPath id="clip0_1_73">
<rect width="24" height="24" fill="white"/>
</clipPath>
</defs>
</svg>
