<svg width="24" height="24" viewBox="0 0 24 24" fill="none" xmlns="http://www.w3.org/2000/svg">
<path d="M21.0977 20.5628H2.90236C2.12768 20.5628 1.49971 19.9919 1.49971 19.2877V2.74657C1.49971 2.04232 2.12768 1.47144 2.90236 1.47144H21.0975C21.8722 1.47144 22.5002 2.04232 22.5002 2.74657V19.2877C22.5003 19.9919 21.8722 20.5628 21.0977 20.5628Z" fill="#FCDEAE"/>
<path d="M21.7677 1.62608C21.8797 1.81296 21.9381 2.02242 21.9378 2.23522V18.7763C21.9378 19.4806 21.3098 20.0514 20.5352 20.0514H2.33985C2.09719 20.0514 1.86892 19.9954 1.6698 19.8968C1.7903 20.0984 1.96841 20.2666 2.18534 20.3839C2.40228 20.5011 2.64999 20.5629 2.90235 20.5628H21.0975C21.8722 20.5628 22.5002 19.9919 22.5002 19.2877V2.74648C22.5003 2.51709 22.4323 2.29192 22.3034 2.09473C22.1745 1.89753 21.9894 1.73563 21.7677 1.62608Z" fill="#F2D097"/>
<path d="M22.5003 4.65262V4.0125H19.7051V1.47133H19.0009V4.0125H16.7639V1.47133H16.0597V4.0125H13.8227V1.47133H13.1185V4.0125H10.8815V1.47133H10.1773V4.0125H7.94033V1.47133H7.23608V4.0125H4.99913V1.47133H4.29488V4.0125H1.49971V4.65273H4.29488V6.68632H1.49971V7.32654H4.29488V9.36014H1.49971V10.0004H4.29488V12.034H1.49971V12.6742H4.29488V14.7078H1.49971V15.348H4.29488V17.3816H1.49971V18.0218H4.29488V20.5629H4.99913V18.0218H7.23608V20.5629H7.94033V18.0218H10.1773V20.5629H10.8815V18.0218H13.1185V20.5629H13.8227V18.0218H16.0597V20.5629H16.7639V18.0218H19.0009V20.5629H19.7051V18.0218H22.5003V17.3816H19.7051V15.348H22.5003V14.7078H19.7051V12.6742H22.5003V12.034H19.7051V10.0004H22.5003V9.36014H19.7051V7.32644H22.5003V6.68622H19.7051V4.65262H22.5003ZM16.0597 4.65262V6.68622H13.8227V4.65262H16.0597ZM10.8815 9.36003V7.32644H13.1185V9.36003H10.8815ZM13.1185 10.0003V12.0339H10.8815V10.0003H13.1185ZM10.1773 9.36003H7.94033V7.32644H10.1773V9.36003ZM10.1773 10.0003V12.0339H7.94033V10.0003H10.1773ZM10.1773 12.6741V14.7077H7.94033V12.6741H10.1773ZM10.8815 12.6741H13.1185V14.7077H10.8815V12.6741ZM13.8227 12.6741H16.0597V14.7077H13.8227V12.6741ZM13.8227 12.0339V10.0003H16.0597V12.0339H13.8227ZM13.8227 9.36003V7.32644H16.0597V9.36003H13.8227ZM13.1185 4.65262V6.68622H10.8815V4.65262H13.1185ZM10.1773 4.65262V6.68622H7.94033V4.65262H10.1773ZM4.99913 4.65262H7.23608V6.68622H4.99913V4.65262ZM4.99913 7.32644H7.23608V9.36003H4.99913V7.32644ZM4.99913 10.0003H7.23608V12.0339H4.99913V10.0003ZM4.99913 12.6741H7.23608V14.7077H4.99913V12.6741ZM4.99913 17.3815V15.3479H7.23608V17.3815H4.99913ZM7.94033 17.3815V15.3479H10.1773V17.3815H7.94033ZM10.8815 17.3815V15.3479H13.1185V17.3815H10.8815ZM13.8227 17.3815V15.3479H16.0597V17.3815H13.8227ZM19.0009 17.3815H16.7639V15.3479H19.0009V17.3815ZM19.0009 14.7077H16.7639V12.6741H19.0009V14.7077ZM19.0009 12.0339H16.7639V10.0003H19.0009V12.0339ZM19.0009 9.36003H16.7639V7.32644H19.0009V9.36003ZM19.0009 6.68622H16.7639V4.65262H19.0009V6.68622Z" fill="#FFE7C0"/>
<path d="M4.29486 20.0514H4.99911V20.5628H4.29486V20.0514ZM16.0597 20.0514H16.7639V20.5628H16.0597V20.0514ZM13.1185 20.0514H13.8227V20.5628H13.1185V20.0514ZM7.23606 20.0514H7.94031V20.5628H7.23606V20.0514ZM10.1773 20.0514H10.8815V20.5628H10.1773V20.0514ZM19.0009 20.0514H19.7051V20.5628H19.0009V20.0514ZM21.9378 6.68623H22.5003V7.32646H21.9378V6.68623ZM21.9378 9.36005H22.5003V10.0003H21.9378V9.36005ZM21.9378 4.01251H22.5003V4.65274H21.9378V4.01251ZM21.9378 14.7077H22.5003V15.3479H21.9378V14.7077ZM21.9378 12.0339H22.5003V12.6741H21.9378V12.0339ZM21.9378 17.3815H22.5003V18.0217H21.9378V17.3815Z" fill="#FCDEAE"/>
<path d="M4.99913 4.65263H7.23608V6.68622H4.99913V4.65263Z" fill="#F7B447"/>
<path d="M16.7639 4.65263H19.0009V6.68622H16.7639V4.65263Z" fill="#E6A439"/>
<path d="M14.9065 14.748H9.09344C8.88801 14.748 8.691 14.6738 8.54574 14.5417C8.40048 14.4097 8.31888 14.2306 8.31888 14.0438V8.75929C8.31888 8.57254 8.40048 8.39344 8.54574 8.26139C8.691 8.12933 8.88801 8.05515 9.09344 8.05515H14.9065C15.112 8.05515 15.309 8.12933 15.4542 8.26139C15.5995 8.39344 15.6811 8.57254 15.6811 8.75929V14.0439C15.6811 14.2307 15.5995 14.4097 15.4542 14.5418C15.3089 14.6738 15.1119 14.748 14.9065 14.748Z" fill="#FCA311"/>
<path d="M8.994 13.9625C8.93432 13.9625 8.87709 13.941 8.8349 13.9026C8.7927 13.8642 8.769 13.8122 8.769 13.758C8.769 13.7037 8.7927 13.6517 8.8349 13.6133C8.87709 13.575 8.93432 13.5534 8.994 13.5534C9.05367 13.5534 9.1109 13.575 9.1531 13.6133C9.19529 13.6517 9.219 13.7037 9.219 13.758C9.219 13.8122 9.19529 13.8642 9.1531 13.9026C9.1109 13.941 9.05367 13.9625 8.994 13.9625ZM8.994 13.1443C8.87025 13.1443 8.769 13.0524 8.769 12.9398V8.75898C8.769 8.59739 8.91525 8.46443 9.09412 8.46443H14.4546C14.5143 8.46443 14.5715 8.48598 14.6137 8.52434C14.6559 8.5627 14.6796 8.61473 14.6796 8.66898C14.6796 8.72323 14.6559 8.77525 14.6137 8.81361C14.5715 8.85197 14.5143 8.87352 14.4546 8.87352H9.21888V12.9399C9.21874 12.9941 9.195 13.046 9.15285 13.0843C9.11071 13.1226 9.0536 13.1442 8.994 13.1443Z" fill="#FFA91D"/>
<path d="M15.0953 8.07629C15.1105 8.13121 15.1185 8.18869 15.1185 8.24791V13.5325C15.1185 13.7193 15.0369 13.8984 14.8916 14.0305C14.7464 14.1625 14.5494 14.2367 14.3439 14.2367H8.53095C8.46732 14.2367 8.40392 14.2296 8.34218 14.2156C8.3843 14.3678 8.48108 14.5027 8.61717 14.5992C8.75327 14.6957 8.92089 14.748 9.09345 14.7481H14.9066C15.112 14.7481 15.309 14.6739 15.4543 14.5418C15.5995 14.4098 15.6811 14.2307 15.6811 14.0439V8.75927C15.6811 8.60239 15.6234 8.45002 15.5173 8.3263C15.4112 8.20258 15.2627 8.1146 15.0953 8.07629Z" fill="#F7A319"/>
<path d="M10.4719 22.5286H4.65881C4.45338 22.5286 4.25637 22.4544 4.11111 22.3223C3.96585 22.1903 3.88425 22.0112 3.88425 21.8244V16.5399C3.88425 16.3531 3.96585 16.174 4.11111 16.042C4.25637 15.9099 4.45338 15.8357 4.65881 15.8357H10.4719C10.6773 15.8357 10.8743 15.9099 11.0196 16.042C11.1649 16.174 11.2465 16.3531 11.2465 16.5399V21.8245C11.2464 22.0113 11.1648 22.1903 11.0196 22.3224C10.8743 22.4544 10.6773 22.5286 10.4719 22.5286Z" fill="#FCA311"/>
<path d="M10.6607 15.8569C10.6759 15.9118 10.6839 15.9693 10.6839 16.0285V21.3132C10.6839 21.4999 10.6023 21.679 10.457 21.8111C10.3117 21.9431 10.1147 22.0173 9.90931 22.0173H4.09632C4.03269 22.0173 3.96929 22.0103 3.90755 21.9962C3.94967 22.1484 4.04645 22.2834 4.18254 22.3798C4.31864 22.4763 4.48626 22.5287 4.65882 22.5287H10.4719C10.6773 22.5287 10.8744 22.4545 11.0196 22.3224C11.1649 22.1904 11.2465 22.0113 11.2465 21.8245V16.5399C11.2464 16.383 11.1888 16.2306 11.0827 16.1069C10.9765 15.9832 10.828 15.8952 10.6607 15.8569Z" fill="#F7A319"/>
<path d="M19.3412 22.5286H13.5281C13.3226 22.5286 13.1256 22.4544 12.9804 22.3223C12.8351 22.1903 12.7535 22.0112 12.7535 21.8244V16.5399C12.7535 16.3531 12.8351 16.174 12.9804 16.042C13.1256 15.9099 13.3226 15.8357 13.5281 15.8357H19.3412C19.5466 15.8357 19.7436 15.9099 19.8889 16.042C20.0341 16.174 20.1157 16.3531 20.1157 16.5399V21.8245C20.1157 22.0113 20.0341 22.1903 19.8888 22.3224C19.7436 22.4544 19.5466 22.5286 19.3412 22.5286Z" fill="#FCA311"/>
<path d="M19.3412 15.8358H18.9908V20.8018C18.9908 20.8943 18.9707 20.9858 18.9318 21.0713C18.8929 21.1567 18.8358 21.2343 18.7639 21.2997C18.692 21.3651 18.6066 21.417 18.5126 21.4523C18.4186 21.4877 18.3179 21.5059 18.2162 21.5059H12.7536V21.8245C12.7536 22.0113 12.8353 22.1904 12.9805 22.3224C13.1258 22.4545 13.3228 22.5287 13.5282 22.5287H19.3413C19.5467 22.5287 19.7437 22.4545 19.889 22.3224C20.0343 22.1904 20.1159 22.0113 20.1159 21.8245V16.5399C20.1158 16.3532 20.0341 16.1741 19.8889 16.0421C19.7436 15.9101 19.5466 15.8359 19.3412 15.8358Z" fill="#F7A319"/>
<path d="M19.53 15.8569C19.5452 15.9118 19.5531 15.9693 19.5531 16.0285V21.3132C19.5531 21.4999 19.4715 21.679 19.3263 21.8111C19.181 21.9431 18.984 22.0173 18.7786 22.0173H12.9655C12.9018 22.0173 12.8384 22.0103 12.7767 21.9962C12.8188 22.1484 12.9156 22.2834 13.0517 22.3798C13.1878 22.4763 13.3554 22.5287 13.528 22.5287H19.3411C19.5465 22.5287 19.7435 22.4545 19.8888 22.3224C20.034 22.1904 20.1156 22.0113 20.1156 21.8245V16.5399C20.1156 16.383 20.058 16.2306 19.9519 16.1069C19.8458 15.9832 19.6973 15.8952 19.53 15.8569Z" fill="#EF9D16"/>
<path d="M7.90636 18.9217H6.37164C6.31196 18.9217 6.25473 18.9002 6.21254 18.8618C6.17034 18.8234 6.14664 18.7714 6.14664 18.7172V17.1669C6.14664 17.1127 6.17034 17.0606 6.21254 17.0223C6.25473 16.9839 6.31196 16.9624 6.37164 16.9624H7.90636C8.50059 16.9624 8.984 17.4018 8.984 17.942C8.984 18.4822 8.50059 18.9217 7.90636 18.9217ZM6.59664 18.5126H7.90636C8.25241 18.5126 8.534 18.2566 8.534 17.942C8.534 17.6275 8.25241 17.3715 7.90636 17.3715H6.59664V18.5126Z" fill="#14213D"/>
<path d="M7.90636 21.4021H6.37164C6.31196 21.4021 6.25473 21.3806 6.21254 21.3422C6.17034 21.3039 6.14664 21.2518 6.14664 21.1976V18.7172C6.14664 18.6629 6.17034 18.6109 6.21254 18.5725C6.25473 18.5342 6.31196 18.5126 6.37164 18.5126H7.90636C8.50059 18.5126 8.984 18.9521 8.984 19.4923V20.4225C8.984 20.9627 8.50059 21.4021 7.90636 21.4021ZM6.59664 20.993H7.90636C8.07276 20.9929 8.23228 20.9327 8.34994 20.8257C8.4676 20.7187 8.53379 20.5737 8.534 20.4225V19.4923C8.53379 19.341 8.4676 19.196 8.34994 19.089C8.23228 18.9821 8.07276 18.9219 7.90636 18.9217H6.59664V20.993Z" fill="#14213D"/>
<path d="M16.7757 21.4021H16.0936C15.4994 21.4021 15.016 20.9627 15.016 20.4225V17.942C15.016 17.4018 15.4994 16.9624 16.0936 16.9624H16.7757C17.3698 16.9624 17.8533 17.4018 17.8533 17.942C17.8533 17.9963 17.8295 18.0483 17.7874 18.0867C17.7452 18.125 17.6879 18.1466 17.6283 18.1466C17.5686 18.1466 17.5114 18.125 17.4692 18.0867C17.427 18.0483 17.4033 17.9963 17.4033 17.942C17.4031 17.7908 17.3369 17.6458 17.2193 17.5388C17.1016 17.4318 16.9421 17.3717 16.7757 17.3715H16.0936C15.9272 17.3717 15.7677 17.4318 15.6501 17.5388C15.5324 17.6458 15.4662 17.7908 15.466 17.942V20.4225C15.4662 20.5737 15.5324 20.7188 15.6501 20.8257C15.7677 20.9327 15.9272 20.9929 16.0936 20.993H16.7757C16.9421 20.9929 17.1016 20.9327 17.2193 20.8257C17.3369 20.7187 17.4031 20.5737 17.4033 20.4225C17.4033 20.3682 17.427 20.3162 17.4692 20.2778C17.5114 20.2395 17.5686 20.2179 17.6283 20.2179C17.6879 20.2179 17.7452 20.2395 17.7874 20.2778C17.8295 20.3162 17.8533 20.3682 17.8533 20.4225C17.8533 20.9627 17.3698 21.4021 16.7757 21.4021Z" fill="#14213D"/>
<path d="M13.0416 13.6322C12.9423 13.6322 12.8515 13.5719 12.8244 13.4807L11.848 10.1837L10.8715 13.4807C10.856 13.5331 10.8183 13.5777 10.7666 13.6048C10.7149 13.6319 10.6535 13.6392 10.5958 13.6251C10.5382 13.611 10.4891 13.5767 10.4593 13.5297C10.4296 13.4827 10.4215 13.4268 10.437 13.3744L11.6308 9.34377C11.6436 9.30029 11.6718 9.26187 11.7111 9.23446C11.7504 9.20706 11.7985 9.1922 11.848 9.1922C11.8975 9.1922 11.9457 9.20706 11.9849 9.23446C12.0242 9.26187 12.0525 9.30029 12.0653 9.34377L13.259 13.3744C13.268 13.4048 13.2692 13.4366 13.2624 13.4674C13.2557 13.4982 13.2413 13.5272 13.2203 13.5521C13.1993 13.577 13.1722 13.5972 13.1413 13.6111C13.1103 13.625 13.0762 13.6322 13.0416 13.6322Z" fill="#14213D"/>
<path d="M12.5301 12.0818H11.1659C11.1063 12.0818 11.049 12.0603 11.0068 12.0219C10.9646 11.9836 10.9409 11.9315 10.9409 11.8773C10.9409 11.823 10.9646 11.771 11.0068 11.7326C11.049 11.6943 11.1063 11.6727 11.1659 11.6727H12.5301C12.5898 11.6727 12.647 11.6943 12.6892 11.7326C12.7314 11.771 12.7551 11.823 12.7551 11.8773C12.7551 11.9315 12.7314 11.9836 12.6892 12.0219C12.647 12.0603 12.5898 12.0818 12.5301 12.0818Z" fill="#14213D"/>
</svg>
