<svg width="24" height="24" viewBox="0 0 24 24" fill="none" xmlns="http://www.w3.org/2000/svg">
<path d="M21.4962 17.16H19.4919V15.5578C19.547 15.5708 19.6022 15.5805 19.6573 15.5805H19.667C20.1243 15.5741 20.4908 15.1232 20.88 14.6465C21.1524 14.3092 21.493 13.8941 21.7232 13.8908C21.7459 13.8908 21.827 13.8876 21.9503 14.0303C22.0314 14.1243 22.1676 14.1438 22.2681 14.0757C22.3719 14.0076 22.4076 13.8746 22.3524 13.7643C21.7751 12.5968 21.1005 12.8432 20.6076 13.0249C20.147 13.1968 19.8649 13.2973 19.4919 12.5773V12.4184C19.6378 12.3341 19.7351 12.1816 19.7351 12.0032C19.7351 11.7341 19.5178 11.5168 19.2486 11.5168C18.9827 11.5168 18.7654 11.7341 18.7654 12.0032C18.7654 12.1816 18.8627 12.3341 19.0054 12.4184V17.16H16.3622C15.1297 17.16 14.1243 16.1578 14.1243 14.9254V7.8746C14.1243 4.42703 11.3189 1.62163 7.87135 1.62163C4.42378 1.62163 1.61838 4.42703 1.61838 7.8746V21.493C1.61838 21.9795 2.0173 22.3784 2.50378 22.3784H4.75135C5.24108 22.3784 5.63676 21.9795 5.63676 21.493V12.5157C5.96108 12.3405 6.30486 12.1978 6.66162 12.1038C6.97946 12.0195 7.30378 11.9708 7.62811 11.9514V13.1222C7.62811 13.4303 7.8 13.7157 8.06919 13.8519C8.22162 13.9265 8.35784 14.1211 8.29622 14.3611C8.26054 14.5038 8.1373 14.627 7.99459 14.6627C7.85189 14.7016 7.71568 14.6757 7.60216 14.5914C7.49513 14.507 7.43351 14.3805 7.43351 14.2411C7.43351 14.1081 7.32324 13.9978 7.19027 13.9978C7.05405 13.9978 6.94703 14.1081 6.94703 14.2411C6.94703 14.533 7.07676 14.7989 7.30703 14.9773C7.40432 15.0519 7.51459 15.1005 7.62811 15.133V15.7103C7.51135 15.6649 7.38811 15.6357 7.25838 15.6357C6.71027 15.6357 6.2627 16.0832 6.2627 16.6314C6.2627 17.8054 7.69297 18.6032 7.75459 18.6357C7.79027 18.6584 7.83243 18.6681 7.87135 18.6681C7.91351 18.6681 7.95243 18.6584 7.98811 18.6357C8.04973 18.6032 9.48 17.8054 9.48 16.6314C9.48 16.0832 9.03568 15.6357 8.48757 15.6357C8.35784 15.6357 8.23135 15.6649 8.11459 15.7103V15.133C8.11784 15.133 8.11784 15.133 8.12108 15.133C8.43243 15.0519 8.68865 14.7957 8.76649 14.4843C8.87676 14.053 8.68216 13.6151 8.28649 13.4173C8.1827 13.3654 8.11459 13.2487 8.11459 13.1222V11.9514C8.43892 11.9708 8.76324 12.0195 9.08432 12.1038C9.43784 12.1978 9.78162 12.3405 10.1092 12.5157V14.9254C10.1092 18.373 12.9114 21.1784 16.3622 21.1784H21.4962C21.9827 21.1784 22.3784 20.7795 22.3784 20.293V18.0422C22.3816 17.5557 21.9827 17.16 21.4962 17.16ZM10.9589 3.01298C11.6724 3.46703 12.2789 4.07352 12.733 4.78703L10.0962 6.31136C9.91459 6.05514 9.69081 5.83136 9.43784 5.65298L10.9589 3.01298ZM13.6378 8.11784V9.87244H10.5957V8.11784H13.6378ZM5.15027 21.493C5.15027 21.7135 4.97189 21.8919 4.75135 21.8919H2.50378C2.28324 21.8919 2.10486 21.7135 2.10486 21.493V19.9751H5.15027V21.493ZM5.15027 17.0854H2.10486V15.1687H5.15027V17.0854ZM5.15027 12.2789H2.10486V10.3589H5.15027V12.2789ZM5.16324 7.63136H2.11784C2.15351 6.75893 2.38054 5.93838 2.76649 5.20541L5.40649 6.72974C5.27676 7.00865 5.19568 7.31028 5.16324 7.63136ZM5.2054 2.76649C5.93513 2.38379 6.75892 2.15676 7.62811 2.12109V5.16649C7.31027 5.19568 7.00865 5.28001 6.72973 5.40974L5.2054 2.76649ZM6.35676 11.6919C6.11027 11.7665 5.87027 11.8541 5.63676 11.9676V10.2649C5.86703 10.1384 6.11027 10.0411 6.35676 9.95676V11.6919ZM7.62811 11.4649C7.36541 11.4778 7.1027 11.5103 6.84324 11.5622V9.81406C7.1027 9.75568 7.36541 9.71676 7.62811 9.70379V11.4649ZM8.9027 11.5622C8.64324 11.5103 8.3773 11.4778 8.11459 11.4649V9.70379C8.38054 9.71676 8.64324 9.75568 8.9027 9.81406V11.5622ZM10.1092 11.9676C9.87568 11.8541 9.63568 11.7665 9.38919 11.6919V9.95676C9.63568 10.0411 9.87892 10.1384 10.1092 10.2649V11.9676ZM10.1092 9.72001C9.8173 9.58055 9.51892 9.46703 9.20757 9.38595C8.33513 9.15244 7.41405 9.1492 6.53513 9.38595C6.22703 9.46703 5.9254 9.58055 5.63676 9.72001V7.8746C5.63676 6.64217 6.63892 5.64001 7.87135 5.64001C9.10378 5.64001 10.1092 6.64217 10.1092 7.8746V9.72001ZM10.5957 12.7654H13.6378V14.6822H10.5957V12.7654ZM13.5859 19.2422C13.5859 19.2454 13.5859 19.2454 13.5859 19.2487L13.2746 19.787C12.5611 19.333 11.9546 18.7265 11.5005 18.013L14.1373 16.4887C14.3189 16.7449 14.5427 16.9687 14.7957 17.147L14.0335 18.4735C14.0303 18.4735 14.0303 18.4735 14.0303 18.4768C14.027 18.4768 14.027 18.48 14.027 18.48L13.5892 19.2389C13.5892 19.2389 13.5892 19.2422 13.5859 19.2422ZM16.1189 20.6789C15.2465 20.6432 14.4259 20.4162 13.693 20.0303L13.8908 19.693C14.5816 20.053 15.3405 20.2573 16.1189 20.293V20.6789ZM16.1189 19.8065C15.4281 19.7741 14.7503 19.5892 14.1341 19.2714L14.3319 18.9243C14.8865 19.2065 15.4962 19.3687 16.1189 19.4043V19.8065ZM16.1189 18.9081C15.5805 18.8757 15.0584 18.7362 14.5816 18.4962L14.7827 18.146C15.1978 18.3535 15.6519 18.4735 16.1189 18.506V18.9081ZM16.1189 18.0195C15.7362 17.9903 15.3665 17.8897 15.0259 17.7243L15.2173 17.3903C15.4962 17.52 15.7978 17.6043 16.1189 17.6335V18.0195ZM19.2486 19.6151C18.4605 19.6151 17.9805 19.3265 17.9805 19.1676C17.9805 19.0281 18.3632 18.7849 19.0054 18.733V18.9989C19.0054 19.1319 19.1157 19.2422 19.2486 19.2422C19.3849 19.2422 19.4919 19.1319 19.4919 18.9989V18.733C20.1341 18.7849 20.52 19.0281 20.52 19.1676C20.52 19.3265 20.0368 19.6151 19.2486 19.6151Z" fill="#FFB843"/>
<path d="M3.04541 21.4216C3.10054 21.4216 3.15568 21.4022 3.20108 21.3633L3.62919 21.0033L4.0573 21.3633C4.16109 21.4508 4.31352 21.4378 4.40108 21.3341C4.48865 21.2303 4.47568 21.0778 4.3719 20.9903L3.78811 20.5005C3.6973 20.426 3.56433 20.426 3.47352 20.5005L2.88973 20.9903C2.78595 21.0778 2.77298 21.2303 2.86054 21.3341C2.90919 21.3924 2.9773 21.4216 3.04541 21.4216ZM3.04541 16.6151C3.10054 16.6151 3.15568 16.5957 3.20108 16.5568L3.62919 16.1968L4.0573 16.5568C4.16109 16.6443 4.31352 16.6314 4.40108 16.5276C4.48865 16.4238 4.47568 16.2714 4.3719 16.1838L3.78811 15.6941C3.6973 15.6195 3.56433 15.6195 3.47352 15.6941L2.88973 16.1838C2.78595 16.2714 2.77298 16.4238 2.86054 16.5276C2.90919 16.586 2.9773 16.6151 3.04541 16.6151ZM2.79244 6.98271C2.85406 7.10271 3.00325 7.14812 3.12 7.08325L3.61298 6.82055L3.95676 7.26163C4.00541 7.32325 4.07676 7.35568 4.14811 7.35568C4.2 7.35568 4.2519 7.33947 4.2973 7.30379C4.40433 7.22271 4.42379 7.07028 4.33946 6.96325L3.87244 6.36001C3.80108 6.26595 3.67136 6.24001 3.56757 6.29514L2.89298 6.6519C2.77622 6.72001 2.73081 6.86595 2.79244 6.98271ZM7.31676 3.69082C7.37838 3.59028 7.36217 3.46055 7.2746 3.37947L6.70703 2.87028C6.60649 2.77947 6.45406 2.7892 6.36325 2.88649C6.27244 2.98703 6.28217 3.13947 6.38271 3.23028L6.79784 3.60325L6.49946 4.07676C6.42811 4.19028 6.46054 4.33947 6.5773 4.41082C6.61622 4.43676 6.66163 4.44974 6.70703 4.44974C6.78811 4.44974 6.86595 4.41082 6.9146 4.33622L7.31676 3.69082ZM13.6151 17.5135C13.586 17.3838 13.453 17.2995 13.3232 17.3319C13.1935 17.3611 13.1092 17.4941 13.1416 17.6238L13.2681 18.1687L12.7524 18.386C12.6292 18.4378 12.5708 18.5805 12.6227 18.7038C12.6616 18.7978 12.7524 18.853 12.8465 18.853C12.8789 18.853 12.9114 18.8465 12.9405 18.8335L13.6443 18.5384C13.7546 18.493 13.813 18.3762 13.787 18.2595L13.6151 17.5135ZM10.3589 5.17622L11.1049 5.33839C11.1211 5.34163 11.1405 5.34487 11.1568 5.34487C11.2541 5.34487 11.3449 5.28649 11.3805 5.19244L11.666 4.48541C11.7178 4.36217 11.6562 4.21947 11.533 4.16758C11.4097 4.11568 11.267 4.17731 11.2151 4.30055L11.0043 4.81947L10.4595 4.70271C10.3297 4.67676 10.2 4.75785 10.1708 4.89082C10.1449 5.0173 10.2292 5.14703 10.3589 5.17622ZM3.22703 12.0876C3.27244 12.1265 3.32757 12.146 3.38271 12.146C3.45081 12.146 3.52217 12.1168 3.56757 12.0584L4.0573 11.4746C4.1319 11.3838 4.1319 11.2508 4.0573 11.1633L3.56757 10.5795C3.48 10.4757 3.32757 10.4627 3.22379 10.5503C3.12 10.6378 3.10703 10.7903 3.1946 10.8941L3.5546 11.3222L3.1946 11.7503C3.11027 11.8476 3.12325 12.0033 3.22703 12.0876ZM12.5449 13.2908L12.1168 13.6508L11.6887 13.2908C11.5849 13.2033 11.4324 13.2195 11.3449 13.32C11.2573 13.4238 11.2703 13.5762 11.3741 13.6638L11.9578 14.1535C12.0032 14.1924 12.0584 14.2119 12.1135 14.2119C12.1687 14.2119 12.2238 14.1924 12.2692 14.1535L12.853 13.6638C12.9568 13.5762 12.9697 13.4238 12.8822 13.32C12.8011 13.2162 12.6487 13.2033 12.5449 13.2908ZM11.6919 9.42812L12.12 9.06812L12.5481 9.42812C12.5935 9.46703 12.6487 9.48649 12.7038 9.48649C12.7719 9.48649 12.8432 9.4573 12.8887 9.39893C12.9762 9.29514 12.9632 9.14271 12.8595 9.05514L12.2757 8.56541C12.1849 8.49082 12.0519 8.49082 11.9611 8.56541L11.3773 9.05514C11.2735 9.14271 11.2605 9.29514 11.3481 9.39893C11.4357 9.49947 11.5914 9.51244 11.6919 9.42812ZM20.0076 5.43244C20.1405 5.43244 20.2541 5.32217 20.2541 5.18595C20.2541 5.04974 20.1438 4.93947 20.0076 4.93947C19.8714 4.93947 19.7611 5.04974 19.7611 5.18595C19.7611 5.32217 19.8714 5.43244 20.0076 5.43244Z" fill="#FFB843"/>
<path d="M21.0324 6.46053C21.1686 6.46053 21.2789 6.35018 21.2789 6.21405C21.2789 6.07792 21.1686 5.96756 21.0324 5.96756C20.8963 5.96756 20.7859 6.07792 20.7859 6.21405C20.7859 6.35018 20.8963 6.46053 21.0324 6.46053Z" fill="#FFB843"/>
<path d="M21.0324 5.43243C21.1654 5.43243 21.2789 5.32216 21.2789 5.18594C21.2789 5.04972 21.1686 4.93945 21.0324 4.93945C20.8962 4.93945 20.7859 5.04972 20.7859 5.18594C20.7859 5.32216 20.8995 5.43243 21.0324 5.43243Z" fill="#FFB843"/>
<path d="M20.0076 6.46053C20.1437 6.46053 20.2541 6.35018 20.2541 6.21405C20.2541 6.07792 20.1437 5.96756 20.0076 5.96756C19.8714 5.96756 19.7611 6.07792 19.7611 6.21405C19.7611 6.35018 19.8714 6.46053 20.0076 6.46053Z" fill="#FFB843"/>
<path d="M19.7611 7.56H21.2822C21.8887 7.56 22.3816 7.06702 22.3816 6.46054V4.93946C22.3816 4.33297 21.8887 3.84 21.2822 3.84H19.7611C19.1546 3.84 18.6616 4.33297 18.6616 4.93946V6.46054C18.6584 7.06702 19.1546 7.56 19.7611 7.56ZM19.1449 4.93946C19.1449 4.60216 19.4205 4.32648 19.7578 4.32648H21.2789C21.6162 4.32648 21.8919 4.60216 21.8919 4.93946V6.46054C21.8919 6.79783 21.6162 7.07351 21.2789 7.07351H19.7578C19.4205 7.07351 19.1449 6.79783 19.1449 6.46054V4.93946ZM16.4238 9.34054C16.427 9.34054 16.4303 9.34054 16.4335 9.34054C16.4951 9.33729 16.5535 9.31135 16.5957 9.26919C16.6865 9.17837 16.6897 9.03243 16.6119 8.93837C16.6119 8.93513 16.6086 8.93513 16.6054 8.93189C16.6022 8.92865 16.5989 8.9254 16.5957 8.92216C16.5535 8.88 16.4951 8.85405 16.4335 8.85081C16.3622 8.84432 16.2973 8.87351 16.2486 8.92216C16.1546 9.01621 16.1546 9.17513 16.2486 9.26919C16.2941 9.31459 16.3589 9.34054 16.4238 9.34054ZM18.1492 9.34054C18.2108 9.34054 18.2757 9.31783 18.3243 9.26919C18.4184 9.17513 18.4184 9.01621 18.3243 8.92216C18.2303 8.8281 18.0714 8.8281 17.9773 8.92216C17.8832 9.01621 17.8832 9.17513 17.9773 9.26919C18.0227 9.31783 18.0843 9.34054 18.1492 9.34054ZM17.2735 9.34054C17.2768 9.34054 17.28 9.34054 17.2832 9.34054C17.3481 9.34054 17.413 9.31459 17.4584 9.26919C17.5524 9.17513 17.5524 9.01621 17.4584 8.92216C17.4097 8.87351 17.3449 8.84756 17.2735 8.85081C17.2119 8.85405 17.1535 8.88 17.1114 8.92216C17.0238 9.00973 17.0173 9.15567 17.0951 9.25297C17.1405 9.30486 17.2054 9.33729 17.2735 9.34054ZM17.1016 8.39675C17.1049 8.4 17.1081 8.40324 17.1114 8.40648C17.1535 8.44865 17.2119 8.47459 17.2735 8.47783C17.2768 8.47783 17.28 8.47783 17.2832 8.47783C17.3481 8.47783 17.413 8.45189 17.4584 8.40648C17.5524 8.31243 17.5524 8.15351 17.4584 8.05946C17.4097 8.01081 17.3449 7.98162 17.2735 7.9881C17.2119 7.99135 17.1535 8.01729 17.1114 8.05946C17.0205 8.15027 17.0173 8.29621 17.0951 8.39027C17.0984 8.39351 17.1016 8.39351 17.1016 8.39675ZM17.2865 10.2032C17.3351 10.2032 17.3805 10.1903 17.4227 10.1611C17.4292 10.1578 17.4324 10.1546 17.4357 10.1513C17.4422 10.1449 17.4519 10.1384 17.4584 10.1319C17.4973 10.093 17.5232 10.0378 17.5297 9.9827C17.5362 9.91135 17.5103 9.83675 17.4584 9.78486C17.4097 9.73621 17.3449 9.70702 17.2735 9.71351C17.2119 9.71675 17.1535 9.7427 17.1114 9.78486C17.0173 9.87892 17.0173 10.0378 17.1114 10.1319C17.16 10.1805 17.2216 10.2032 17.2865 10.2032Z" fill="#FFB843"/>
<path d="M16.5081 10.9492C16.7157 11.1568 16.9913 11.2703 17.2865 11.2703C17.5816 11.2703 17.8573 11.1568 18.0649 10.9492L19.1384 9.87568C19.3459 9.66812 19.4595 9.39244 19.4595 9.0973C19.4595 8.80217 19.3459 8.52649 19.1384 8.31893L18.0649 7.24541C17.6368 6.8173 16.9362 6.8173 16.5081 7.24541L15.4346 8.31893C15.227 8.52649 15.1135 8.80217 15.1135 9.0973C15.1135 9.39244 15.227 9.66812 15.4346 9.87568L16.5081 10.9492ZM15.7751 8.66271L16.8486 7.5892C16.9686 7.4692 17.1243 7.41082 17.2832 7.41082C17.4389 7.41082 17.5978 7.4692 17.7178 7.5892L18.7913 8.66271C18.9081 8.77947 18.9697 8.9319 18.9697 9.0973C18.9697 9.26271 18.9049 9.41514 18.7913 9.5319L17.7178 10.6054C17.4843 10.8357 17.0822 10.8357 16.8486 10.6054L15.7751 9.5319C15.5384 9.2919 15.5384 8.90271 15.7751 8.66271Z" fill="#FFB843"/>
</svg>
